%TF.GenerationSoftware,KiCad,Pcbnew,10.0.3*%
%TF.CreationDate,2026-07-17T16:07:05-07:00*%
%TF.ProjectId,canENDR-FRC,63616e45-4e44-4522-9d46-52432e6b6963,rev?*%
%TF.SameCoordinates,Original*%
%TF.FileFunction,Legend,Top*%
%TF.FilePolarity,Positive*%
%FSLAX46Y46*%
G04 Gerber Fmt 4.6, Leading zero omitted, Abs format (unit mm)*
G04 Created by KiCad (PCBNEW 10.0.3) date 2026-07-17 16:07:05*
%MOMM*%
%LPD*%
G01*
G04 APERTURE LIST*
G04 Aperture macros list*
%AMRoundRect*
0 Rectangle with rounded corners*
0 $1 Rounding radius*
0 $2 $3 $4 $5 $6 $7 $8 $9 X,Y pos of 4 corners*
0 Add a 4 corners polygon primitive as box body*
4,1,4,$2,$3,$4,$5,$6,$7,$8,$9,$2,$3,0*
0 Add four circle primitives for the rounded corners*
1,1,$1+$1,$2,$3*
1,1,$1+$1,$4,$5*
1,1,$1+$1,$6,$7*
1,1,$1+$1,$8,$9*
0 Add four rect primitives between the rounded corners*
20,1,$1+$1,$2,$3,$4,$5,0*
20,1,$1+$1,$4,$5,$6,$7,0*
20,1,$1+$1,$6,$7,$8,$9,0*
20,1,$1+$1,$8,$9,$2,$3,0*%
G04 Aperture macros list end*
%ADD10C,0.142875*%
%ADD11C,0.200000*%
%ADD12C,0.635000*%
%ADD13C,0.150000*%
%ADD14C,0.152400*%
%ADD15C,0.508000*%
%ADD16C,0.120000*%
%ADD17C,2.000000*%
%ADD18RoundRect,0.250000X-0.400000X-0.625000X0.400000X-0.625000X0.400000X0.625000X-0.400000X0.625000X0*%
G04 APERTURE END LIST*
D10*
G36*
X159423634Y-105412836D02*
G01*
X159460453Y-105419273D01*
X159488960Y-105437822D01*
X159507788Y-105465822D01*
X159514225Y-105501054D01*
X159514225Y-105815748D01*
X159507762Y-105850846D01*
X159488960Y-105878212D01*
X159460516Y-105896167D01*
X159423634Y-105902430D01*
X158380936Y-105902430D01*
X158344065Y-105896165D01*
X158315680Y-105878212D01*
X158296823Y-105850840D01*
X158290345Y-105815748D01*
X158290345Y-105501054D01*
X158296798Y-105465828D01*
X158315680Y-105437822D01*
X158344128Y-105419275D01*
X158380936Y-105412836D01*
X158661082Y-105412836D01*
X158661082Y-105522131D01*
X158388613Y-105522131D01*
X158388613Y-105793833D01*
X159415957Y-105793833D01*
X159415957Y-105522131D01*
X159121154Y-105522131D01*
X159121154Y-105412836D01*
X159423634Y-105412836D01*
G37*
G36*
X158754883Y-104808085D02*
G01*
X159509758Y-104990801D01*
X159804561Y-105066526D01*
X159804561Y-105168772D01*
X159509758Y-105092280D01*
X158754883Y-105279672D01*
X158754883Y-105172680D01*
X159357890Y-105043076D01*
X158754883Y-104911936D01*
X158754883Y-104808085D01*
G37*
G36*
X159394530Y-104249826D02*
G01*
X159433427Y-104265144D01*
X159467184Y-104290574D01*
X159493246Y-104323766D01*
X159508837Y-104361787D01*
X159514225Y-104406151D01*
X159514225Y-104680993D01*
X158290345Y-104680993D01*
X158290345Y-104577142D01*
X158777217Y-104577142D01*
X158760955Y-104453749D01*
X158751893Y-104348363D01*
X158848684Y-104348363D01*
X158853151Y-104577142D01*
X159424890Y-104577142D01*
X159424890Y-104433439D01*
X159418981Y-104394983D01*
X159403202Y-104369835D01*
X159377341Y-104354256D01*
X159337301Y-104348363D01*
X158848684Y-104348363D01*
X158751893Y-104348363D01*
X158750417Y-104331194D01*
X158756275Y-104291628D01*
X158771781Y-104266032D01*
X158796863Y-104250381D01*
X158835284Y-104244511D01*
X159348956Y-104244511D01*
X159394530Y-104249826D01*
G37*
G36*
X159152421Y-103684986D02*
G01*
X159152421Y-103973857D01*
X159429357Y-103973857D01*
X159429357Y-103750591D01*
X159286422Y-103750591D01*
X159286422Y-103649880D01*
X159425169Y-103649880D01*
X159465794Y-103655909D01*
X159492093Y-103671873D01*
X159508186Y-103697717D01*
X159514225Y-103737330D01*
X159514225Y-103987187D01*
X159508130Y-104026668D01*
X159491838Y-104052520D01*
X159465095Y-104068561D01*
X159423634Y-104074637D01*
X158845474Y-104074637D01*
X158804013Y-104068561D01*
X158777269Y-104052520D01*
X158760978Y-104026668D01*
X158754883Y-103987187D01*
X158754883Y-103973857D01*
X158839751Y-103973857D01*
X159067553Y-103973857D01*
X159067553Y-103750591D01*
X158839751Y-103750591D01*
X158839751Y-103973857D01*
X158754883Y-103973857D01*
X158754883Y-103737330D01*
X158760978Y-103697849D01*
X158777269Y-103671997D01*
X158804013Y-103655956D01*
X158845474Y-103649880D01*
X159115710Y-103649880D01*
X159152421Y-103684986D01*
G37*
G36*
X159005019Y-103080863D02*
G01*
X159005019Y-103183178D01*
X158848684Y-103183178D01*
X158854826Y-103374479D01*
X159514225Y-103374479D01*
X159514225Y-103478331D01*
X158754883Y-103478331D01*
X158754883Y-103374479D01*
X158778892Y-103374479D01*
X158760746Y-103270628D01*
X158750417Y-103166777D01*
X158756461Y-103128124D01*
X158772672Y-103102717D01*
X158799405Y-103086879D01*
X158841007Y-103080863D01*
X159005019Y-103080863D01*
G37*
G36*
X158973332Y-102146051D02*
G01*
X159001879Y-102164349D01*
X159020855Y-102192020D01*
X159027353Y-102227162D01*
X159027353Y-102515265D01*
X159514225Y-102515265D01*
X159514225Y-102623862D01*
X158290345Y-102623862D01*
X158290345Y-102515265D01*
X158388613Y-102515265D01*
X158929085Y-102515265D01*
X158929085Y-102248240D01*
X158388613Y-102248240D01*
X158388613Y-102515265D01*
X158290345Y-102515265D01*
X158290345Y-102227162D01*
X158296812Y-102192009D01*
X158315680Y-102164349D01*
X158344100Y-102146072D01*
X158380936Y-102139712D01*
X158936762Y-102139712D01*
X158973332Y-102146051D01*
G37*
G36*
X159465026Y-101550488D02*
G01*
X159491774Y-101566630D01*
X159508106Y-101592705D01*
X159514225Y-101632601D01*
X159514225Y-101893415D01*
X159508130Y-101932896D01*
X159491838Y-101958749D01*
X159465095Y-101974790D01*
X159423634Y-101980865D01*
X158845474Y-101980865D01*
X158804013Y-101974790D01*
X158777269Y-101958749D01*
X158760978Y-101932896D01*
X158754883Y-101893415D01*
X158754883Y-101877014D01*
X158844218Y-101877014D01*
X159424890Y-101877014D01*
X159424890Y-101648234D01*
X158844218Y-101648234D01*
X158844218Y-101877014D01*
X158754883Y-101877014D01*
X158754883Y-101632601D01*
X158761002Y-101592705D01*
X158777334Y-101566630D01*
X158804082Y-101550488D01*
X158845474Y-101544383D01*
X159423634Y-101544383D01*
X159465026Y-101550488D01*
G37*
G36*
X159005019Y-100977041D02*
G01*
X159005019Y-101079357D01*
X158848684Y-101079357D01*
X158854826Y-101270658D01*
X159514225Y-101270658D01*
X159514225Y-101374509D01*
X158754883Y-101374509D01*
X158754883Y-101270658D01*
X158778892Y-101270658D01*
X158760746Y-101166806D01*
X158750417Y-101062955D01*
X158756461Y-101024302D01*
X158772672Y-100998895D01*
X158799405Y-100983057D01*
X158841007Y-100977041D01*
X159005019Y-100977041D01*
G37*
G36*
X159394530Y-100414036D02*
G01*
X159433427Y-100429354D01*
X159467184Y-100454784D01*
X159493246Y-100487976D01*
X159508837Y-100525997D01*
X159514225Y-100570361D01*
X159514225Y-100741352D01*
X159804561Y-100741352D01*
X159804561Y-100845203D01*
X158754883Y-100845203D01*
X158754883Y-100741352D01*
X158778892Y-100741352D01*
X158761653Y-100617959D01*
X158751991Y-100512573D01*
X158848684Y-100512573D01*
X158854826Y-100741352D01*
X159424890Y-100741352D01*
X159424890Y-100597649D01*
X159418981Y-100559193D01*
X159403202Y-100534045D01*
X159377341Y-100518467D01*
X159337301Y-100512573D01*
X158848684Y-100512573D01*
X158751991Y-100512573D01*
X158750417Y-100495404D01*
X158756486Y-100456337D01*
X158772738Y-100430707D01*
X158799476Y-100414767D01*
X158841007Y-100408721D01*
X159348956Y-100408721D01*
X159394530Y-100414036D01*
G37*
G36*
X159465026Y-99811820D02*
G01*
X159491774Y-99827962D01*
X159508106Y-99854037D01*
X159514225Y-99893933D01*
X159514225Y-100154747D01*
X159508130Y-100194228D01*
X159491838Y-100220080D01*
X159465095Y-100236122D01*
X159423634Y-100242197D01*
X158845474Y-100242197D01*
X158804013Y-100236122D01*
X158777269Y-100220080D01*
X158760978Y-100194228D01*
X158754883Y-100154747D01*
X158754883Y-100138346D01*
X158844218Y-100138346D01*
X159424890Y-100138346D01*
X159424890Y-99909566D01*
X158844218Y-99909566D01*
X158844218Y-100138346D01*
X158754883Y-100138346D01*
X158754883Y-99893933D01*
X158761002Y-99854037D01*
X158777334Y-99827962D01*
X158804082Y-99811820D01*
X158845474Y-99805715D01*
X159423634Y-99805715D01*
X159465026Y-99811820D01*
G37*
G36*
X158589615Y-99525708D02*
G01*
X158589615Y-99631095D01*
X158455613Y-99631095D01*
X158455613Y-99525708D01*
X158589615Y-99525708D01*
G37*
G36*
X159514225Y-99527244D02*
G01*
X159514225Y-99629559D01*
X158754883Y-99629559D01*
X158754883Y-99527244D01*
X159514225Y-99527244D01*
G37*
G36*
X159423634Y-98941895D02*
G01*
X159465026Y-98947999D01*
X159491774Y-98964142D01*
X159508106Y-98990216D01*
X159514225Y-99030112D01*
X159514225Y-99268314D01*
X159508106Y-99308210D01*
X159491774Y-99334284D01*
X159465026Y-99350427D01*
X159423634Y-99356531D01*
X159255155Y-99356531D01*
X159255155Y-99254216D01*
X159424890Y-99254216D01*
X159424890Y-99044210D01*
X159272952Y-99044210D01*
X159050803Y-99315912D01*
X159027688Y-99337720D01*
X159001019Y-99350526D01*
X158969565Y-99354926D01*
X158845474Y-99354926D01*
X158804082Y-99348822D01*
X158777334Y-99332679D01*
X158761002Y-99306604D01*
X158754883Y-99266709D01*
X158754883Y-99031718D01*
X158761002Y-98991822D01*
X158777334Y-98965747D01*
X158804082Y-98949604D01*
X158845474Y-98943500D01*
X158991619Y-98943500D01*
X158991619Y-99044210D01*
X158844218Y-99044210D01*
X158844218Y-99254216D01*
X158977381Y-99254216D01*
X159199531Y-98980141D01*
X159222141Y-98958968D01*
X159249252Y-98946314D01*
X159282304Y-98941895D01*
X159423634Y-98941895D01*
G37*
G36*
X159152421Y-98387464D02*
G01*
X159152421Y-98676335D01*
X159429357Y-98676335D01*
X159429357Y-98453069D01*
X159286422Y-98453069D01*
X159286422Y-98352358D01*
X159425169Y-98352358D01*
X159465794Y-98358387D01*
X159492093Y-98374352D01*
X159508186Y-98400195D01*
X159514225Y-98439808D01*
X159514225Y-98689665D01*
X159508130Y-98729146D01*
X159491838Y-98754998D01*
X159465095Y-98771040D01*
X159423634Y-98777115D01*
X158845474Y-98777115D01*
X158804013Y-98771040D01*
X158777269Y-98754998D01*
X158760978Y-98729146D01*
X158754883Y-98689665D01*
X158754883Y-98676335D01*
X158839751Y-98676335D01*
X159067553Y-98676335D01*
X159067553Y-98453069D01*
X158839751Y-98453069D01*
X158839751Y-98676335D01*
X158754883Y-98676335D01*
X158754883Y-98439808D01*
X158760978Y-98400327D01*
X158777269Y-98374475D01*
X158804013Y-98358434D01*
X158845474Y-98352358D01*
X159115710Y-98352358D01*
X159152421Y-98387464D01*
G37*
G36*
X159423634Y-97771616D02*
G01*
X159465026Y-97777720D01*
X159491774Y-97793863D01*
X159508106Y-97819938D01*
X159514225Y-97859833D01*
X159514225Y-98098035D01*
X159508106Y-98137931D01*
X159491774Y-98164006D01*
X159465026Y-98180148D01*
X159423634Y-98186252D01*
X159255155Y-98186252D01*
X159255155Y-98083937D01*
X159424890Y-98083937D01*
X159424890Y-97873932D01*
X159272952Y-97873932D01*
X159050803Y-98145633D01*
X159027688Y-98167441D01*
X159001019Y-98180247D01*
X158969565Y-98184647D01*
X158845474Y-98184647D01*
X158804082Y-98178543D01*
X158777334Y-98162400D01*
X158761002Y-98136326D01*
X158754883Y-98096430D01*
X158754883Y-97861439D01*
X158761002Y-97821543D01*
X158777334Y-97795468D01*
X158804082Y-97779326D01*
X158845474Y-97773221D01*
X158991619Y-97773221D01*
X158991619Y-97873932D01*
X158844218Y-97873932D01*
X158844218Y-98083937D01*
X158977381Y-98083937D01*
X159199531Y-97809862D01*
X159222141Y-97788689D01*
X159249252Y-97776035D01*
X159282304Y-97771616D01*
X159423634Y-97771616D01*
G37*
G36*
X158379679Y-97006831D02*
G01*
X158379679Y-97153604D01*
X158754883Y-97153604D01*
X158754883Y-97024000D01*
X158844218Y-97024000D01*
X158844218Y-97153604D01*
X159514225Y-97153604D01*
X159514225Y-97255850D01*
X158844218Y-97255850D01*
X158844218Y-97344137D01*
X158754883Y-97344137D01*
X158754883Y-97255850D01*
X158380936Y-97255850D01*
X158339474Y-97249775D01*
X158312731Y-97233734D01*
X158296440Y-97207881D01*
X158290345Y-97168400D01*
X158290345Y-97006831D01*
X158379679Y-97006831D01*
G37*
G36*
X159005019Y-96517028D02*
G01*
X159005019Y-96619343D01*
X158848684Y-96619343D01*
X158854826Y-96810644D01*
X159514225Y-96810644D01*
X159514225Y-96914495D01*
X158754883Y-96914495D01*
X158754883Y-96810644D01*
X158778892Y-96810644D01*
X158760746Y-96706793D01*
X158750417Y-96602942D01*
X158756461Y-96564289D01*
X158772672Y-96538882D01*
X158799405Y-96523044D01*
X158841007Y-96517028D01*
X159005019Y-96517028D01*
G37*
G36*
X159465026Y-95954813D02*
G01*
X159491774Y-95970955D01*
X159508106Y-95997030D01*
X159514225Y-96036926D01*
X159514225Y-96297740D01*
X159508130Y-96337221D01*
X159491838Y-96363074D01*
X159465095Y-96379115D01*
X159423634Y-96385190D01*
X158845474Y-96385190D01*
X158804013Y-96379115D01*
X158777269Y-96363074D01*
X158760978Y-96337221D01*
X158754883Y-96297740D01*
X158754883Y-96281339D01*
X158844218Y-96281339D01*
X159424890Y-96281339D01*
X159424890Y-96052559D01*
X158844218Y-96052559D01*
X158844218Y-96281339D01*
X158754883Y-96281339D01*
X158754883Y-96036926D01*
X158761002Y-95997030D01*
X158777334Y-95970955D01*
X158804082Y-95954813D01*
X158845474Y-95948708D01*
X159423634Y-95948708D01*
X159465026Y-95954813D01*
G37*
G36*
X159514225Y-95015165D02*
G01*
X159514225Y-95119016D01*
X158847219Y-95119016D01*
X158856501Y-95345423D01*
X159514225Y-95345423D01*
X159514225Y-95448506D01*
X158847219Y-95448506D01*
X158856501Y-95674983D01*
X159514225Y-95674983D01*
X159514225Y-95778834D01*
X158754883Y-95778834D01*
X158754883Y-95674983D01*
X158780567Y-95674983D01*
X158761374Y-95553195D01*
X158752860Y-95482056D01*
X158750417Y-95430570D01*
X158754408Y-95400535D01*
X158765501Y-95377705D01*
X158783638Y-95360289D01*
X158762979Y-95229916D01*
X158750417Y-95101080D01*
X158756461Y-95062426D01*
X158772672Y-95037019D01*
X158799405Y-95021182D01*
X158841007Y-95015165D01*
X159514225Y-95015165D01*
G37*
G36*
X161434465Y-105641616D02*
G01*
X161434465Y-105789157D01*
X161428370Y-105828638D01*
X161412078Y-105854490D01*
X161385335Y-105870531D01*
X161343874Y-105876607D01*
X160764458Y-105876607D01*
X160764458Y-105967965D01*
X160675123Y-105967965D01*
X160675123Y-105876607D01*
X160438387Y-105876607D01*
X160438387Y-105774361D01*
X160675123Y-105774361D01*
X160675123Y-105641616D01*
X160764458Y-105641616D01*
X160764458Y-105774361D01*
X161345130Y-105774361D01*
X161345130Y-105641616D01*
X161434465Y-105641616D01*
G37*
G36*
X161434465Y-105073087D02*
G01*
X161434465Y-105176938D01*
X160768924Y-105176938D01*
X160775066Y-105405717D01*
X161434465Y-105405717D01*
X161434465Y-105509568D01*
X160210585Y-105509568D01*
X160210585Y-105405717D01*
X160699132Y-105405717D01*
X160681893Y-105282324D01*
X160670657Y-105159769D01*
X160676726Y-105120702D01*
X160692978Y-105095072D01*
X160719716Y-105079133D01*
X160761247Y-105073087D01*
X161434465Y-105073087D01*
G37*
G36*
X161072661Y-104515794D02*
G01*
X161072661Y-104804665D01*
X161349597Y-104804665D01*
X161349597Y-104581399D01*
X161206662Y-104581399D01*
X161206662Y-104480689D01*
X161345409Y-104480689D01*
X161386034Y-104486717D01*
X161412333Y-104502682D01*
X161428426Y-104528526D01*
X161434465Y-104568139D01*
X161434465Y-104817996D01*
X161428370Y-104857477D01*
X161412078Y-104883329D01*
X161385335Y-104899370D01*
X161343874Y-104905445D01*
X160765714Y-104905445D01*
X160724253Y-104899370D01*
X160697509Y-104883329D01*
X160681218Y-104857477D01*
X160675123Y-104817996D01*
X160675123Y-104804665D01*
X160759991Y-104804665D01*
X160987793Y-104804665D01*
X160987793Y-104581399D01*
X160759991Y-104581399D01*
X160759991Y-104804665D01*
X160675123Y-104804665D01*
X160675123Y-104568139D01*
X160681218Y-104528658D01*
X160697509Y-104502805D01*
X160724253Y-104486764D01*
X160765714Y-104480689D01*
X161035950Y-104480689D01*
X161072661Y-104515794D01*
G37*
G36*
X161343874Y-103477214D02*
G01*
X161380722Y-103483571D01*
X161409200Y-103501851D01*
X161428014Y-103529504D01*
X161434465Y-103564664D01*
X161434465Y-103897294D01*
X161428002Y-103932393D01*
X161409200Y-103959758D01*
X161380756Y-103977714D01*
X161343874Y-103983976D01*
X160210585Y-103983976D01*
X160210585Y-103875379D01*
X161336197Y-103875379D01*
X161336197Y-103585741D01*
X160210585Y-103585741D01*
X160210585Y-103477214D01*
X161343874Y-103477214D01*
G37*
G36*
X161314770Y-102862911D02*
G01*
X161353667Y-102878229D01*
X161387424Y-102903660D01*
X161413486Y-102936851D01*
X161429077Y-102974873D01*
X161434465Y-103019236D01*
X161434465Y-103190228D01*
X161724801Y-103190228D01*
X161724801Y-103294079D01*
X160675123Y-103294079D01*
X160675123Y-103190228D01*
X160699132Y-103190228D01*
X160681893Y-103066835D01*
X160672231Y-102961448D01*
X160768924Y-102961448D01*
X160775066Y-103190228D01*
X161345130Y-103190228D01*
X161345130Y-103046525D01*
X161339221Y-103008069D01*
X161323442Y-102982921D01*
X161297581Y-102967342D01*
X161257541Y-102961448D01*
X160768924Y-102961448D01*
X160672231Y-102961448D01*
X160670657Y-102944279D01*
X160676726Y-102905212D01*
X160692978Y-102879582D01*
X160719716Y-102863643D01*
X160761247Y-102857597D01*
X161269196Y-102857597D01*
X161314770Y-102862911D01*
G37*
G36*
X161314770Y-102259905D02*
G01*
X161353667Y-102275223D01*
X161387424Y-102300654D01*
X161413486Y-102333845D01*
X161429077Y-102371866D01*
X161434465Y-102416230D01*
X161434465Y-102587221D01*
X161724801Y-102587221D01*
X161724801Y-102691072D01*
X160675123Y-102691072D01*
X160675123Y-102587221D01*
X160699132Y-102587221D01*
X160681893Y-102463828D01*
X160672231Y-102358442D01*
X160768924Y-102358442D01*
X160775066Y-102587221D01*
X161345130Y-102587221D01*
X161345130Y-102443519D01*
X161339221Y-102405062D01*
X161323442Y-102379915D01*
X161297581Y-102364336D01*
X161257541Y-102358442D01*
X160768924Y-102358442D01*
X160672231Y-102358442D01*
X160670657Y-102341273D01*
X160676726Y-102302206D01*
X160692978Y-102276576D01*
X160719716Y-102260637D01*
X160761247Y-102254591D01*
X161269196Y-102254591D01*
X161314770Y-102259905D01*
G37*
G36*
X161072661Y-101698415D02*
G01*
X161072661Y-101987286D01*
X161349597Y-101987286D01*
X161349597Y-101764020D01*
X161206662Y-101764020D01*
X161206662Y-101663310D01*
X161345409Y-101663310D01*
X161386034Y-101669338D01*
X161412333Y-101685303D01*
X161428426Y-101711146D01*
X161434465Y-101750759D01*
X161434465Y-102000616D01*
X161428370Y-102040097D01*
X161412078Y-102065950D01*
X161385335Y-102081991D01*
X161343874Y-102088066D01*
X160765714Y-102088066D01*
X160724253Y-102081991D01*
X160697509Y-102065950D01*
X160681218Y-102040097D01*
X160675123Y-102000616D01*
X160675123Y-101987286D01*
X160759991Y-101987286D01*
X160987793Y-101987286D01*
X160987793Y-101764020D01*
X160759991Y-101764020D01*
X160759991Y-101987286D01*
X160675123Y-101987286D01*
X160675123Y-101750759D01*
X160681218Y-101711278D01*
X160697509Y-101685426D01*
X160724253Y-101669385D01*
X160765714Y-101663310D01*
X161035950Y-101663310D01*
X161072661Y-101698415D01*
G37*
G36*
X160925259Y-101094292D02*
G01*
X160925259Y-101196608D01*
X160768924Y-101196608D01*
X160775066Y-101387909D01*
X161434465Y-101387909D01*
X161434465Y-101491760D01*
X160675123Y-101491760D01*
X160675123Y-101387909D01*
X160699132Y-101387909D01*
X160680986Y-101284058D01*
X160670657Y-101180207D01*
X160676701Y-101141553D01*
X160692912Y-101116146D01*
X160719645Y-101100309D01*
X160761247Y-101094292D01*
X160925259Y-101094292D01*
G37*
G36*
X161434465Y-100252317D02*
G01*
X161166462Y-100295239D01*
X161166462Y-100538117D01*
X161434465Y-100581039D01*
X161434465Y-100685658D01*
X161431324Y-100685658D01*
X160210585Y-100467836D01*
X160210585Y-100416259D01*
X160405864Y-100416259D01*
X161068194Y-100524019D01*
X161068194Y-100309337D01*
X160405864Y-100416259D01*
X160210585Y-100416259D01*
X160210585Y-100360844D01*
X161434465Y-100144557D01*
X161434465Y-100252317D01*
G37*
G36*
X161434465Y-99736621D02*
G01*
X161434465Y-99884162D01*
X161428370Y-99923643D01*
X161412078Y-99949495D01*
X161385335Y-99965536D01*
X161343874Y-99971612D01*
X160764458Y-99971612D01*
X160764458Y-100062970D01*
X160675123Y-100062970D01*
X160675123Y-99971612D01*
X160438387Y-99971612D01*
X160438387Y-99869366D01*
X160675123Y-99869366D01*
X160675123Y-99736621D01*
X160764458Y-99736621D01*
X160764458Y-99869366D01*
X161345130Y-99869366D01*
X161345130Y-99736621D01*
X161434465Y-99736621D01*
G37*
G36*
X161434465Y-98840905D02*
G01*
X161434465Y-98944756D01*
X160767459Y-98944756D01*
X160776741Y-99171163D01*
X161434465Y-99171163D01*
X161434465Y-99274246D01*
X160767459Y-99274246D01*
X160776741Y-99500722D01*
X161434465Y-99500722D01*
X161434465Y-99604574D01*
X160675123Y-99604574D01*
X160675123Y-99500722D01*
X160700807Y-99500722D01*
X160681614Y-99378935D01*
X160673100Y-99307796D01*
X160670657Y-99256309D01*
X160674648Y-99226275D01*
X160685741Y-99203445D01*
X160703878Y-99186029D01*
X160683219Y-99055656D01*
X160670657Y-98926820D01*
X160676701Y-98888166D01*
X160692912Y-98862759D01*
X160719645Y-98846922D01*
X160761247Y-98840905D01*
X161434465Y-98840905D01*
G37*
G36*
X161385266Y-98241770D02*
G01*
X161412014Y-98257912D01*
X161428346Y-98283987D01*
X161434465Y-98323883D01*
X161434465Y-98584697D01*
X161428370Y-98624178D01*
X161412078Y-98650031D01*
X161385335Y-98666072D01*
X161343874Y-98672147D01*
X160765714Y-98672147D01*
X160724253Y-98666072D01*
X160697509Y-98650031D01*
X160681218Y-98624178D01*
X160675123Y-98584697D01*
X160675123Y-98568296D01*
X160764458Y-98568296D01*
X161345130Y-98568296D01*
X161345130Y-98339517D01*
X160764458Y-98339517D01*
X160764458Y-98568296D01*
X160675123Y-98568296D01*
X160675123Y-98323883D01*
X160681242Y-98283987D01*
X160697574Y-98257912D01*
X160724322Y-98241770D01*
X160765714Y-98235666D01*
X161343874Y-98235666D01*
X161385266Y-98241770D01*
G37*
G36*
X161343874Y-97656598D02*
G01*
X161385266Y-97662702D01*
X161412014Y-97678845D01*
X161428346Y-97704920D01*
X161434465Y-97744816D01*
X161434465Y-97983017D01*
X161428346Y-98022913D01*
X161412014Y-98048988D01*
X161385266Y-98065130D01*
X161343874Y-98071235D01*
X161175395Y-98071235D01*
X161175395Y-97968919D01*
X161345130Y-97968919D01*
X161345130Y-97758914D01*
X161193192Y-97758914D01*
X160971043Y-98030615D01*
X160947928Y-98052423D01*
X160921259Y-98065229D01*
X160889805Y-98069629D01*
X160765714Y-98069629D01*
X160724322Y-98063525D01*
X160697574Y-98047382D01*
X160681242Y-98021308D01*
X160675123Y-97981412D01*
X160675123Y-97746421D01*
X160681242Y-97706525D01*
X160697574Y-97680450D01*
X160724322Y-97664308D01*
X160765714Y-97658203D01*
X160911859Y-97658203D01*
X160911859Y-97758914D01*
X160764458Y-97758914D01*
X160764458Y-97968919D01*
X160897621Y-97968919D01*
X161119771Y-97694844D01*
X161142381Y-97673671D01*
X161169492Y-97661017D01*
X161202544Y-97656598D01*
X161343874Y-97656598D01*
G37*
G36*
X161314770Y-97060651D02*
G01*
X161353667Y-97075969D01*
X161387424Y-97101400D01*
X161413486Y-97134591D01*
X161429077Y-97172612D01*
X161434465Y-97216976D01*
X161434465Y-97387967D01*
X161724801Y-97387967D01*
X161724801Y-97491818D01*
X160675123Y-97491818D01*
X160675123Y-97387967D01*
X160699132Y-97387967D01*
X160681893Y-97264574D01*
X160672231Y-97159188D01*
X160768924Y-97159188D01*
X160775066Y-97387967D01*
X161345130Y-97387967D01*
X161345130Y-97244265D01*
X161339221Y-97205808D01*
X161323442Y-97180661D01*
X161297581Y-97165082D01*
X161257541Y-97159188D01*
X160768924Y-97159188D01*
X160672231Y-97159188D01*
X160670657Y-97142019D01*
X160676726Y-97102952D01*
X160692978Y-97077322D01*
X160719716Y-97061382D01*
X160761247Y-97055337D01*
X161269196Y-97055337D01*
X161314770Y-97060651D01*
G37*
G36*
X161434465Y-96452330D02*
G01*
X161434465Y-96556181D01*
X160768924Y-96556181D01*
X160775066Y-96784961D01*
X161434465Y-96784961D01*
X161434465Y-96888812D01*
X160210585Y-96888812D01*
X160210585Y-96784961D01*
X160699132Y-96784961D01*
X160681893Y-96661568D01*
X160670657Y-96539012D01*
X160676726Y-96499945D01*
X160692978Y-96474316D01*
X160719716Y-96458376D01*
X160761247Y-96452330D01*
X161434465Y-96452330D01*
G37*
G36*
X161072661Y-95895038D02*
G01*
X161072661Y-96183909D01*
X161349597Y-96183909D01*
X161349597Y-95960643D01*
X161206662Y-95960643D01*
X161206662Y-95859932D01*
X161345409Y-95859932D01*
X161386034Y-95865961D01*
X161412333Y-95881926D01*
X161428426Y-95907769D01*
X161434465Y-95947382D01*
X161434465Y-96197239D01*
X161428370Y-96236720D01*
X161412078Y-96262573D01*
X161385335Y-96278614D01*
X161343874Y-96284689D01*
X160765714Y-96284689D01*
X160724253Y-96278614D01*
X160697509Y-96262573D01*
X160681218Y-96236720D01*
X160675123Y-96197239D01*
X160675123Y-96183909D01*
X160759991Y-96183909D01*
X160987793Y-96183909D01*
X160987793Y-95960643D01*
X160759991Y-95960643D01*
X160759991Y-96183909D01*
X160675123Y-96183909D01*
X160675123Y-95947382D01*
X160681218Y-95907901D01*
X160697509Y-95882049D01*
X160724253Y-95866008D01*
X160765714Y-95859932D01*
X161035950Y-95859932D01*
X161072661Y-95895038D01*
G37*
G36*
X160925259Y-95290915D02*
G01*
X160925259Y-95393231D01*
X160768924Y-95393231D01*
X160775066Y-95584532D01*
X161434465Y-95584532D01*
X161434465Y-95688383D01*
X160675123Y-95688383D01*
X160675123Y-95584532D01*
X160699132Y-95584532D01*
X160680986Y-95480681D01*
X160670657Y-95376829D01*
X160676701Y-95338176D01*
X160692912Y-95312769D01*
X160719645Y-95296931D01*
X160761247Y-95290915D01*
X160925259Y-95290915D01*
G37*
G36*
X161072661Y-94769426D02*
G01*
X161072661Y-95058297D01*
X161349597Y-95058297D01*
X161349597Y-94835031D01*
X161206662Y-94835031D01*
X161206662Y-94734321D01*
X161345409Y-94734321D01*
X161386034Y-94740349D01*
X161412333Y-94756314D01*
X161428426Y-94782158D01*
X161434465Y-94821771D01*
X161434465Y-95071627D01*
X161428370Y-95111109D01*
X161412078Y-95136961D01*
X161385335Y-95153002D01*
X161343874Y-95159077D01*
X160765714Y-95159077D01*
X160724253Y-95153002D01*
X160697509Y-95136961D01*
X160681218Y-95111109D01*
X160675123Y-95071627D01*
X160675123Y-95058297D01*
X160759991Y-95058297D01*
X160987793Y-95058297D01*
X160987793Y-94835031D01*
X160759991Y-94835031D01*
X160759991Y-95058297D01*
X160675123Y-95058297D01*
X160675123Y-94821771D01*
X160681218Y-94782289D01*
X160697509Y-94756437D01*
X160724253Y-94740396D01*
X160765714Y-94734321D01*
X161035950Y-94734321D01*
X161072661Y-94769426D01*
G37*
D11*
G36*
X161434326Y-110540966D02*
G01*
X161498031Y-110583806D01*
X161538522Y-110655869D01*
X161554100Y-110769792D01*
X161554100Y-111586984D01*
X161538470Y-111701935D01*
X161497894Y-111774535D01*
X161434180Y-111817608D01*
X161338984Y-111833428D01*
X160730239Y-111833428D01*
X160730239Y-111434371D01*
X161206688Y-111434371D01*
X161206688Y-110927678D01*
X160392754Y-110927678D01*
X160392754Y-111602648D01*
X160377273Y-111714689D01*
X160336938Y-111785768D01*
X160273250Y-111828180D01*
X160177638Y-111843820D01*
X159049483Y-111843820D01*
X158953872Y-111828180D01*
X158890183Y-111785768D01*
X158849849Y-111714689D01*
X158834367Y-111602648D01*
X158834367Y-111446468D01*
X159181778Y-111446468D01*
X160045343Y-111446468D01*
X160045343Y-110927678D01*
X159181778Y-110927678D01*
X159181778Y-111446468D01*
X158834367Y-111446468D01*
X158834367Y-110773204D01*
X158850040Y-110657395D01*
X158890686Y-110584348D01*
X158954407Y-110541081D01*
X159049483Y-110525209D01*
X161338984Y-110525209D01*
X161434326Y-110540966D01*
G37*
G36*
X159609063Y-108923861D02*
G01*
X159692691Y-108932642D01*
X159786701Y-108960871D01*
X159893661Y-109012420D01*
X161196762Y-109758423D01*
X161196762Y-108927273D01*
X161554100Y-108927273D01*
X161554100Y-110244178D01*
X161300986Y-110244178D01*
X159683818Y-109324624D01*
X159181778Y-109324624D01*
X159181778Y-109819065D01*
X159688006Y-109819065D01*
X159688006Y-110216416D01*
X159049483Y-110216416D01*
X158954419Y-110200538D01*
X158890697Y-110157253D01*
X158850044Y-110084161D01*
X158834367Y-109968265D01*
X158834367Y-109171857D01*
X158850040Y-109056047D01*
X158890686Y-108983000D01*
X158954407Y-108939734D01*
X159049483Y-108923861D01*
X159609063Y-108923861D01*
G37*
G36*
X159094616Y-107349345D02*
G01*
X161554100Y-107975615D01*
X161554100Y-108392043D01*
X159181778Y-107782988D01*
X159181778Y-108301933D01*
X159578820Y-108301933D01*
X159578820Y-108694011D01*
X158834367Y-108694011D01*
X158834367Y-107349345D01*
X159094616Y-107349345D01*
G37*
G36*
X161554100Y-106611096D02*
G01*
X161554100Y-107010154D01*
X159628450Y-107010154D01*
X159628450Y-107166333D01*
X159573857Y-107166333D01*
X158834367Y-106956491D01*
X158834367Y-106611096D01*
X161554100Y-106611096D01*
G37*
D12*
G36*
X137161015Y-101792089D02*
G01*
X137063932Y-101757440D01*
X136999369Y-101704318D01*
X136960124Y-101631413D01*
X136945900Y-101531841D01*
X136945900Y-100858112D01*
X136961055Y-100760434D01*
X136999616Y-100705084D01*
X137061844Y-100678671D01*
X137161015Y-100683786D01*
X138487691Y-100959699D01*
X138584495Y-100994420D01*
X138649081Y-101048012D01*
X138688485Y-101121954D01*
X138702807Y-101223359D01*
X138702807Y-101897088D01*
X138687766Y-101992901D01*
X138649391Y-102047317D01*
X138587178Y-102073309D01*
X138487691Y-102068002D01*
X138067541Y-101980684D01*
X138067541Y-101602254D01*
X138375248Y-101666153D01*
X138375248Y-101318277D01*
X137273458Y-101089202D01*
X137273458Y-101437079D01*
X137601017Y-101505165D01*
X137601017Y-101883595D01*
X137161015Y-101792089D01*
G37*
G36*
X137151089Y-102092042D02*
G01*
X137792869Y-102225423D01*
X137889685Y-102260210D01*
X137954273Y-102313831D01*
X137993669Y-102387757D01*
X138007985Y-102489083D01*
X138007985Y-103013611D01*
X138405026Y-103096121D01*
X138405026Y-102724361D01*
X138166801Y-102674886D01*
X138166801Y-102323597D01*
X138487691Y-102390288D01*
X138584508Y-102425006D01*
X138649092Y-102478577D01*
X138688489Y-102552471D01*
X138702807Y-102653793D01*
X138702807Y-103310772D01*
X138687771Y-103406500D01*
X138649404Y-103460874D01*
X138587193Y-103486846D01*
X138487691Y-103481531D01*
X136945900Y-103160951D01*
X136945900Y-102789190D01*
X137005456Y-102801598D01*
X136962650Y-102527856D01*
X136958181Y-102482879D01*
X137243680Y-102482879D01*
X137258569Y-102857742D01*
X137739982Y-102957777D01*
X137739982Y-102586017D01*
X137243680Y-102482879D01*
X136958181Y-102482879D01*
X136935973Y-102259388D01*
X136950893Y-102165521D01*
X136989071Y-102112079D01*
X137051266Y-102086531D01*
X137151089Y-102092042D01*
G37*
G36*
X136945900Y-104614494D02*
G01*
X136945900Y-104224122D01*
X138375248Y-104521282D01*
X138360359Y-104153244D01*
X136945900Y-103859185D01*
X136945900Y-103470519D01*
X138702807Y-103835766D01*
X138702807Y-104224432D01*
X138638287Y-104211094D01*
X138683730Y-104490418D01*
X138706357Y-104654916D01*
X138712733Y-104769588D01*
X138697808Y-104863540D01*
X138659621Y-104917024D01*
X138597425Y-104942591D01*
X138497617Y-104937090D01*
X136945900Y-104614494D01*
G37*
G36*
X136945900Y-106046479D02*
G01*
X136945900Y-104945155D01*
X139665632Y-105510628D01*
X139665632Y-106601871D01*
X139308294Y-106527581D01*
X139308294Y-105833534D01*
X138514212Y-105668359D01*
X138514212Y-106265782D01*
X138166801Y-106193663D01*
X138166801Y-105596240D01*
X137303237Y-105416641D01*
X137303237Y-106120769D01*
X136945900Y-106046479D01*
G37*
G36*
X136945900Y-107695440D02*
G01*
X136945900Y-107347564D01*
X138657674Y-107067154D01*
X138461325Y-107051489D01*
X136945900Y-106736493D01*
X136945900Y-106349688D01*
X139665632Y-106915161D01*
X139665632Y-107263038D01*
X137988598Y-107550737D01*
X138107020Y-107555481D01*
X138184947Y-107566247D01*
X139665632Y-107874109D01*
X139665632Y-108260914D01*
X136945900Y-107695440D01*
G37*
G36*
X139665632Y-108617475D02*
G01*
X139665632Y-109426912D01*
X139648410Y-109577828D01*
X139601514Y-109690066D01*
X139527443Y-109773237D01*
X139429786Y-109827091D01*
X139306975Y-109849034D01*
X139149478Y-109833879D01*
X137462053Y-109483056D01*
X137309048Y-109434933D01*
X137184330Y-109362305D01*
X137083158Y-109264994D01*
X137007514Y-109146908D01*
X136961726Y-109013773D01*
X136945900Y-108861438D01*
X136945900Y-108806535D01*
X137293311Y-108806535D01*
X137308922Y-108919460D01*
X137351658Y-109001171D01*
X137421224Y-109059816D01*
X137524866Y-109097337D01*
X139090077Y-109422724D01*
X139195223Y-109428167D01*
X139261218Y-109400131D01*
X139302134Y-109341342D01*
X139318221Y-109237542D01*
X139318221Y-108942398D01*
X137293311Y-108521472D01*
X137293311Y-108806535D01*
X136945900Y-108806535D01*
X136945900Y-108052002D01*
X139665632Y-108617475D01*
G37*
G36*
X136945900Y-111078975D02*
G01*
X136945900Y-110664874D01*
X138209607Y-110489773D01*
X138454656Y-110540643D01*
X138454656Y-110931016D01*
X139318221Y-111110615D01*
X139318221Y-110609971D01*
X136945900Y-110116771D01*
X136945900Y-109719575D01*
X139665632Y-110285048D01*
X139665632Y-111338913D01*
X139649818Y-111447867D01*
X139610190Y-111508783D01*
X139547879Y-111537638D01*
X139450516Y-111533557D01*
X138401769Y-111315649D01*
X138311327Y-111283175D01*
X138249064Y-111232330D01*
X138209142Y-111161641D01*
X138193834Y-111079624D01*
X138186653Y-110898911D01*
X136945900Y-111078975D01*
G37*
D13*
X145214284Y-110454819D02*
X144642856Y-110454819D01*
X144928570Y-110454819D02*
X144928570Y-109454819D01*
X144928570Y-109454819D02*
X144833332Y-109597676D01*
X144833332Y-109597676D02*
X144738094Y-109692914D01*
X144738094Y-109692914D02*
X144642856Y-109740533D01*
X145547618Y-110454819D02*
X146071427Y-109788152D01*
X145547618Y-109788152D02*
X146071427Y-110454819D01*
X146404761Y-109550057D02*
X146452380Y-109502438D01*
X146452380Y-109502438D02*
X146547618Y-109454819D01*
X146547618Y-109454819D02*
X146785713Y-109454819D01*
X146785713Y-109454819D02*
X146880951Y-109502438D01*
X146880951Y-109502438D02*
X146928570Y-109550057D01*
X146928570Y-109550057D02*
X146976189Y-109645295D01*
X146976189Y-109645295D02*
X146976189Y-109740533D01*
X146976189Y-109740533D02*
X146928570Y-109883390D01*
X146928570Y-109883390D02*
X146357142Y-110454819D01*
X146357142Y-110454819D02*
X146976189Y-110454819D01*
X148071428Y-109454819D02*
X148309523Y-110454819D01*
X148309523Y-110454819D02*
X148499999Y-109740533D01*
X148499999Y-109740533D02*
X148690475Y-110454819D01*
X148690475Y-110454819D02*
X148928571Y-109454819D01*
X149738094Y-110454819D02*
X149738094Y-109931009D01*
X149738094Y-109931009D02*
X149690475Y-109835771D01*
X149690475Y-109835771D02*
X149595237Y-109788152D01*
X149595237Y-109788152D02*
X149404761Y-109788152D01*
X149404761Y-109788152D02*
X149309523Y-109835771D01*
X149738094Y-110407200D02*
X149642856Y-110454819D01*
X149642856Y-110454819D02*
X149404761Y-110454819D01*
X149404761Y-110454819D02*
X149309523Y-110407200D01*
X149309523Y-110407200D02*
X149261904Y-110311961D01*
X149261904Y-110311961D02*
X149261904Y-110216723D01*
X149261904Y-110216723D02*
X149309523Y-110121485D01*
X149309523Y-110121485D02*
X149404761Y-110073866D01*
X149404761Y-110073866D02*
X149642856Y-110073866D01*
X149642856Y-110073866D02*
X149738094Y-110026247D01*
X150642856Y-109788152D02*
X150642856Y-110597676D01*
X150642856Y-110597676D02*
X150595237Y-110692914D01*
X150595237Y-110692914D02*
X150547618Y-110740533D01*
X150547618Y-110740533D02*
X150452380Y-110788152D01*
X150452380Y-110788152D02*
X150309523Y-110788152D01*
X150309523Y-110788152D02*
X150214285Y-110740533D01*
X150642856Y-110407200D02*
X150547618Y-110454819D01*
X150547618Y-110454819D02*
X150357142Y-110454819D01*
X150357142Y-110454819D02*
X150261904Y-110407200D01*
X150261904Y-110407200D02*
X150214285Y-110359580D01*
X150214285Y-110359580D02*
X150166666Y-110264342D01*
X150166666Y-110264342D02*
X150166666Y-109978628D01*
X150166666Y-109978628D02*
X150214285Y-109883390D01*
X150214285Y-109883390D02*
X150261904Y-109835771D01*
X150261904Y-109835771D02*
X150357142Y-109788152D01*
X150357142Y-109788152D02*
X150547618Y-109788152D01*
X150547618Y-109788152D02*
X150642856Y-109835771D01*
X151261904Y-110454819D02*
X151166666Y-110407200D01*
X151166666Y-110407200D02*
X151119047Y-110359580D01*
X151119047Y-110359580D02*
X151071428Y-110264342D01*
X151071428Y-110264342D02*
X151071428Y-109978628D01*
X151071428Y-109978628D02*
X151119047Y-109883390D01*
X151119047Y-109883390D02*
X151166666Y-109835771D01*
X151166666Y-109835771D02*
X151261904Y-109788152D01*
X151261904Y-109788152D02*
X151404761Y-109788152D01*
X151404761Y-109788152D02*
X151499999Y-109835771D01*
X151499999Y-109835771D02*
X151547618Y-109883390D01*
X151547618Y-109883390D02*
X151595237Y-109978628D01*
X151595237Y-109978628D02*
X151595237Y-110264342D01*
X151595237Y-110264342D02*
X151547618Y-110359580D01*
X151547618Y-110359580D02*
X151499999Y-110407200D01*
X151499999Y-110407200D02*
X151404761Y-110454819D01*
X151404761Y-110454819D02*
X151261904Y-110454819D01*
X152785714Y-110454819D02*
X152785714Y-109454819D01*
X152785714Y-109835771D02*
X152880952Y-109788152D01*
X152880952Y-109788152D02*
X153071428Y-109788152D01*
X153071428Y-109788152D02*
X153166666Y-109835771D01*
X153166666Y-109835771D02*
X153214285Y-109883390D01*
X153214285Y-109883390D02*
X153261904Y-109978628D01*
X153261904Y-109978628D02*
X153261904Y-110264342D01*
X153261904Y-110264342D02*
X153214285Y-110359580D01*
X153214285Y-110359580D02*
X153166666Y-110407200D01*
X153166666Y-110407200D02*
X153071428Y-110454819D01*
X153071428Y-110454819D02*
X152880952Y-110454819D01*
X152880952Y-110454819D02*
X152785714Y-110407200D01*
X153833333Y-110454819D02*
X153738095Y-110407200D01*
X153738095Y-110407200D02*
X153690476Y-110311961D01*
X153690476Y-110311961D02*
X153690476Y-109454819D01*
X154357143Y-110454819D02*
X154261905Y-110407200D01*
X154261905Y-110407200D02*
X154214286Y-110359580D01*
X154214286Y-110359580D02*
X154166667Y-110264342D01*
X154166667Y-110264342D02*
X154166667Y-109978628D01*
X154166667Y-109978628D02*
X154214286Y-109883390D01*
X154214286Y-109883390D02*
X154261905Y-109835771D01*
X154261905Y-109835771D02*
X154357143Y-109788152D01*
X154357143Y-109788152D02*
X154500000Y-109788152D01*
X154500000Y-109788152D02*
X154595238Y-109835771D01*
X154595238Y-109835771D02*
X154642857Y-109883390D01*
X154642857Y-109883390D02*
X154690476Y-109978628D01*
X154690476Y-109978628D02*
X154690476Y-110264342D01*
X154690476Y-110264342D02*
X154642857Y-110359580D01*
X154642857Y-110359580D02*
X154595238Y-110407200D01*
X154595238Y-110407200D02*
X154500000Y-110454819D01*
X154500000Y-110454819D02*
X154357143Y-110454819D01*
X155547619Y-110407200D02*
X155452381Y-110454819D01*
X155452381Y-110454819D02*
X155261905Y-110454819D01*
X155261905Y-110454819D02*
X155166667Y-110407200D01*
X155166667Y-110407200D02*
X155119048Y-110359580D01*
X155119048Y-110359580D02*
X155071429Y-110264342D01*
X155071429Y-110264342D02*
X155071429Y-109978628D01*
X155071429Y-109978628D02*
X155119048Y-109883390D01*
X155119048Y-109883390D02*
X155166667Y-109835771D01*
X155166667Y-109835771D02*
X155261905Y-109788152D01*
X155261905Y-109788152D02*
X155452381Y-109788152D01*
X155452381Y-109788152D02*
X155547619Y-109835771D01*
X155976191Y-110454819D02*
X155976191Y-109454819D01*
X156071429Y-110073866D02*
X156357143Y-110454819D01*
X156357143Y-109788152D02*
X155976191Y-110169104D01*
X149438332Y-91954819D02*
X149104999Y-91478628D01*
X148866904Y-91954819D02*
X148866904Y-90954819D01*
X148866904Y-90954819D02*
X149247856Y-90954819D01*
X149247856Y-90954819D02*
X149343094Y-91002438D01*
X149343094Y-91002438D02*
X149390713Y-91050057D01*
X149390713Y-91050057D02*
X149438332Y-91145295D01*
X149438332Y-91145295D02*
X149438332Y-91288152D01*
X149438332Y-91288152D02*
X149390713Y-91383390D01*
X149390713Y-91383390D02*
X149343094Y-91431009D01*
X149343094Y-91431009D02*
X149247856Y-91478628D01*
X149247856Y-91478628D02*
X148866904Y-91478628D01*
X150390713Y-91954819D02*
X149819285Y-91954819D01*
X150104999Y-91954819D02*
X150104999Y-90954819D01*
X150104999Y-90954819D02*
X150009761Y-91097676D01*
X150009761Y-91097676D02*
X149914523Y-91192914D01*
X149914523Y-91192914D02*
X149819285Y-91240533D01*
%TO.C,1x2 Wago block*%
D14*
X142400000Y-108000002D02*
X142400000Y-102600003D01*
X143300000Y-96100000D02*
X157299998Y-96100000D01*
X143300000Y-102600003D02*
X142400000Y-102600003D01*
X143300000Y-108000002D02*
X142400000Y-108000002D01*
X143300000Y-112400001D02*
X143300000Y-96100000D01*
X143300000Y-112400001D02*
X157299998Y-112400001D01*
X144079999Y-112400001D02*
X144079999Y-115300000D01*
X144079999Y-115300000D02*
X148479998Y-115300000D01*
X148479998Y-112400001D02*
X148479998Y-115300000D01*
X151579999Y-112400001D02*
X151579999Y-115300000D01*
X151579999Y-115300000D02*
X155979998Y-115300000D01*
X155979998Y-112400001D02*
X155979998Y-115300000D01*
X157299998Y-96100000D02*
X157299998Y-112400001D01*
D15*
X141775999Y-99000000D02*
G75*
G02*
X141013999Y-99000000I-381000J0D01*
G01*
X141013999Y-99000000D02*
G75*
G02*
X141775999Y-99000000I381000J0D01*
G01*
%TO.C,R1*%
D16*
X148877935Y-92590000D02*
X150332063Y-92590000D01*
X148877935Y-94410000D02*
X150332063Y-94410000D01*
%TD*%
%LPC*%
D17*
%TO.C,1x2 Wago block*%
X146000000Y-99000000D03*
X146000000Y-107199999D03*
X153500000Y-99000000D03*
X153500000Y-107199999D03*
%TD*%
D18*
%TO.C,R1*%
X148054999Y-93500000D03*
X151154999Y-93500000D03*
%TD*%
%LPD*%
M02*
