%TF.GenerationSoftware,KiCad,Pcbnew,10.0.3*%
%TF.CreationDate,2026-07-17T16:07:05-07:00*%
%TF.ProjectId,canENDR-FRC,63616e45-4e44-4522-9d46-52432e6b6963,rev?*%
%TF.SameCoordinates,Original*%
%TF.FileFunction,Legend,Bot*%
%TF.FilePolarity,Positive*%
%FSLAX46Y46*%
G04 Gerber Fmt 4.6, Leading zero omitted, Abs format (unit mm)*
G04 Created by KiCad (PCBNEW 10.0.3) date 2026-07-17 16:07:05*
%MOMM*%
%LPD*%
G01*
G04 APERTURE LIST*
%ADD10C,0.000000*%
%ADD11C,0.508000*%
%ADD12C,2.000000*%
G04 APERTURE END LIST*
D10*
G36*
X147070939Y-92656135D02*
G01*
X147069975Y-92660644D01*
X147068896Y-92664989D01*
X147067714Y-92669180D01*
X147066430Y-92673218D01*
X147065045Y-92677114D01*
X147063574Y-92680869D01*
X147062011Y-92684495D01*
X147060364Y-92687992D01*
X147058642Y-92691370D01*
X147056846Y-92694631D01*
X147054979Y-92697786D01*
X147051060Y-92703794D01*
X147046923Y-92709440D01*
X147042606Y-92714772D01*
X147038147Y-92719835D01*
X147033583Y-92724682D01*
X147028953Y-92729356D01*
X147010530Y-92747305D01*
X146836806Y-92920694D01*
X146750277Y-93007701D01*
X146707388Y-93051561D01*
X146664861Y-93095768D01*
X146655487Y-93105178D01*
X146645981Y-93113867D01*
X146636328Y-93121850D01*
X146626510Y-93129137D01*
X146616510Y-93135745D01*
X146606310Y-93141692D01*
X146595892Y-93146989D01*
X146585237Y-93151652D01*
X146574328Y-93155692D01*
X146563149Y-93159129D01*
X146551677Y-93161975D01*
X146539899Y-93164244D01*
X146527795Y-93165953D01*
X146515350Y-93167112D01*
X146502544Y-93167743D01*
X146489356Y-93167853D01*
X146298596Y-93166543D01*
X146106845Y-93166330D01*
X145716469Y-93166892D01*
X145665971Y-93166483D01*
X145616269Y-93165488D01*
X145518931Y-93163336D01*
X145471135Y-93162984D01*
X145423817Y-93163653D01*
X145376894Y-93165738D01*
X145353557Y-93167439D01*
X145330287Y-93169646D01*
X145299923Y-93172121D01*
X145270592Y-93172957D01*
X145242255Y-93172133D01*
X145228448Y-93171092D01*
X145214872Y-93169629D01*
X145201527Y-93167745D01*
X145188407Y-93165433D01*
X145175505Y-93162692D01*
X145162815Y-93159522D01*
X145150335Y-93155918D01*
X145138061Y-93151878D01*
X145125985Y-93147403D01*
X145114105Y-93142487D01*
X145102413Y-93137129D01*
X145090903Y-93131325D01*
X145079578Y-93125077D01*
X145068421Y-93118376D01*
X145057438Y-93111226D01*
X145046619Y-93103625D01*
X145035960Y-93095566D01*
X145025457Y-93087049D01*
X145015101Y-93078071D01*
X145004891Y-93068633D01*
X144984888Y-93048359D01*
X144965405Y-93026205D01*
X144946403Y-93002160D01*
X144929579Y-92980251D01*
X144912287Y-92958641D01*
X144876335Y-92916071D01*
X144838671Y-92873927D01*
X144799409Y-92831691D01*
X144716562Y-92744869D01*
X144673210Y-92699249D01*
X144628734Y-92651459D01*
X147071787Y-92651459D01*
X147070939Y-92656135D01*
G37*
G36*
X154190877Y-95084797D02*
G01*
X154197171Y-95085068D01*
X154203355Y-95085596D01*
X154209429Y-95086391D01*
X154215397Y-95087459D01*
X154221258Y-95088806D01*
X154227012Y-95090441D01*
X154232660Y-95092377D01*
X154238201Y-95094616D01*
X154243641Y-95097166D01*
X154248976Y-95100037D01*
X154254205Y-95103236D01*
X154259335Y-95106770D01*
X154264360Y-95110647D01*
X154269287Y-95114878D01*
X154274111Y-95119468D01*
X154278836Y-95124423D01*
X154289477Y-95135369D01*
X154300349Y-95145101D01*
X154311454Y-95153689D01*
X154322788Y-95161203D01*
X154334353Y-95167709D01*
X154346149Y-95173284D01*
X154358172Y-95177991D01*
X154370429Y-95181907D01*
X154382913Y-95185097D01*
X154395625Y-95187632D01*
X154408565Y-95189582D01*
X154421733Y-95191019D01*
X154435128Y-95192008D01*
X154448747Y-95192625D01*
X154476670Y-95193012D01*
X156815779Y-95193216D01*
X156844479Y-95193388D01*
X156873185Y-95193932D01*
X156901876Y-95194931D01*
X156930523Y-95196467D01*
X156934808Y-95196812D01*
X156938938Y-95197290D01*
X156942910Y-95197902D01*
X156946728Y-95198646D01*
X156950395Y-95199522D01*
X156953910Y-95200531D01*
X156957274Y-95201673D01*
X156960487Y-95202944D01*
X156963553Y-95204346D01*
X156966475Y-95205880D01*
X156969246Y-95207544D01*
X156971878Y-95209340D01*
X156974362Y-95211266D01*
X156976705Y-95213319D01*
X156978906Y-95215506D01*
X156980968Y-95217820D01*
X156982889Y-95220264D01*
X156984675Y-95222839D01*
X156986320Y-95225540D01*
X156987835Y-95228370D01*
X156989211Y-95231329D01*
X156990457Y-95234415D01*
X156991568Y-95237628D01*
X156992552Y-95240968D01*
X156993401Y-95244439D01*
X156994124Y-95248035D01*
X156995189Y-95255604D01*
X156995751Y-95263682D01*
X156995823Y-95272261D01*
X156995461Y-95280712D01*
X156994700Y-95288686D01*
X156993516Y-95296176D01*
X156992757Y-95299737D01*
X156991885Y-95303173D01*
X156990895Y-95306484D01*
X156989784Y-95309666D01*
X156988549Y-95312721D01*
X156987189Y-95315644D01*
X156985700Y-95318437D01*
X156984077Y-95321099D01*
X156982319Y-95323628D01*
X156980424Y-95326021D01*
X156978386Y-95328279D01*
X156976207Y-95330398D01*
X156973877Y-95332380D01*
X156971399Y-95334223D01*
X156968769Y-95335925D01*
X156965981Y-95337482D01*
X156963036Y-95338899D01*
X156959929Y-95340170D01*
X156956657Y-95341295D01*
X156953219Y-95342272D01*
X156949606Y-95343102D01*
X156945824Y-95343781D01*
X156941864Y-95344311D01*
X156937721Y-95344689D01*
X156933400Y-95344913D01*
X156928892Y-95344982D01*
X156834929Y-95345991D01*
X154402511Y-95346328D01*
X154386615Y-95346018D01*
X154371443Y-95344887D01*
X154356960Y-95342966D01*
X154343120Y-95340292D01*
X154329897Y-95336907D01*
X154317253Y-95332839D01*
X154305152Y-95328134D01*
X154293560Y-95322822D01*
X154282438Y-95316945D01*
X154271751Y-95310533D01*
X154261464Y-95303625D01*
X154251544Y-95296262D01*
X154241953Y-95288476D01*
X154232655Y-95280304D01*
X154214796Y-95262952D01*
X154197684Y-95244499D01*
X154181033Y-95225237D01*
X154147970Y-95185457D01*
X154130988Y-95165524D01*
X154113327Y-95145956D01*
X154094701Y-95127040D01*
X154074824Y-95109074D01*
X154090959Y-95103643D01*
X154106620Y-95098770D01*
X154121806Y-95094519D01*
X154136530Y-95090955D01*
X154150795Y-95088135D01*
X154164602Y-95086129D01*
X154177963Y-95084995D01*
X154184475Y-95084774D01*
X154190877Y-95084797D01*
G37*
G36*
X144836296Y-95086744D02*
G01*
X144850465Y-95088516D01*
X144865092Y-95091136D01*
X144880181Y-95094528D01*
X144895744Y-95098627D01*
X144911791Y-95103364D01*
X144928328Y-95108669D01*
X144906433Y-95130448D01*
X144885449Y-95152553D01*
X144845195Y-95196701D01*
X144825415Y-95218220D01*
X144805522Y-95239020D01*
X144785262Y-95258841D01*
X144764381Y-95277418D01*
X144742618Y-95294491D01*
X144731328Y-95302382D01*
X144719719Y-95309800D01*
X144707763Y-95316707D01*
X144695429Y-95323079D01*
X144682683Y-95328877D01*
X144669493Y-95334071D01*
X144655828Y-95338627D01*
X144641652Y-95342512D01*
X144626935Y-95345693D01*
X144611651Y-95348139D01*
X144595761Y-95349816D01*
X144579234Y-95350693D01*
X144562039Y-95350736D01*
X144544144Y-95349912D01*
X144456967Y-95345123D01*
X144369514Y-95342535D01*
X144281697Y-95341671D01*
X144193426Y-95342047D01*
X143834016Y-95346352D01*
X142653509Y-95346075D01*
X142016254Y-95346272D01*
X142007684Y-95346176D01*
X141999366Y-95345817D01*
X141991339Y-95345140D01*
X141983641Y-95344081D01*
X141979926Y-95343389D01*
X141976309Y-95342583D01*
X141972794Y-95341649D01*
X141969384Y-95340584D01*
X141966084Y-95339381D01*
X141962903Y-95338030D01*
X141959838Y-95336527D01*
X141956901Y-95334858D01*
X141954095Y-95333024D01*
X141951421Y-95331013D01*
X141948889Y-95328815D01*
X141946502Y-95326428D01*
X141944264Y-95323843D01*
X141942180Y-95321052D01*
X141940254Y-95318046D01*
X141938491Y-95314820D01*
X141936899Y-95311365D01*
X141935479Y-95307677D01*
X141934236Y-95303743D01*
X141933178Y-95299559D01*
X141932308Y-95295118D01*
X141931630Y-95290412D01*
X141931148Y-95285431D01*
X141930870Y-95280173D01*
X141930778Y-95274993D01*
X141930855Y-95269977D01*
X141931091Y-95265120D01*
X141931495Y-95260424D01*
X141932062Y-95255888D01*
X141932794Y-95251513D01*
X141933692Y-95247299D01*
X141934756Y-95243244D01*
X141935985Y-95239351D01*
X141937382Y-95235617D01*
X141938945Y-95232043D01*
X141940675Y-95228629D01*
X141942573Y-95225377D01*
X141944635Y-95222281D01*
X141946867Y-95219349D01*
X141949270Y-95216575D01*
X141951838Y-95213960D01*
X141954576Y-95211505D01*
X141957483Y-95209207D01*
X141960560Y-95207070D01*
X141963807Y-95205094D01*
X141967225Y-95203274D01*
X141970811Y-95201617D01*
X141974568Y-95200115D01*
X141978495Y-95198773D01*
X141982594Y-95197591D01*
X141986867Y-95196567D01*
X141991309Y-95195701D01*
X141995926Y-95194995D01*
X142000713Y-95194446D01*
X142005673Y-95194055D01*
X142010808Y-95193825D01*
X142036911Y-95193141D01*
X142063018Y-95192629D01*
X142089129Y-95192308D01*
X142115238Y-95192196D01*
X144538902Y-95192829D01*
X144564201Y-95192501D01*
X144576551Y-95191962D01*
X144588696Y-95191089D01*
X144600636Y-95189813D01*
X144612368Y-95188072D01*
X144623892Y-95185794D01*
X144635198Y-95182920D01*
X144646294Y-95179379D01*
X144657170Y-95175107D01*
X144667829Y-95170040D01*
X144673073Y-95167185D01*
X144678262Y-95164107D01*
X144683393Y-95160798D01*
X144688471Y-95157249D01*
X144693489Y-95153451D01*
X144698453Y-95149396D01*
X144703358Y-95145073D01*
X144708204Y-95140480D01*
X144712993Y-95135606D01*
X144717723Y-95130440D01*
X144722727Y-95125033D01*
X144727823Y-95120017D01*
X144733011Y-95115384D01*
X144738290Y-95111123D01*
X144743662Y-95107227D01*
X144749133Y-95103687D01*
X144754696Y-95100495D01*
X144760360Y-95097643D01*
X144766119Y-95095120D01*
X144771979Y-95092921D01*
X144777941Y-95091032D01*
X144784002Y-95089451D01*
X144796437Y-95087166D01*
X144809291Y-95086000D01*
X144822574Y-95085884D01*
X144836296Y-95086744D01*
G37*
G36*
X148728848Y-95085648D02*
G01*
X148736840Y-95085975D01*
X148744727Y-95086632D01*
X148752477Y-95087681D01*
X148760056Y-95089193D01*
X148767433Y-95091236D01*
X148771036Y-95092477D01*
X148774578Y-95093875D01*
X148778054Y-95095440D01*
X148781459Y-95097177D01*
X148784791Y-95099098D01*
X148788048Y-95101208D01*
X148791220Y-95103520D01*
X148794308Y-95106040D01*
X148834130Y-95141169D01*
X148873201Y-95177188D01*
X148911592Y-95214136D01*
X148949370Y-95252060D01*
X148986600Y-95291005D01*
X149023358Y-95331010D01*
X149059705Y-95372118D01*
X149095711Y-95414376D01*
X149086743Y-95419443D01*
X149077919Y-95424051D01*
X149069236Y-95428203D01*
X149060695Y-95431909D01*
X149052293Y-95435174D01*
X149044028Y-95438000D01*
X149035904Y-95440397D01*
X149027914Y-95442370D01*
X149020063Y-95443923D01*
X149012345Y-95445062D01*
X149004760Y-95445792D01*
X148997309Y-95446121D01*
X148989989Y-95446051D01*
X148982801Y-95445593D01*
X148975741Y-95444746D01*
X148968811Y-95443520D01*
X148962008Y-95441919D01*
X148955332Y-95439949D01*
X148948783Y-95437615D01*
X148942354Y-95434925D01*
X148936052Y-95431880D01*
X148929872Y-95428490D01*
X148923813Y-95424759D01*
X148917877Y-95420693D01*
X148912059Y-95416298D01*
X148906358Y-95411576D01*
X148900776Y-95406536D01*
X148895311Y-95401184D01*
X148889961Y-95395524D01*
X148884722Y-95389561D01*
X148879601Y-95383304D01*
X148874591Y-95376755D01*
X148858275Y-95356103D01*
X148841389Y-95337417D01*
X148823926Y-95320612D01*
X148805875Y-95305608D01*
X148787222Y-95292324D01*
X148767961Y-95280682D01*
X148748079Y-95270596D01*
X148727569Y-95261986D01*
X148706415Y-95254774D01*
X148684611Y-95248872D01*
X148662145Y-95244206D01*
X148639008Y-95240689D01*
X148615189Y-95238244D01*
X148590678Y-95236786D01*
X148565461Y-95236237D01*
X148539532Y-95236515D01*
X148259861Y-95241033D01*
X147979114Y-95241817D01*
X147410679Y-95240204D01*
X146549558Y-95242370D01*
X146122469Y-95241461D01*
X145696455Y-95235953D01*
X145661009Y-95235660D01*
X145626395Y-95236328D01*
X145592623Y-95238095D01*
X145559692Y-95241099D01*
X145527612Y-95245474D01*
X145496388Y-95251367D01*
X145466026Y-95258910D01*
X145436529Y-95268241D01*
X145407902Y-95279502D01*
X145393920Y-95285896D01*
X145380155Y-95292826D01*
X145366611Y-95300307D01*
X145353290Y-95308353D01*
X145340190Y-95316988D01*
X145327312Y-95326224D01*
X145314658Y-95336081D01*
X145302228Y-95346575D01*
X145290026Y-95357722D01*
X145278044Y-95369544D01*
X145266290Y-95382051D01*
X145254765Y-95395267D01*
X145243465Y-95409206D01*
X145232394Y-95423883D01*
X145226723Y-95431332D01*
X145220911Y-95438292D01*
X145214957Y-95444776D01*
X145208860Y-95450792D01*
X145202619Y-95456354D01*
X145196239Y-95461471D01*
X145189715Y-95466153D01*
X145183050Y-95470412D01*
X145176240Y-95474254D01*
X145169289Y-95477697D01*
X145162196Y-95480745D01*
X145154961Y-95483410D01*
X145147583Y-95485703D01*
X145140062Y-95487637D01*
X145124595Y-95490462D01*
X145108556Y-95491969D01*
X145091949Y-95492238D01*
X145074768Y-95491360D01*
X145057023Y-95489410D01*
X145038703Y-95486480D01*
X145019816Y-95482650D01*
X145000355Y-95478006D01*
X144980325Y-95472629D01*
X145143153Y-95310017D01*
X145220593Y-95232136D01*
X145296286Y-95154644D01*
X145305139Y-95145875D01*
X145314143Y-95137762D01*
X145323313Y-95130288D01*
X145332662Y-95123447D01*
X145342202Y-95117221D01*
X145351946Y-95111601D01*
X145361908Y-95106573D01*
X145372102Y-95102130D01*
X145382536Y-95098254D01*
X145393228Y-95094938D01*
X145404187Y-95092166D01*
X145415430Y-95089928D01*
X145426965Y-95088211D01*
X145438811Y-95087002D01*
X145450978Y-95086292D01*
X145463475Y-95086065D01*
X148672542Y-95086913D01*
X148688379Y-95086586D01*
X148704542Y-95085966D01*
X148720779Y-95085583D01*
X148728848Y-95085648D01*
G37*
G36*
X153419134Y-95082887D02*
G01*
X153451278Y-95084146D01*
X153482515Y-95086533D01*
X153512860Y-95090133D01*
X153542330Y-95095040D01*
X153570943Y-95101340D01*
X153598708Y-95109121D01*
X153625651Y-95118469D01*
X153651785Y-95129479D01*
X153677127Y-95142236D01*
X153689505Y-95149295D01*
X153701691Y-95156827D01*
X153713690Y-95164837D01*
X153725499Y-95173340D01*
X153737122Y-95182346D01*
X153748561Y-95191866D01*
X153759820Y-95201913D01*
X153770899Y-95212494D01*
X153781801Y-95223623D01*
X153792526Y-95235311D01*
X153803080Y-95247567D01*
X153813461Y-95260403D01*
X153824801Y-95274026D01*
X153836844Y-95287044D01*
X153849477Y-95299581D01*
X153862582Y-95311756D01*
X153889751Y-95335518D01*
X153917433Y-95359299D01*
X153931181Y-95371503D01*
X153944711Y-95384082D01*
X153957912Y-95397155D01*
X153970665Y-95410842D01*
X153982856Y-95425270D01*
X153994373Y-95440556D01*
X153999842Y-95448559D01*
X154005099Y-95456824D01*
X154010131Y-95465367D01*
X154014920Y-95474197D01*
X153996503Y-95479624D01*
X153978529Y-95484174D01*
X153960995Y-95487790D01*
X153943897Y-95490412D01*
X153927238Y-95491978D01*
X153911010Y-95492433D01*
X153903059Y-95492221D01*
X153895216Y-95491712D01*
X153887480Y-95490893D01*
X153879852Y-95489759D01*
X153872328Y-95488302D01*
X153864913Y-95486512D01*
X153857606Y-95484388D01*
X153850402Y-95481916D01*
X153843304Y-95479090D01*
X153836314Y-95475906D01*
X153829426Y-95472353D01*
X153822647Y-95468424D01*
X153815972Y-95464112D01*
X153809398Y-95459411D01*
X153802932Y-95454311D01*
X153796568Y-95448806D01*
X153790309Y-95442891D01*
X153784155Y-95436551D01*
X153778102Y-95429787D01*
X153772154Y-95422588D01*
X153749783Y-95396133D01*
X153726668Y-95372070D01*
X153702794Y-95350315D01*
X153678143Y-95330768D01*
X153652706Y-95313341D01*
X153626467Y-95297948D01*
X153599412Y-95284490D01*
X153571524Y-95272878D01*
X153542790Y-95263022D01*
X153513193Y-95254830D01*
X153482722Y-95248210D01*
X153451361Y-95243072D01*
X153419094Y-95239320D01*
X153385908Y-95236868D01*
X153351790Y-95235623D01*
X153316720Y-95235493D01*
X152653204Y-95240324D01*
X151988667Y-95241306D01*
X150652689Y-95239627D01*
X150615278Y-95240002D01*
X150580794Y-95240568D01*
X150564358Y-95240697D01*
X150548309Y-95240606D01*
X150532521Y-95240204D01*
X150516883Y-95239399D01*
X150444594Y-95235442D01*
X150408899Y-95234498D01*
X150373591Y-95234583D01*
X150338733Y-95235955D01*
X150304397Y-95238879D01*
X150270644Y-95243604D01*
X150237546Y-95250392D01*
X150221262Y-95254640D01*
X150205162Y-95259500D01*
X150189263Y-95265004D01*
X150173565Y-95271185D01*
X150158081Y-95278075D01*
X150142819Y-95285705D01*
X150127783Y-95294110D01*
X150112984Y-95303319D01*
X150098432Y-95313365D01*
X150084135Y-95324280D01*
X150070098Y-95336100D01*
X150056332Y-95348853D01*
X150042846Y-95362569D01*
X150029645Y-95377288D01*
X150016740Y-95393034D01*
X150004138Y-95409845D01*
X150000291Y-95414870D01*
X149996234Y-95419510D01*
X149991974Y-95423776D01*
X149987513Y-95427669D01*
X149982853Y-95431192D01*
X149978001Y-95434356D01*
X149972960Y-95437163D01*
X149967737Y-95439614D01*
X149962330Y-95441718D01*
X149956748Y-95443479D01*
X149950997Y-95444902D01*
X149945074Y-95445989D01*
X149938990Y-95446746D01*
X149932745Y-95447180D01*
X149919795Y-95447091D01*
X149906258Y-95445760D01*
X149892163Y-95443223D01*
X149877548Y-95439521D01*
X149862443Y-95434691D01*
X149846884Y-95428767D01*
X149830902Y-95421792D01*
X149814529Y-95413801D01*
X149797803Y-95404833D01*
X149866653Y-95342005D01*
X149932979Y-95281937D01*
X149965125Y-95252337D01*
X149996558Y-95222699D01*
X150027251Y-95192782D01*
X150057174Y-95162344D01*
X150067659Y-95151929D01*
X150078282Y-95142386D01*
X150089060Y-95133693D01*
X150100014Y-95125818D01*
X150111160Y-95118736D01*
X150122522Y-95112418D01*
X150134112Y-95106833D01*
X150145954Y-95101959D01*
X150158062Y-95097764D01*
X150170459Y-95094224D01*
X150183162Y-95091309D01*
X150196186Y-95088989D01*
X150209555Y-95087240D01*
X150223287Y-95086034D01*
X150237394Y-95085343D01*
X150251904Y-95085135D01*
X151819009Y-95087794D01*
X153386064Y-95082665D01*
X153419134Y-95082887D01*
G37*
G36*
X141253299Y-92681891D02*
G01*
X141263015Y-92681982D01*
X141272518Y-92682298D01*
X141281756Y-92682922D01*
X141290670Y-92683942D01*
X141299200Y-92685444D01*
X141303304Y-92686404D01*
X141307291Y-92687517D01*
X141311151Y-92688795D01*
X141314879Y-92690247D01*
X141318470Y-92691883D01*
X141321911Y-92693719D01*
X141325202Y-92695762D01*
X141328328Y-92698021D01*
X141331288Y-92700509D01*
X141334071Y-92703238D01*
X141336669Y-92706219D01*
X141339080Y-92709461D01*
X141341291Y-92712974D01*
X141343298Y-92716771D01*
X141345094Y-92720865D01*
X141346669Y-92725260D01*
X141348019Y-92729972D01*
X141349132Y-92735014D01*
X141350006Y-92740389D01*
X141350628Y-92746113D01*
X141350998Y-92752200D01*
X141351104Y-92758654D01*
X141350942Y-92765125D01*
X141350523Y-92771214D01*
X141349852Y-92776941D01*
X141348934Y-92782309D01*
X141347779Y-92787331D01*
X141346391Y-92792022D01*
X141344782Y-92796387D01*
X141342954Y-92800446D01*
X141340916Y-92804202D01*
X141338679Y-92807670D01*
X141336244Y-92810863D01*
X141333620Y-92813789D01*
X141330816Y-92816463D01*
X141327838Y-92818892D01*
X141324694Y-92821090D01*
X141321389Y-92823068D01*
X141317931Y-92824839D01*
X141314328Y-92826410D01*
X141310587Y-92827796D01*
X141306714Y-92829008D01*
X141298602Y-92830952D01*
X141290049Y-92832334D01*
X141281115Y-92833243D01*
X141271855Y-92833774D01*
X141262326Y-92834014D01*
X141252581Y-92834055D01*
X141054067Y-92835216D01*
X140954861Y-92834829D01*
X140905302Y-92833727D01*
X140855788Y-92831768D01*
X140840880Y-92831402D01*
X140826509Y-92831796D01*
X140812640Y-92832949D01*
X140799243Y-92834852D01*
X140786281Y-92837490D01*
X140773724Y-92840856D01*
X140761541Y-92844939D01*
X140749697Y-92849735D01*
X140738159Y-92855233D01*
X140726898Y-92861421D01*
X140715877Y-92868291D01*
X140705065Y-92875836D01*
X140694432Y-92884045D01*
X140683942Y-92892908D01*
X140673565Y-92902417D01*
X140663265Y-92912564D01*
X140507370Y-93070501D01*
X140350723Y-93227702D01*
X140035912Y-93540596D01*
X140028200Y-93548409D01*
X140020824Y-93556309D01*
X140013811Y-93564329D01*
X140007202Y-93572508D01*
X140001028Y-93580878D01*
X139995327Y-93589480D01*
X139990128Y-93598348D01*
X139985471Y-93607521D01*
X139981387Y-93617033D01*
X139977911Y-93626923D01*
X139975079Y-93637228D01*
X139972920Y-93647980D01*
X139971479Y-93659221D01*
X139970780Y-93670986D01*
X139970863Y-93683312D01*
X139971761Y-93696234D01*
X139972102Y-94248630D01*
X139972390Y-94266899D01*
X139972518Y-94275909D01*
X139972445Y-94284736D01*
X139972028Y-94293301D01*
X139971125Y-94301522D01*
X139970448Y-94305483D01*
X139969594Y-94309328D01*
X139968546Y-94313051D01*
X139967290Y-94316638D01*
X139965804Y-94320085D01*
X139964073Y-94323377D01*
X139962077Y-94326508D01*
X139959799Y-94329467D01*
X139957219Y-94332242D01*
X139954324Y-94334829D01*
X139951090Y-94337212D01*
X139947506Y-94339388D01*
X139943550Y-94341341D01*
X139939204Y-94343064D01*
X139934452Y-94344548D01*
X139929275Y-94345783D01*
X139923655Y-94346759D01*
X139917577Y-94347465D01*
X139911016Y-94347894D01*
X139903962Y-94348037D01*
X139897069Y-94347887D01*
X139890631Y-94347463D01*
X139884638Y-94346767D01*
X139879072Y-94345812D01*
X139873920Y-94344606D01*
X139869163Y-94343159D01*
X139864789Y-94341477D01*
X139860776Y-94339570D01*
X139857114Y-94337448D01*
X139853784Y-94335117D01*
X139850773Y-94332589D01*
X139848061Y-94329870D01*
X139845638Y-94326973D01*
X139843483Y-94323899D01*
X139841584Y-94320666D01*
X139839922Y-94317275D01*
X139838485Y-94313739D01*
X139837253Y-94310069D01*
X139836214Y-94306267D01*
X139835350Y-94302346D01*
X139834086Y-94294183D01*
X139833334Y-94285647D01*
X139832968Y-94276807D01*
X139832867Y-94267737D01*
X139832936Y-94249182D01*
X139833491Y-93935847D01*
X139833277Y-93779185D01*
X139832007Y-93622540D01*
X139832109Y-93611330D01*
X139832705Y-93600470D01*
X139833794Y-93589940D01*
X139835383Y-93579723D01*
X139837468Y-93569798D01*
X139840055Y-93560148D01*
X139843142Y-93550758D01*
X139846734Y-93541606D01*
X139850831Y-93532677D01*
X139855434Y-93523950D01*
X139860545Y-93515410D01*
X139866164Y-93507038D01*
X139872298Y-93498811D01*
X139878944Y-93490716D01*
X139886101Y-93482735D01*
X139893780Y-93474848D01*
X140268015Y-93103414D01*
X140641073Y-92730793D01*
X140647594Y-92724542D01*
X140654224Y-92718748D01*
X140660970Y-92713398D01*
X140667839Y-92708488D01*
X140674839Y-92704013D01*
X140681973Y-92699966D01*
X140689253Y-92696336D01*
X140696684Y-92693126D01*
X140704275Y-92690320D01*
X140712029Y-92687915D01*
X140719957Y-92685907D01*
X140728063Y-92684286D01*
X140736355Y-92683046D01*
X140744843Y-92682183D01*
X140753531Y-92681688D01*
X140762428Y-92681555D01*
X141253299Y-92681891D01*
G37*
G36*
X156982531Y-90522044D02*
G01*
X156995968Y-90522759D01*
X157009036Y-90523987D01*
X157021760Y-90525744D01*
X157034163Y-90528042D01*
X157046268Y-90530898D01*
X157058099Y-90534321D01*
X157069678Y-90538328D01*
X157081031Y-90542932D01*
X157092181Y-90548147D01*
X157103150Y-90553987D01*
X157113962Y-90560465D01*
X157124643Y-90567593D01*
X157135216Y-90575388D01*
X157145702Y-90583864D01*
X157156126Y-90593031D01*
X157198819Y-90631476D01*
X157242037Y-90669342D01*
X157329502Y-90743949D01*
X157417417Y-90818073D01*
X157504674Y-90892947D01*
X157521248Y-90907033D01*
X157538106Y-90920977D01*
X157554905Y-90935100D01*
X157563171Y-90942322D01*
X157571288Y-90949709D01*
X157579219Y-90957296D01*
X157586913Y-90965124D01*
X157594331Y-90973231D01*
X157601427Y-90981657D01*
X157608159Y-90990438D01*
X157614482Y-90999621D01*
X157620353Y-91009238D01*
X157625728Y-91019333D01*
X157621762Y-91023556D01*
X157617740Y-91027435D01*
X157613669Y-91030988D01*
X157609547Y-91034221D01*
X157605378Y-91037152D01*
X157601168Y-91039794D01*
X157596918Y-91042160D01*
X157592627Y-91044265D01*
X157588302Y-91046124D01*
X157583945Y-91047750D01*
X157579561Y-91049155D01*
X157575150Y-91050351D01*
X157566261Y-91052186D01*
X157557299Y-91053360D01*
X157548289Y-91053984D01*
X157539258Y-91054171D01*
X157530222Y-91054026D01*
X157521209Y-91053664D01*
X157503340Y-91052727D01*
X157494529Y-91052372D01*
X157485830Y-91052238D01*
X155927989Y-91052101D01*
X155880147Y-91052375D01*
X155860783Y-91053050D01*
X155844172Y-91054360D01*
X155836835Y-91055319D01*
X155830108Y-91056516D01*
X155823962Y-91057979D01*
X155818373Y-91059731D01*
X155813316Y-91061798D01*
X155808760Y-91064209D01*
X155804681Y-91066987D01*
X155801054Y-91070162D01*
X155797852Y-91073757D01*
X155795047Y-91077798D01*
X155792613Y-91082317D01*
X155790525Y-91087333D01*
X155788755Y-91092875D01*
X155787279Y-91098968D01*
X155786066Y-91105640D01*
X155785096Y-91112918D01*
X155783764Y-91129392D01*
X155783071Y-91148595D01*
X155782760Y-91196042D01*
X155783985Y-93046642D01*
X155783724Y-93062902D01*
X155782751Y-93077918D01*
X155781011Y-93091709D01*
X155779837Y-93098153D01*
X155778453Y-93104296D01*
X155776849Y-93110142D01*
X155775021Y-93115695D01*
X155772963Y-93120956D01*
X155770663Y-93125929D01*
X155768121Y-93130612D01*
X155765325Y-93135011D01*
X155762270Y-93139132D01*
X155758953Y-93142968D01*
X155755363Y-93146527D01*
X155751494Y-93149811D01*
X155747338Y-93152821D01*
X155742892Y-93155563D01*
X155738149Y-93158034D01*
X155733098Y-93160242D01*
X155727736Y-93162183D01*
X155722056Y-93163867D01*
X155716048Y-93165289D01*
X155709710Y-93166456D01*
X155703035Y-93167370D01*
X155696011Y-93168030D01*
X155688637Y-93168441D01*
X155680903Y-93168608D01*
X155664334Y-93168206D01*
X155621296Y-93166480D01*
X155578214Y-93165570D01*
X155491969Y-93165454D01*
X155319380Y-93166856D01*
X155262585Y-93166353D01*
X155239604Y-93165467D01*
X155219899Y-93163821D01*
X155211195Y-93162630D01*
X155203217Y-93161152D01*
X155195930Y-93159355D01*
X155189305Y-93157207D01*
X155183312Y-93154675D01*
X155177915Y-93151728D01*
X155173084Y-93148333D01*
X155168792Y-93144459D01*
X155165004Y-93140070D01*
X155161685Y-93135140D01*
X155158809Y-93129635D01*
X155156343Y-93123523D01*
X155154255Y-93116767D01*
X155152515Y-93109340D01*
X155151090Y-93101210D01*
X155149949Y-93092341D01*
X155148393Y-93072268D01*
X155147594Y-93048867D01*
X155147266Y-92991044D01*
X155147045Y-92086650D01*
X155149597Y-91182273D01*
X155149325Y-91164254D01*
X155148242Y-91147758D01*
X155147380Y-91140066D01*
X155146293Y-91132740D01*
X155144975Y-91125771D01*
X155143421Y-91119156D01*
X155141621Y-91112886D01*
X155139575Y-91106957D01*
X155137271Y-91101363D01*
X155134703Y-91096102D01*
X155131866Y-91091162D01*
X155128754Y-91086542D01*
X155125358Y-91082235D01*
X155121671Y-91078234D01*
X155117689Y-91074536D01*
X155113402Y-91071134D01*
X155108807Y-91068019D01*
X155103895Y-91065195D01*
X155098659Y-91062644D01*
X155093097Y-91060370D01*
X155087195Y-91058363D01*
X155080952Y-91056615D01*
X155074360Y-91055125D01*
X155067411Y-91053888D01*
X155060098Y-91052893D01*
X155052419Y-91052140D01*
X155035923Y-91051327D01*
X155017869Y-91051401D01*
X154842818Y-91054403D01*
X154667702Y-91054890D01*
X154317411Y-91053548D01*
X154301661Y-91053840D01*
X154285680Y-91054372D01*
X154269686Y-91054569D01*
X154261751Y-91054366D01*
X154253892Y-91053868D01*
X154246140Y-91053004D01*
X154238516Y-91051704D01*
X154231051Y-91049893D01*
X154227389Y-91048777D01*
X154223773Y-91047504D01*
X154220211Y-91046071D01*
X154216707Y-91044466D01*
X154213259Y-91042680D01*
X154209877Y-91040705D01*
X154206563Y-91038532D01*
X154203316Y-91036157D01*
X154200143Y-91033560D01*
X154197048Y-91030739D01*
X154078718Y-90916474D01*
X153960931Y-90801642D01*
X153726298Y-90571014D01*
X153725331Y-90569881D01*
X153724525Y-90568551D01*
X153723861Y-90567015D01*
X153723317Y-90565260D01*
X153722871Y-90563276D01*
X153722504Y-90561048D01*
X153721917Y-90555827D01*
X153720756Y-90542004D01*
X153719846Y-90533222D01*
X153718496Y-90523074D01*
X154354849Y-90523080D01*
X156968699Y-90521830D01*
X156982531Y-90522044D01*
G37*
G36*
X153400794Y-93706966D02*
G01*
X153422334Y-93708768D01*
X153432955Y-93710260D01*
X153443476Y-93712172D01*
X153453890Y-93714520D01*
X153464198Y-93717326D01*
X153474392Y-93720611D01*
X153484475Y-93724389D01*
X153494441Y-93728681D01*
X153504286Y-93733510D01*
X153514009Y-93738891D01*
X153523607Y-93744843D01*
X153533077Y-93751388D01*
X153542415Y-93758543D01*
X153551619Y-93766325D01*
X153560687Y-93774755D01*
X153569617Y-93783856D01*
X153578404Y-93793640D01*
X153587042Y-93804133D01*
X153595534Y-93815346D01*
X153606428Y-93829895D01*
X153617710Y-93844153D01*
X153629333Y-93858158D01*
X153641252Y-93871949D01*
X153665789Y-93899017D01*
X153690940Y-93925645D01*
X153741593Y-93978709D01*
X153766341Y-94005714D01*
X153778406Y-94019460D01*
X153790204Y-94033413D01*
X153800382Y-94045182D01*
X153805350Y-94050513D01*
X153810251Y-94055469D01*
X153815085Y-94060052D01*
X153819864Y-94064256D01*
X153824588Y-94068079D01*
X153829268Y-94071519D01*
X153833908Y-94074575D01*
X153838515Y-94077242D01*
X153843093Y-94079517D01*
X153847651Y-94081400D01*
X153852195Y-94082886D01*
X153856730Y-94083972D01*
X153861264Y-94084658D01*
X153865802Y-94084938D01*
X153870350Y-94084814D01*
X153874915Y-94084280D01*
X153879500Y-94083334D01*
X153884115Y-94081974D01*
X153888767Y-94080195D01*
X153893458Y-94077998D01*
X153898200Y-94075377D01*
X153902993Y-94072333D01*
X153907843Y-94068860D01*
X153912764Y-94064957D01*
X153917756Y-94060622D01*
X153922827Y-94055853D01*
X153927986Y-94050645D01*
X153933232Y-94044994D01*
X153938577Y-94038901D01*
X153944024Y-94032363D01*
X153977424Y-93992383D01*
X154011822Y-93953103D01*
X154047109Y-93914323D01*
X154083177Y-93875847D01*
X154157249Y-93799015D01*
X154233191Y-93721033D01*
X154296067Y-93712650D01*
X154311570Y-93711016D01*
X154327041Y-93709742D01*
X154342508Y-93708914D01*
X154358000Y-93708620D01*
X154373541Y-93708949D01*
X154389156Y-93709987D01*
X154404884Y-93711820D01*
X154420744Y-93714541D01*
X154436764Y-93718231D01*
X154452970Y-93722981D01*
X154469395Y-93728879D01*
X154486062Y-93736011D01*
X154412790Y-93821464D01*
X154341827Y-93905026D01*
X154306536Y-93945867D01*
X154271012Y-93985956D01*
X154234983Y-94025202D01*
X154198179Y-94063509D01*
X154146662Y-94117048D01*
X154122034Y-94144145D01*
X154098457Y-94171608D01*
X154076151Y-94199554D01*
X154055341Y-94228094D01*
X154036243Y-94257340D01*
X154019086Y-94287408D01*
X154004088Y-94318409D01*
X153991470Y-94350455D01*
X153986126Y-94366903D01*
X153981458Y-94383659D01*
X153977499Y-94400731D01*
X153974273Y-94418133D01*
X153971807Y-94435883D01*
X153970135Y-94453995D01*
X153969277Y-94472480D01*
X153969266Y-94491352D01*
X153970125Y-94510628D01*
X153971885Y-94530320D01*
X153974578Y-94550442D01*
X153978222Y-94571011D01*
X153979193Y-94576490D01*
X153979883Y-94581777D01*
X153980303Y-94586867D01*
X153980454Y-94591769D01*
X153980339Y-94596480D01*
X153979962Y-94601003D01*
X153979330Y-94605341D01*
X153978445Y-94609493D01*
X153977313Y-94613464D01*
X153975933Y-94617253D01*
X153974314Y-94620863D01*
X153972460Y-94624293D01*
X153970373Y-94627554D01*
X153968058Y-94630637D01*
X153965519Y-94633548D01*
X153962760Y-94636290D01*
X153959784Y-94638861D01*
X153956596Y-94641267D01*
X153953199Y-94643507D01*
X153949603Y-94645584D01*
X153945801Y-94647499D01*
X153941808Y-94649255D01*
X153937621Y-94650854D01*
X153933250Y-94652294D01*
X153923956Y-94654716D01*
X153913961Y-94656533D01*
X153903298Y-94657759D01*
X153891998Y-94658410D01*
X153870784Y-94658960D01*
X153851792Y-94659093D01*
X153834918Y-94658658D01*
X153820070Y-94657503D01*
X153813376Y-94656611D01*
X153807152Y-94655481D01*
X153801385Y-94654093D01*
X153796066Y-94652433D01*
X153791182Y-94650480D01*
X153786719Y-94648213D01*
X153782668Y-94645618D01*
X153779013Y-94642670D01*
X153775747Y-94639356D01*
X153772853Y-94635654D01*
X153770324Y-94631542D01*
X153768142Y-94627008D01*
X153766302Y-94622027D01*
X153764786Y-94616585D01*
X153763586Y-94610661D01*
X153762687Y-94604231D01*
X153762080Y-94597287D01*
X153761750Y-94589801D01*
X153761879Y-94573137D01*
X153762977Y-94554090D01*
X153764949Y-94532509D01*
X153767149Y-94503519D01*
X153767646Y-94475489D01*
X153766474Y-94448368D01*
X153763668Y-94422103D01*
X153759258Y-94396641D01*
X153753284Y-94371928D01*
X153745774Y-94347912D01*
X153736763Y-94324540D01*
X153726285Y-94301757D01*
X153714372Y-94279514D01*
X153701062Y-94257755D01*
X153686385Y-94236429D01*
X153670376Y-94215482D01*
X153653066Y-94194862D01*
X153634492Y-94174512D01*
X153614688Y-94154385D01*
X153572504Y-94111804D01*
X153531351Y-94068172D01*
X153491017Y-94023702D01*
X153451288Y-93978621D01*
X153294141Y-93796558D01*
X153290848Y-93792976D01*
X153287362Y-93789431D01*
X153280154Y-93782278D01*
X153276588Y-93778591D01*
X153273164Y-93774783D01*
X153269957Y-93770813D01*
X153267052Y-93766638D01*
X153265738Y-93764462D01*
X153264530Y-93762222D01*
X153263437Y-93759911D01*
X153262472Y-93757525D01*
X153261646Y-93755058D01*
X153260966Y-93752506D01*
X153260441Y-93749864D01*
X153260084Y-93747127D01*
X153259906Y-93744290D01*
X153259916Y-93741349D01*
X153260124Y-93738298D01*
X153260540Y-93735132D01*
X153261175Y-93731846D01*
X153262038Y-93728437D01*
X153263143Y-93724898D01*
X153264496Y-93721224D01*
X153287938Y-93716628D01*
X153311122Y-93712715D01*
X153334021Y-93709639D01*
X153356616Y-93707554D01*
X153378880Y-93706613D01*
X153400794Y-93706966D01*
G37*
G36*
X149825577Y-93709739D02*
G01*
X149833118Y-93709881D01*
X149840179Y-93710331D01*
X149846776Y-93711084D01*
X149852924Y-93712125D01*
X149858637Y-93713451D01*
X149863932Y-93715051D01*
X149868827Y-93716915D01*
X149873334Y-93719034D01*
X149877475Y-93721401D01*
X149881263Y-93724003D01*
X149884716Y-93726836D01*
X149887847Y-93729889D01*
X149890675Y-93733150D01*
X149893215Y-93736612D01*
X149895481Y-93740266D01*
X149897493Y-93744106D01*
X149899265Y-93748116D01*
X149900814Y-93752293D01*
X149903310Y-93761106D01*
X149905105Y-93770471D01*
X149906327Y-93780312D01*
X149907115Y-93790564D01*
X149907588Y-93801150D01*
X149908119Y-93823032D01*
X149908179Y-93834430D01*
X149907779Y-93845257D01*
X149906862Y-93855486D01*
X149905370Y-93865090D01*
X149904391Y-93869649D01*
X149903247Y-93874043D01*
X149901933Y-93878267D01*
X149900437Y-93882315D01*
X149898755Y-93886188D01*
X149896881Y-93889882D01*
X149894803Y-93893393D01*
X149892519Y-93896719D01*
X149890020Y-93899853D01*
X149887300Y-93902795D01*
X149884349Y-93905538D01*
X149881162Y-93908083D01*
X149877732Y-93910422D01*
X149874050Y-93912557D01*
X149870111Y-93914481D01*
X149865906Y-93916191D01*
X149861429Y-93917686D01*
X149856674Y-93918961D01*
X149851630Y-93920012D01*
X149846295Y-93920835D01*
X149840659Y-93921428D01*
X149834715Y-93921786D01*
X149828454Y-93921908D01*
X149821871Y-93921791D01*
X149795755Y-93921061D01*
X149769632Y-93920678D01*
X149717351Y-93920640D01*
X149612764Y-93921399D01*
X149564628Y-93921724D01*
X149545147Y-93922398D01*
X149528442Y-93923692D01*
X149521065Y-93924634D01*
X149514301Y-93925808D01*
X149508122Y-93927240D01*
X149502505Y-93928954D01*
X149497422Y-93930980D01*
X149492846Y-93933339D01*
X149488752Y-93936060D01*
X149485108Y-93939167D01*
X149481893Y-93942689D01*
X149479079Y-93946649D01*
X149476639Y-93951071D01*
X149474544Y-93955986D01*
X149472772Y-93961417D01*
X149471291Y-93967389D01*
X149470080Y-93973931D01*
X149469106Y-93981065D01*
X149467776Y-93997218D01*
X149467089Y-94016056D01*
X149466782Y-94062616D01*
X149466009Y-94308356D01*
X149466281Y-94431214D01*
X149468030Y-94554036D01*
X149468019Y-94567666D01*
X149467333Y-94580256D01*
X149466722Y-94586166D01*
X149465931Y-94591827D01*
X149464951Y-94597235D01*
X149463777Y-94602396D01*
X149462409Y-94607315D01*
X149460837Y-94611992D01*
X149459057Y-94616428D01*
X149457071Y-94620631D01*
X149454867Y-94624598D01*
X149452443Y-94628335D01*
X149449793Y-94631844D01*
X149446916Y-94635126D01*
X149443802Y-94638187D01*
X149440453Y-94641026D01*
X149436860Y-94643647D01*
X149433020Y-94646056D01*
X149428926Y-94648251D01*
X149424576Y-94650235D01*
X149419963Y-94652014D01*
X149415088Y-94653588D01*
X149409938Y-94654961D01*
X149404517Y-94656133D01*
X149398812Y-94657111D01*
X149392825Y-94657894D01*
X149386548Y-94658487D01*
X149379977Y-94658892D01*
X149365940Y-94659149D01*
X149352272Y-94658868D01*
X149339331Y-94658177D01*
X149327141Y-94656993D01*
X149315728Y-94655224D01*
X149310317Y-94654093D01*
X149305114Y-94652785D01*
X149300118Y-94651286D01*
X149295328Y-94649586D01*
X149290754Y-94647675D01*
X149286396Y-94645542D01*
X149282257Y-94643175D01*
X149278341Y-94640563D01*
X149274647Y-94637699D01*
X149271186Y-94634566D01*
X149267956Y-94631158D01*
X149264960Y-94627462D01*
X149262204Y-94623467D01*
X149259687Y-94619161D01*
X149257418Y-94614536D01*
X149255395Y-94609578D01*
X149253622Y-94604278D01*
X149252104Y-94598625D01*
X149250842Y-94592610D01*
X149249844Y-94586217D01*
X149249106Y-94579437D01*
X149248635Y-94572264D01*
X149248435Y-94564683D01*
X149248508Y-94556679D01*
X149250364Y-94446932D01*
X149250719Y-94337148D01*
X149249350Y-94117551D01*
X149249371Y-94047326D01*
X149249221Y-94019591D01*
X149248427Y-93996266D01*
X149246585Y-93976967D01*
X149245143Y-93968710D01*
X149243286Y-93961314D01*
X149240968Y-93954736D01*
X149238131Y-93948927D01*
X149234735Y-93943836D01*
X149230718Y-93939419D01*
X149226038Y-93935627D01*
X149220641Y-93932412D01*
X149214478Y-93929728D01*
X149207496Y-93927526D01*
X149199648Y-93925757D01*
X149190882Y-93924374D01*
X149170393Y-93922579D01*
X149145625Y-93921756D01*
X149116176Y-93921527D01*
X149041620Y-93921313D01*
X148959545Y-93920159D01*
X148921846Y-93919982D01*
X148903425Y-93920262D01*
X148885142Y-93920883D01*
X148878167Y-93921067D01*
X148871533Y-93920982D01*
X148865225Y-93920629D01*
X148859236Y-93920019D01*
X148853561Y-93919151D01*
X148848193Y-93918031D01*
X148843122Y-93916665D01*
X148838338Y-93915056D01*
X148833837Y-93913210D01*
X148829612Y-93911130D01*
X148825650Y-93908821D01*
X148821951Y-93906287D01*
X148818500Y-93903533D01*
X148815291Y-93900566D01*
X148812319Y-93897387D01*
X148809577Y-93894004D01*
X148807053Y-93890417D01*
X148804740Y-93886634D01*
X148802634Y-93882660D01*
X148800723Y-93878497D01*
X148799003Y-93874150D01*
X148797464Y-93869625D01*
X148794897Y-93860055D01*
X148792966Y-93849828D01*
X148791602Y-93838976D01*
X148790750Y-93827536D01*
X148790342Y-93815546D01*
X148790406Y-93803298D01*
X148791045Y-93791709D01*
X148792302Y-93780798D01*
X148793175Y-93775601D01*
X148794219Y-93770583D01*
X148795438Y-93765743D01*
X148796840Y-93761083D01*
X148798428Y-93756607D01*
X148800209Y-93752317D01*
X148802188Y-93748215D01*
X148804369Y-93744301D01*
X148806756Y-93740581D01*
X148809363Y-93737055D01*
X148812185Y-93733727D01*
X148815234Y-93730600D01*
X148818513Y-93727672D01*
X148822027Y-93724948D01*
X148825782Y-93722431D01*
X148829782Y-93720122D01*
X148834038Y-93718026D01*
X148838549Y-93716142D01*
X148843323Y-93714473D01*
X148848366Y-93713023D01*
X148853680Y-93711791D01*
X148859275Y-93710783D01*
X148865153Y-93709999D01*
X148871324Y-93709439D01*
X148877788Y-93709114D01*
X148884551Y-93709019D01*
X149825577Y-93709739D01*
G37*
G36*
X149694129Y-95255822D02*
G01*
X149693213Y-95265222D01*
X149691847Y-95274715D01*
X149690032Y-95284304D01*
X149687774Y-95294000D01*
X149685074Y-95303813D01*
X149678368Y-95323821D01*
X149669944Y-95344395D01*
X149661693Y-95361097D01*
X149652161Y-95377041D01*
X149641441Y-95392171D01*
X149629624Y-95406429D01*
X149616803Y-95419761D01*
X149603073Y-95432106D01*
X149588522Y-95443409D01*
X149573244Y-95453612D01*
X149557330Y-95462661D01*
X149540876Y-95470494D01*
X149523970Y-95477057D01*
X149506706Y-95482295D01*
X149489176Y-95486148D01*
X149471475Y-95488562D01*
X149453691Y-95489476D01*
X149444798Y-95489354D01*
X149435917Y-95488836D01*
X149426809Y-95487897D01*
X149417753Y-95486564D01*
X149408762Y-95484845D01*
X149399843Y-95482752D01*
X149391009Y-95480287D01*
X149382266Y-95477462D01*
X149373626Y-95474284D01*
X149365096Y-95470760D01*
X149348410Y-95462709D01*
X149332283Y-95453377D01*
X149316793Y-95442825D01*
X149302012Y-95431121D01*
X149288020Y-95418324D01*
X149274891Y-95404503D01*
X149262699Y-95389722D01*
X149251522Y-95374045D01*
X149241437Y-95357535D01*
X149232520Y-95340259D01*
X149228520Y-95331355D01*
X149224840Y-95322279D01*
X149221494Y-95313045D01*
X149218483Y-95303662D01*
X149215986Y-95294733D01*
X149213882Y-95285912D01*
X149212161Y-95277202D01*
X149210817Y-95268602D01*
X149209846Y-95260109D01*
X149209404Y-95254065D01*
X149360646Y-95254065D01*
X149360815Y-95258705D01*
X149361254Y-95263277D01*
X149361970Y-95267783D01*
X149362953Y-95272221D01*
X149364207Y-95276600D01*
X149365733Y-95280913D01*
X149367524Y-95285165D01*
X149369583Y-95289359D01*
X149371908Y-95293499D01*
X149374496Y-95297578D01*
X149377349Y-95301603D01*
X149380463Y-95305578D01*
X149383839Y-95309499D01*
X149387474Y-95313369D01*
X149391369Y-95317194D01*
X149395522Y-95320971D01*
X149399931Y-95324702D01*
X149406158Y-95329514D01*
X149412445Y-95333809D01*
X149418792Y-95337570D01*
X149425193Y-95340778D01*
X149431646Y-95343413D01*
X149434888Y-95344510D01*
X149438146Y-95345460D01*
X149441410Y-95346257D01*
X149444686Y-95346899D01*
X149447972Y-95347385D01*
X149451267Y-95347711D01*
X149454572Y-95347877D01*
X149457884Y-95347879D01*
X149461206Y-95347717D01*
X149464534Y-95347386D01*
X149467870Y-95346886D01*
X149471211Y-95346211D01*
X149474558Y-95345362D01*
X149477912Y-95344336D01*
X149481271Y-95343132D01*
X149484632Y-95341744D01*
X149488000Y-95340173D01*
X149491371Y-95338418D01*
X149494745Y-95336472D01*
X149498121Y-95334335D01*
X149501501Y-95332007D01*
X149504881Y-95329483D01*
X149511712Y-95323779D01*
X149517864Y-95317810D01*
X149523340Y-95311592D01*
X149525825Y-95308397D01*
X149528146Y-95305146D01*
X149530299Y-95301845D01*
X149532288Y-95298492D01*
X149534111Y-95295092D01*
X149535771Y-95291647D01*
X149537268Y-95288160D01*
X149538599Y-95284633D01*
X149540779Y-95277463D01*
X149542315Y-95270163D01*
X149543210Y-95262747D01*
X149543475Y-95255238D01*
X149543108Y-95247653D01*
X149542118Y-95240010D01*
X149540511Y-95232330D01*
X149538290Y-95224631D01*
X149535459Y-95216934D01*
X149532711Y-95210531D01*
X149529826Y-95204485D01*
X149526808Y-95198793D01*
X149523658Y-95193448D01*
X149520378Y-95188450D01*
X149516973Y-95183798D01*
X149513444Y-95179484D01*
X149509789Y-95175513D01*
X149506017Y-95171878D01*
X149502127Y-95168576D01*
X149498122Y-95165606D01*
X149494005Y-95162962D01*
X149489779Y-95160648D01*
X149485442Y-95158656D01*
X149481002Y-95156987D01*
X149476458Y-95155636D01*
X149471815Y-95154598D01*
X149467069Y-95153874D01*
X149462233Y-95153463D01*
X149457302Y-95153359D01*
X149452276Y-95153560D01*
X149447166Y-95154063D01*
X149441966Y-95154869D01*
X149436684Y-95155971D01*
X149431321Y-95157367D01*
X149425875Y-95159057D01*
X149420356Y-95161038D01*
X149414761Y-95163304D01*
X149403358Y-95168689D01*
X149391685Y-95175193D01*
X149387618Y-95181046D01*
X149383843Y-95186807D01*
X149380355Y-95192477D01*
X149377156Y-95198062D01*
X149374246Y-95203558D01*
X149371617Y-95208966D01*
X149369275Y-95214291D01*
X149367216Y-95219534D01*
X149365438Y-95224699D01*
X149363945Y-95229781D01*
X149362728Y-95234787D01*
X149361791Y-95239716D01*
X149361133Y-95244572D01*
X149360751Y-95249352D01*
X149360646Y-95254065D01*
X149209404Y-95254065D01*
X149209233Y-95251723D01*
X149208977Y-95243445D01*
X149209065Y-95235275D01*
X149209492Y-95227208D01*
X149210252Y-95219247D01*
X149211333Y-95211390D01*
X149212731Y-95203634D01*
X149214437Y-95195984D01*
X149216443Y-95188434D01*
X149218744Y-95180989D01*
X149221326Y-95173640D01*
X149224187Y-95166392D01*
X149227319Y-95159246D01*
X149234360Y-95145245D01*
X149242390Y-95131633D01*
X149251342Y-95118405D01*
X149261161Y-95105553D01*
X149271782Y-95093076D01*
X149283143Y-95080963D01*
X149295187Y-95069211D01*
X149310993Y-95055467D01*
X149327123Y-95043505D01*
X149335307Y-95038180D01*
X149343568Y-95033286D01*
X149351909Y-95028823D01*
X149360324Y-95024783D01*
X149368815Y-95021164D01*
X149377384Y-95017961D01*
X149386022Y-95015170D01*
X149394734Y-95012784D01*
X149412374Y-95009225D01*
X149430295Y-95007247D01*
X149448490Y-95006818D01*
X149466950Y-95007904D01*
X149485667Y-95010474D01*
X149504638Y-95014497D01*
X149523854Y-95019934D01*
X149543306Y-95026756D01*
X149562989Y-95034930D01*
X149582893Y-95044424D01*
X149603160Y-95063776D01*
X149621323Y-95082724D01*
X149637410Y-95101336D01*
X149651445Y-95119684D01*
X149657703Y-95128779D01*
X149663457Y-95137835D01*
X149668713Y-95146857D01*
X149673475Y-95155857D01*
X149677743Y-95164845D01*
X149681523Y-95173824D01*
X149684818Y-95182807D01*
X149687632Y-95191801D01*
X149689967Y-95200817D01*
X149691828Y-95209862D01*
X149693218Y-95218943D01*
X149694138Y-95228072D01*
X149694596Y-95237255D01*
X149694593Y-95246502D01*
X149694158Y-95255238D01*
X149694129Y-95255822D01*
G37*
G36*
X141842418Y-93706902D02*
G01*
X141852053Y-93707475D01*
X141871028Y-93708820D01*
X141880143Y-93709297D01*
X141888869Y-93709437D01*
X142250315Y-93708037D01*
X142619475Y-93708158D01*
X142648917Y-93708786D01*
X142675477Y-93709543D01*
X142687967Y-93709795D01*
X142700088Y-93709867D01*
X142711950Y-93709691D01*
X142723676Y-93709197D01*
X142731357Y-93708897D01*
X142738608Y-93708913D01*
X142745444Y-93709236D01*
X142751877Y-93709858D01*
X142757919Y-93710776D01*
X142763581Y-93711982D01*
X142768874Y-93713467D01*
X142773815Y-93715227D01*
X142778411Y-93717256D01*
X142782677Y-93719544D01*
X142786622Y-93722085D01*
X142790265Y-93724878D01*
X142793610Y-93727910D01*
X142796674Y-93731177D01*
X142799470Y-93734669D01*
X142802009Y-93738385D01*
X142804300Y-93742317D01*
X142806356Y-93746457D01*
X142808195Y-93750797D01*
X142809824Y-93755333D01*
X142812505Y-93764963D01*
X142814496Y-93775292D01*
X142815895Y-93786267D01*
X142816800Y-93797839D01*
X142817309Y-93809953D01*
X142817519Y-93822556D01*
X142817318Y-93835409D01*
X142816490Y-93847331D01*
X142815836Y-93852945D01*
X142815008Y-93858330D01*
X142814010Y-93863487D01*
X142812836Y-93868418D01*
X142811478Y-93873123D01*
X142809939Y-93877605D01*
X142808210Y-93881865D01*
X142806288Y-93885902D01*
X142804165Y-93889721D01*
X142801841Y-93893320D01*
X142799314Y-93896706D01*
X142796573Y-93899872D01*
X142793620Y-93902826D01*
X142790447Y-93905564D01*
X142787052Y-93908094D01*
X142783429Y-93910412D01*
X142779577Y-93912520D01*
X142775486Y-93914421D01*
X142771158Y-93916117D01*
X142766586Y-93917606D01*
X142761764Y-93918893D01*
X142756693Y-93919979D01*
X142751362Y-93920860D01*
X142745773Y-93921543D01*
X142739918Y-93922027D01*
X142733793Y-93922315D01*
X142720724Y-93922308D01*
X142642461Y-93920686D01*
X142564159Y-93920281D01*
X142485848Y-93920948D01*
X142407571Y-93922556D01*
X142379804Y-93922562D01*
X142351737Y-93921639D01*
X142323268Y-93920539D01*
X142294287Y-93920003D01*
X142279576Y-93920179D01*
X142264697Y-93920776D01*
X142249637Y-93921888D01*
X142234385Y-93923608D01*
X142218929Y-93926027D01*
X142203253Y-93929239D01*
X142187345Y-93933338D01*
X142171193Y-93938418D01*
X142292553Y-94039440D01*
X142349626Y-94086778D01*
X142405884Y-94132945D01*
X142588077Y-94281146D01*
X142679520Y-94354813D01*
X142771426Y-94427891D01*
X142777267Y-94432740D01*
X142782620Y-94437683D01*
X142787510Y-94442720D01*
X142791955Y-94447843D01*
X142795974Y-94453054D01*
X142799583Y-94458340D01*
X142802804Y-94463706D01*
X142805655Y-94469143D01*
X142808153Y-94474646D01*
X142810318Y-94480216D01*
X142812169Y-94485844D01*
X142813728Y-94491528D01*
X142816034Y-94503054D01*
X142817384Y-94514756D01*
X142817937Y-94526604D01*
X142817832Y-94538571D01*
X142817230Y-94550617D01*
X142816277Y-94562718D01*
X142813924Y-94586951D01*
X142811982Y-94611016D01*
X142811609Y-94615431D01*
X142811009Y-94619551D01*
X142810191Y-94623391D01*
X142809164Y-94626956D01*
X142807933Y-94630260D01*
X142806517Y-94633311D01*
X142804914Y-94636123D01*
X142803140Y-94638698D01*
X142801201Y-94641053D01*
X142799107Y-94643194D01*
X142796869Y-94645134D01*
X142794494Y-94646883D01*
X142791990Y-94648446D01*
X142789368Y-94649839D01*
X142786638Y-94651071D01*
X142783805Y-94652146D01*
X142777878Y-94653890D01*
X142771661Y-94655143D01*
X142765225Y-94655989D01*
X142758643Y-94656506D01*
X142751988Y-94656778D01*
X142745332Y-94656883D01*
X142732314Y-94656915D01*
X142294443Y-94658185D01*
X142075514Y-94659142D01*
X141856606Y-94661441D01*
X141848644Y-94661438D01*
X141841102Y-94661195D01*
X141833965Y-94660711D01*
X141827224Y-94659983D01*
X141820865Y-94659017D01*
X141814880Y-94657811D01*
X141809260Y-94656368D01*
X141803989Y-94654691D01*
X141799056Y-94652777D01*
X141794458Y-94650631D01*
X141790173Y-94648252D01*
X141786200Y-94645642D01*
X141782518Y-94642802D01*
X141779123Y-94639734D01*
X141776005Y-94636439D01*
X141773147Y-94632917D01*
X141770544Y-94629172D01*
X141768180Y-94625203D01*
X141766049Y-94621012D01*
X141764133Y-94616599D01*
X141762429Y-94611965D01*
X141760921Y-94607113D01*
X141758451Y-94596763D01*
X141756641Y-94585547D01*
X141755398Y-94573484D01*
X141754636Y-94560582D01*
X141754268Y-94546850D01*
X141754294Y-94538863D01*
X141754602Y-94531343D01*
X141755186Y-94524273D01*
X141756035Y-94517642D01*
X141757153Y-94511434D01*
X141758528Y-94505640D01*
X141760156Y-94500240D01*
X141762035Y-94495225D01*
X141764156Y-94490576D01*
X141766510Y-94486284D01*
X141769098Y-94482334D01*
X141771912Y-94478713D01*
X141774946Y-94475405D01*
X141778194Y-94472401D01*
X141781650Y-94469680D01*
X141785309Y-94467236D01*
X141789168Y-94465049D01*
X141793218Y-94463108D01*
X141797455Y-94461399D01*
X141801872Y-94459909D01*
X141811228Y-94457531D01*
X141821243Y-94455859D01*
X141831870Y-94454789D01*
X141843066Y-94454206D01*
X141854785Y-94454004D01*
X141866983Y-94454072D01*
X141976594Y-94455123D01*
X142086213Y-94455388D01*
X142195831Y-94454918D01*
X142305440Y-94453766D01*
X142312097Y-94453824D01*
X142318855Y-94454113D01*
X142332599Y-94455019D01*
X142346550Y-94455758D01*
X142353567Y-94455839D01*
X142360595Y-94455608D01*
X142367613Y-94454969D01*
X142374609Y-94453837D01*
X142378095Y-94453058D01*
X142381569Y-94452120D01*
X142385033Y-94451011D01*
X142388480Y-94449723D01*
X142391912Y-94448243D01*
X142395325Y-94446558D01*
X142398717Y-94444661D01*
X142402091Y-94442536D01*
X142405437Y-94440176D01*
X142408760Y-94437565D01*
X142412053Y-94434694D01*
X142415319Y-94431551D01*
X142409007Y-94425812D01*
X142402902Y-94420171D01*
X142391105Y-94409229D01*
X142385316Y-94403949D01*
X142379532Y-94398815D01*
X142373706Y-94393837D01*
X142367789Y-94389026D01*
X142089692Y-94168681D01*
X141950205Y-94059082D01*
X141809821Y-93950654D01*
X141803129Y-93945303D01*
X141796930Y-93939846D01*
X141791208Y-93934291D01*
X141785947Y-93928643D01*
X141781139Y-93922907D01*
X141776757Y-93917087D01*
X141772791Y-93911189D01*
X141769226Y-93905215D01*
X141766046Y-93899169D01*
X141763233Y-93893059D01*
X141760775Y-93886889D01*
X141758656Y-93880663D01*
X141756858Y-93874383D01*
X141755369Y-93868056D01*
X141753247Y-93855283D01*
X141752166Y-93842376D01*
X141752004Y-93829373D01*
X141752636Y-93816312D01*
X141753939Y-93803231D01*
X141755785Y-93790164D01*
X141758053Y-93777149D01*
X141763361Y-93751425D01*
X141764784Y-93745867D01*
X141766504Y-93740770D01*
X141768508Y-93736116D01*
X141770783Y-93731889D01*
X141773314Y-93728067D01*
X141776090Y-93724630D01*
X141779093Y-93721561D01*
X141782314Y-93718843D01*
X141785733Y-93716455D01*
X141789347Y-93714375D01*
X141793133Y-93712592D01*
X141797077Y-93711081D01*
X141801172Y-93709825D01*
X141805402Y-93708806D01*
X141814207Y-93707399D01*
X141823382Y-93706716D01*
X141832822Y-93706600D01*
X141842418Y-93706902D01*
G37*
G36*
X149669243Y-90509330D02*
G01*
X149778975Y-90509878D01*
X149998448Y-90509641D01*
X150010313Y-90509954D01*
X150015922Y-90510375D01*
X150021320Y-90510972D01*
X150026505Y-90511750D01*
X150031479Y-90512710D01*
X150036246Y-90513849D01*
X150040804Y-90515173D01*
X150045155Y-90516683D01*
X150049303Y-90518374D01*
X150053243Y-90520259D01*
X150056984Y-90522328D01*
X150060522Y-90524588D01*
X150063861Y-90527038D01*
X150067000Y-90529682D01*
X150069941Y-90532519D01*
X150072686Y-90535552D01*
X150075235Y-90538780D01*
X150077591Y-90542206D01*
X150079756Y-90545832D01*
X150081728Y-90549656D01*
X150083509Y-90553683D01*
X150085104Y-90557913D01*
X150086510Y-90562346D01*
X150087731Y-90566985D01*
X150088765Y-90571833D01*
X150089617Y-90576886D01*
X150090285Y-90582151D01*
X150090772Y-90587623D01*
X150091080Y-90593311D01*
X150091161Y-90605320D01*
X150090099Y-90686291D01*
X150090081Y-90767288D01*
X150090791Y-90929289D01*
X150092597Y-93040424D01*
X150092346Y-93057295D01*
X150091410Y-93072962D01*
X150089717Y-93087427D01*
X150088567Y-93094213D01*
X150087201Y-93100699D01*
X150085614Y-93106888D01*
X150083795Y-93112780D01*
X150081735Y-93118375D01*
X150079428Y-93123673D01*
X150076861Y-93128676D01*
X150074033Y-93133384D01*
X150070924Y-93137796D01*
X150067539Y-93141916D01*
X150063859Y-93145739D01*
X150059880Y-93149272D01*
X150055589Y-93152510D01*
X150050984Y-93155457D01*
X150046052Y-93158113D01*
X150040788Y-93160475D01*
X150035180Y-93162549D01*
X150029223Y-93164331D01*
X150022902Y-93165826D01*
X150016215Y-93167028D01*
X150009151Y-93167946D01*
X150001699Y-93168573D01*
X149993854Y-93168912D01*
X149985609Y-93168966D01*
X149976951Y-93168732D01*
X149967873Y-93168212D01*
X149931447Y-93166208D01*
X149894947Y-93165225D01*
X149858395Y-93165017D01*
X149821805Y-93165340D01*
X149748567Y-93166606D01*
X149711952Y-93167060D01*
X149675362Y-93167071D01*
X149591954Y-93167052D01*
X149559481Y-93166920D01*
X149532489Y-93166088D01*
X149510477Y-93164097D01*
X149501184Y-93162522D01*
X149492946Y-93160483D01*
X149485705Y-93157922D01*
X149479395Y-93154781D01*
X149473954Y-93151005D01*
X149469320Y-93146533D01*
X149465428Y-93141307D01*
X149462217Y-93135271D01*
X149459625Y-93128370D01*
X149457587Y-93120542D01*
X149456045Y-93111728D01*
X149454932Y-93101872D01*
X149453741Y-93078809D01*
X149453645Y-92933324D01*
X149453491Y-92920727D01*
X149453111Y-92908936D01*
X149452257Y-92887408D01*
X149452077Y-92877480D01*
X149452109Y-92872683D01*
X149452252Y-92867984D01*
X149452519Y-92863370D01*
X149452928Y-92858827D01*
X149453501Y-92854348D01*
X149454252Y-92849916D01*
X149458121Y-92827944D01*
X149461216Y-92806348D01*
X149463540Y-92785127D01*
X149465091Y-92764278D01*
X149465877Y-92743800D01*
X149465899Y-92723691D01*
X149465157Y-92703945D01*
X149463656Y-92684565D01*
X149461397Y-92665550D01*
X149458383Y-92646893D01*
X149454615Y-92628593D01*
X149450097Y-92610651D01*
X149444832Y-92593060D01*
X149438823Y-92575823D01*
X149432069Y-92558935D01*
X149424572Y-92542393D01*
X149416341Y-92526198D01*
X149407372Y-92510345D01*
X149397670Y-92494834D01*
X149387239Y-92479664D01*
X149376078Y-92464829D01*
X149364189Y-92450331D01*
X149351581Y-92436165D01*
X149338247Y-92422329D01*
X149324197Y-92408824D01*
X149309432Y-92395643D01*
X149293950Y-92382787D01*
X149277758Y-92370255D01*
X149260858Y-92358040D01*
X149243248Y-92346147D01*
X149224938Y-92334568D01*
X149205923Y-92323305D01*
X149197608Y-92318377D01*
X149189398Y-92313212D01*
X149181296Y-92307820D01*
X149173298Y-92302216D01*
X149165408Y-92296414D01*
X149157622Y-92290429D01*
X149149942Y-92284275D01*
X149142365Y-92277964D01*
X149134893Y-92271515D01*
X149127527Y-92264938D01*
X149113103Y-92251464D01*
X149099091Y-92237656D01*
X149085490Y-92223629D01*
X149071595Y-92209763D01*
X149064788Y-92203557D01*
X149058068Y-92197832D01*
X149051424Y-92192588D01*
X149044850Y-92187826D01*
X149038340Y-92183544D01*
X149031883Y-92179739D01*
X149025472Y-92176414D01*
X149019103Y-92173567D01*
X149012762Y-92171194D01*
X149006447Y-92169298D01*
X149000151Y-92167877D01*
X148993862Y-92166927D01*
X148987575Y-92166452D01*
X148981282Y-92166447D01*
X148974976Y-92166914D01*
X148968651Y-92167852D01*
X148962294Y-92169260D01*
X148955904Y-92171135D01*
X148949470Y-92173476D01*
X148942983Y-92176286D01*
X148936441Y-92179561D01*
X148929830Y-92183300D01*
X148923145Y-92187501D01*
X148916381Y-92192170D01*
X148909528Y-92197296D01*
X148902577Y-92202888D01*
X148888360Y-92215446D01*
X148873666Y-92229839D01*
X148656860Y-92448932D01*
X148438015Y-92666032D01*
X147999233Y-93099187D01*
X147990880Y-93107253D01*
X147982459Y-93114865D01*
X147973949Y-93122011D01*
X147965320Y-93128679D01*
X147956547Y-93134862D01*
X147947606Y-93140549D01*
X147938476Y-93145727D01*
X147929124Y-93150391D01*
X147919527Y-93154525D01*
X147909662Y-93158125D01*
X147899502Y-93161176D01*
X147889020Y-93163666D01*
X147878195Y-93165591D01*
X147866996Y-93166934D01*
X147855402Y-93167693D01*
X147843383Y-93167849D01*
X147673570Y-93166672D01*
X147503740Y-93166599D01*
X147164079Y-93166348D01*
X147158042Y-93166463D01*
X147151851Y-93166802D01*
X147139112Y-93167648D01*
X147132621Y-93167906D01*
X147126085Y-93167891D01*
X147119535Y-93167478D01*
X147116261Y-93167085D01*
X147112993Y-93166543D01*
X147109736Y-93165845D01*
X147106493Y-93164967D01*
X147103265Y-93163895D01*
X147100055Y-93162618D01*
X147096874Y-93161117D01*
X147093716Y-93159377D01*
X147090590Y-93157385D01*
X147087497Y-93155122D01*
X147084441Y-93152574D01*
X147081427Y-93149726D01*
X147078457Y-93146561D01*
X147075534Y-93143064D01*
X147072665Y-93139221D01*
X147069846Y-93135015D01*
X147067089Y-93130432D01*
X147064393Y-93125456D01*
X147239470Y-92952772D01*
X147416628Y-92781552D01*
X147775808Y-92441401D01*
X148139150Y-92100813D01*
X148503878Y-91755594D01*
X147019613Y-90548665D01*
X147021868Y-90545479D01*
X147024113Y-90542478D01*
X147026342Y-90539655D01*
X147028554Y-90537000D01*
X147030755Y-90534517D01*
X147032941Y-90532191D01*
X147035114Y-90530023D01*
X147037272Y-90528005D01*
X147039419Y-90526132D01*
X147041554Y-90524400D01*
X147043674Y-90522800D01*
X147045785Y-90521331D01*
X147047882Y-90519984D01*
X147049968Y-90518759D01*
X147052042Y-90517643D01*
X147054106Y-90516639D01*
X147056161Y-90515736D01*
X147058203Y-90514926D01*
X147062261Y-90513584D01*
X147066279Y-90512563D01*
X147070263Y-90511824D01*
X147074211Y-90511324D01*
X147078130Y-90511018D01*
X147082021Y-90510865D01*
X147085885Y-90510825D01*
X147827829Y-90511924D01*
X147835984Y-90512202D01*
X147843926Y-90512966D01*
X147851676Y-90514193D01*
X147859241Y-90515858D01*
X147866632Y-90517939D01*
X147873863Y-90520409D01*
X147880945Y-90523247D01*
X147887889Y-90526424D01*
X147894707Y-90529927D01*
X147901414Y-90533723D01*
X147908014Y-90537791D01*
X147914528Y-90542107D01*
X147920962Y-90546648D01*
X147927329Y-90551387D01*
X147933642Y-90556306D01*
X147939912Y-90561377D01*
X149345246Y-91714329D01*
X149350409Y-91718732D01*
X149355523Y-91723360D01*
X149365781Y-91732902D01*
X149371017Y-91737628D01*
X149376381Y-91742198D01*
X149381923Y-91746516D01*
X149387682Y-91750485D01*
X149393708Y-91754012D01*
X149396834Y-91755580D01*
X149400043Y-91757001D01*
X149403341Y-91758265D01*
X149406735Y-91759358D01*
X149410227Y-91760268D01*
X149413825Y-91760987D01*
X149417535Y-91761500D01*
X149421360Y-91761794D01*
X149425312Y-91761857D01*
X149429388Y-91761680D01*
X149433600Y-91761251D01*
X149437951Y-91760555D01*
X149442445Y-91759583D01*
X149447093Y-91758322D01*
X149447967Y-91749462D01*
X149448945Y-91740597D01*
X149450945Y-91722859D01*
X149451829Y-91713983D01*
X149452550Y-91705109D01*
X149453035Y-91696232D01*
X149453220Y-91687355D01*
X149454116Y-91154339D01*
X149452099Y-90621346D01*
X149452300Y-90606685D01*
X149453214Y-90593124D01*
X149453952Y-90586752D01*
X149454881Y-90580645D01*
X149456004Y-90574805D01*
X149457326Y-90569228D01*
X149458853Y-90563911D01*
X149460588Y-90558854D01*
X149462534Y-90554052D01*
X149464694Y-90549503D01*
X149467077Y-90545205D01*
X149469683Y-90541157D01*
X149472515Y-90537353D01*
X149475580Y-90533797D01*
X149478881Y-90530478D01*
X149482425Y-90527399D01*
X149486209Y-90524556D01*
X149490245Y-90521948D01*
X149494532Y-90519576D01*
X149499077Y-90517427D01*
X149503882Y-90515508D01*
X149508949Y-90513813D01*
X149514287Y-90512338D01*
X149519898Y-90511087D01*
X149525785Y-90510053D01*
X149531954Y-90509233D01*
X149538408Y-90508625D01*
X149545150Y-90508226D01*
X149559521Y-90508053D01*
X149669243Y-90509330D01*
G37*
G36*
X144140630Y-93706292D02*
G01*
X144147966Y-93706987D01*
X144155260Y-93707981D01*
X144162506Y-93709289D01*
X144169705Y-93710934D01*
X144176849Y-93712931D01*
X144183937Y-93715297D01*
X144190967Y-93718052D01*
X144197931Y-93721216D01*
X144204828Y-93724802D01*
X144211656Y-93728831D01*
X144218413Y-93733319D01*
X144225089Y-93738288D01*
X144231688Y-93743753D01*
X144238202Y-93749730D01*
X144244629Y-93756242D01*
X144250967Y-93763303D01*
X144294556Y-93813578D01*
X144338610Y-93863463D01*
X144427278Y-93962754D01*
X144515300Y-94062560D01*
X144558544Y-94113086D01*
X144601002Y-94164260D01*
X144606294Y-94170592D01*
X144611498Y-94176478D01*
X144616616Y-94181917D01*
X144621651Y-94186918D01*
X144626611Y-94191483D01*
X144631493Y-94195615D01*
X144636310Y-94199320D01*
X144641064Y-94202599D01*
X144645759Y-94205461D01*
X144650397Y-94207901D01*
X144654986Y-94209930D01*
X144659531Y-94211553D01*
X144664033Y-94212769D01*
X144668500Y-94213585D01*
X144672937Y-94214000D01*
X144677344Y-94214023D01*
X144681730Y-94213658D01*
X144686097Y-94212906D01*
X144690451Y-94211773D01*
X144694798Y-94210261D01*
X144699139Y-94208373D01*
X144703480Y-94206118D01*
X144707825Y-94203496D01*
X144712182Y-94200511D01*
X144716551Y-94197169D01*
X144720940Y-94193470D01*
X144725350Y-94189421D01*
X144729790Y-94185023D01*
X144734261Y-94180284D01*
X144738770Y-94175204D01*
X144747915Y-94164047D01*
X144755199Y-94154844D01*
X144762592Y-94145722D01*
X144770079Y-94136673D01*
X144777650Y-94127690D01*
X144792987Y-94109886D01*
X144808501Y-94092248D01*
X145106498Y-93756683D01*
X145111663Y-93751118D01*
X145116921Y-93745971D01*
X145122266Y-93741228D01*
X145127698Y-93736875D01*
X145133211Y-93732892D01*
X145138802Y-93729272D01*
X145144467Y-93726000D01*
X145150207Y-93723053D01*
X145156012Y-93720428D01*
X145161885Y-93718104D01*
X145173813Y-93714305D01*
X145185961Y-93711546D01*
X145198305Y-93709707D01*
X145210818Y-93708675D01*
X145223471Y-93708337D01*
X145236240Y-93708578D01*
X145249096Y-93709277D01*
X145274973Y-93711603D01*
X145300885Y-93714397D01*
X145303924Y-93714786D01*
X145306847Y-93715292D01*
X145309653Y-93715919D01*
X145312346Y-93716660D01*
X145314925Y-93717515D01*
X145317394Y-93718480D01*
X145319752Y-93719551D01*
X145322001Y-93720730D01*
X145324142Y-93722011D01*
X145326180Y-93723389D01*
X145328109Y-93724870D01*
X145329936Y-93726441D01*
X145331660Y-93728106D01*
X145333285Y-93729861D01*
X145334808Y-93731703D01*
X145336236Y-93733632D01*
X145337565Y-93735638D01*
X145338799Y-93737728D01*
X145339937Y-93739892D01*
X145340984Y-93742130D01*
X145342804Y-93746822D01*
X145344268Y-93751777D01*
X145345389Y-93756979D01*
X145346175Y-93762404D01*
X145346637Y-93768036D01*
X145346786Y-93773848D01*
X145347233Y-94186276D01*
X145346754Y-94392479D01*
X145344727Y-94598659D01*
X145344372Y-94606752D01*
X145343574Y-94614126D01*
X145342352Y-94620816D01*
X145340726Y-94626853D01*
X145338719Y-94632266D01*
X145336352Y-94637090D01*
X145333642Y-94641355D01*
X145330613Y-94645096D01*
X145327283Y-94648341D01*
X145323675Y-94651126D01*
X145319805Y-94653480D01*
X145315699Y-94655437D01*
X145311379Y-94657025D01*
X145306859Y-94658281D01*
X145302161Y-94659231D01*
X145297309Y-94659913D01*
X145287222Y-94660592D01*
X145276757Y-94660573D01*
X145255361Y-94659455D01*
X145244757Y-94658870D01*
X145234437Y-94658608D01*
X145224565Y-94658925D01*
X145219849Y-94659380D01*
X145215304Y-94660074D01*
X145210779Y-94660830D01*
X145206351Y-94661402D01*
X145202023Y-94661787D01*
X145197800Y-94661989D01*
X145193687Y-94662003D01*
X145189685Y-94661834D01*
X145185799Y-94661474D01*
X145182037Y-94660932D01*
X145178395Y-94660198D01*
X145174884Y-94659279D01*
X145171501Y-94658169D01*
X145168257Y-94656872D01*
X145165151Y-94655386D01*
X145162190Y-94653710D01*
X145159375Y-94651843D01*
X145156711Y-94649788D01*
X145154202Y-94647541D01*
X145151852Y-94645103D01*
X145149665Y-94642474D01*
X145147642Y-94639652D01*
X145145792Y-94636638D01*
X145144116Y-94633432D01*
X145142616Y-94630032D01*
X145141299Y-94626439D01*
X145140168Y-94622652D01*
X145139225Y-94618670D01*
X145138474Y-94614495D01*
X145137923Y-94610122D01*
X145137572Y-94605557D01*
X145137427Y-94600796D01*
X145137489Y-94595836D01*
X145137763Y-94590678D01*
X145138679Y-94575079D01*
X145139195Y-94559483D01*
X145139279Y-94528309D01*
X145138510Y-94497134D01*
X145137385Y-94465942D01*
X145136393Y-94434713D01*
X145136036Y-94403430D01*
X145136245Y-94387763D01*
X145136801Y-94372073D01*
X145137760Y-94356361D01*
X145139185Y-94340624D01*
X145142155Y-94310761D01*
X145144472Y-94280533D01*
X145145734Y-94249868D01*
X145145847Y-94234351D01*
X145145550Y-94218701D01*
X145144794Y-94202905D01*
X145143527Y-94186959D01*
X145141701Y-94170855D01*
X145139267Y-94154581D01*
X145136175Y-94138130D01*
X145132378Y-94121494D01*
X145127821Y-94104666D01*
X145122460Y-94087636D01*
X145042190Y-94172096D01*
X144965431Y-94253393D01*
X144847914Y-94381061D01*
X144791117Y-94443381D01*
X144763259Y-94474609D01*
X144735778Y-94506051D01*
X144731875Y-94510455D01*
X144728008Y-94514589D01*
X144724174Y-94518451D01*
X144720371Y-94522040D01*
X144716594Y-94525356D01*
X144712844Y-94528400D01*
X144709118Y-94531165D01*
X144705411Y-94533659D01*
X144701724Y-94535873D01*
X144698053Y-94537814D01*
X144694393Y-94539475D01*
X144690745Y-94540857D01*
X144687109Y-94541961D01*
X144683476Y-94542785D01*
X144679845Y-94543329D01*
X144676221Y-94543593D01*
X144672592Y-94543572D01*
X144668960Y-94543272D01*
X144665321Y-94542688D01*
X144661676Y-94541819D01*
X144658017Y-94540666D01*
X144654346Y-94539226D01*
X144650661Y-94537501D01*
X144646956Y-94535489D01*
X144643231Y-94533190D01*
X144639481Y-94530602D01*
X144635709Y-94527724D01*
X144631906Y-94524558D01*
X144628074Y-94521102D01*
X144624207Y-94517353D01*
X144620308Y-94513313D01*
X144616369Y-94508980D01*
X144574666Y-94462272D01*
X144532541Y-94415937D01*
X144490085Y-94369902D01*
X144447385Y-94324096D01*
X144421540Y-94295960D01*
X144395763Y-94267333D01*
X144369531Y-94238389D01*
X144342310Y-94209294D01*
X144328165Y-94194745D01*
X144313576Y-94180220D01*
X144298475Y-94165748D01*
X144282796Y-94151339D01*
X144266476Y-94137024D01*
X144249446Y-94122821D01*
X144231642Y-94108749D01*
X144212996Y-94094832D01*
X144212303Y-94337124D01*
X144212433Y-94451098D01*
X144213761Y-94563002D01*
X144213759Y-94571456D01*
X144213414Y-94579386D01*
X144212740Y-94586812D01*
X144211746Y-94593746D01*
X144210440Y-94600206D01*
X144208832Y-94606212D01*
X144206928Y-94611781D01*
X144204739Y-94616926D01*
X144202273Y-94621667D01*
X144199539Y-94626024D01*
X144196549Y-94630009D01*
X144193306Y-94633642D01*
X144189822Y-94636938D01*
X144186106Y-94639916D01*
X144182169Y-94642596D01*
X144178016Y-94644990D01*
X144173658Y-94647115D01*
X144169106Y-94648990D01*
X144164363Y-94650636D01*
X144159440Y-94652064D01*
X144149100Y-94654342D01*
X144138149Y-94655966D01*
X144126663Y-94657069D01*
X144114707Y-94657791D01*
X144089685Y-94658637D01*
X144076659Y-94658670D01*
X144064714Y-94657982D01*
X144059137Y-94657362D01*
X144053818Y-94656555D01*
X144048751Y-94655559D01*
X144043936Y-94654369D01*
X144039366Y-94652985D01*
X144035035Y-94651399D01*
X144030943Y-94649615D01*
X144027083Y-94647629D01*
X144023451Y-94645435D01*
X144020045Y-94643033D01*
X144016858Y-94640420D01*
X144013889Y-94637592D01*
X144011130Y-94634548D01*
X144008580Y-94631284D01*
X144006234Y-94627799D01*
X144004087Y-94624090D01*
X144002136Y-94620151D01*
X144000374Y-94615985D01*
X143998801Y-94611584D01*
X143997411Y-94606950D01*
X143996200Y-94602076D01*
X143995162Y-94596962D01*
X143994296Y-94591607D01*
X143993594Y-94586004D01*
X143992677Y-94574051D01*
X143992373Y-94561082D01*
X143991380Y-94373319D01*
X143989149Y-94185559D01*
X143984158Y-93810029D01*
X143983907Y-93796840D01*
X143983801Y-93789998D01*
X143983806Y-93783091D01*
X143984002Y-93776186D01*
X143984463Y-93769355D01*
X143985264Y-93762675D01*
X143985813Y-93759414D01*
X143986478Y-93756214D01*
X143987267Y-93753089D01*
X143988187Y-93750047D01*
X143989247Y-93747093D01*
X143990460Y-93744242D01*
X143991832Y-93741497D01*
X143993374Y-93738873D01*
X143995096Y-93736374D01*
X143997007Y-93734013D01*
X143999116Y-93731795D01*
X144001432Y-93729733D01*
X144003966Y-93727833D01*
X144006727Y-93726103D01*
X144009722Y-93724557D01*
X144012964Y-93723201D01*
X144016460Y-93722045D01*
X144020219Y-93721094D01*
X144050502Y-93714690D01*
X144065670Y-93711807D01*
X144080812Y-93709322D01*
X144095906Y-93707386D01*
X144110926Y-93706139D01*
X144125843Y-93705726D01*
X144140630Y-93706292D01*
G37*
G36*
X140820476Y-91306159D02*
G01*
X140863439Y-91347299D01*
X140905762Y-91389674D01*
X140947807Y-91433122D01*
X140989949Y-91477491D01*
X141075989Y-91568334D01*
X141056895Y-91576451D01*
X141038467Y-91583248D01*
X141029495Y-91586149D01*
X141020687Y-91588712D01*
X141012033Y-91590939D01*
X141003541Y-91592826D01*
X140995204Y-91594373D01*
X140987020Y-91595577D01*
X140978995Y-91596436D01*
X140971119Y-91596949D01*
X140963396Y-91597114D01*
X140955819Y-91596929D01*
X140948392Y-91596392D01*
X140941112Y-91595501D01*
X140933977Y-91594258D01*
X140926985Y-91592653D01*
X140920137Y-91590694D01*
X140913429Y-91588373D01*
X140906863Y-91585688D01*
X140900431Y-91582638D01*
X140894137Y-91579224D01*
X140887980Y-91575443D01*
X140881957Y-91571291D01*
X140876066Y-91566766D01*
X140870307Y-91561871D01*
X140864675Y-91556598D01*
X140859173Y-91550948D01*
X140853799Y-91544921D01*
X140848549Y-91538514D01*
X140843423Y-91531723D01*
X140823864Y-91506463D01*
X140803557Y-91483550D01*
X140782501Y-91462907D01*
X140760688Y-91444445D01*
X140738105Y-91428081D01*
X140714749Y-91413729D01*
X140690608Y-91401311D01*
X140665675Y-91390735D01*
X140639942Y-91381923D01*
X140613398Y-91374793D01*
X140586041Y-91369253D01*
X140557859Y-91365225D01*
X140528844Y-91362625D01*
X140498986Y-91361367D01*
X140468280Y-91361367D01*
X140436717Y-91362544D01*
X140339057Y-91366915D01*
X140241295Y-91369614D01*
X140143451Y-91370896D01*
X140045553Y-91371010D01*
X139849689Y-91368751D01*
X139653907Y-91364861D01*
X139637037Y-91364725D01*
X139620606Y-91365075D01*
X139604616Y-91365994D01*
X139589068Y-91367564D01*
X139573967Y-91369867D01*
X139559315Y-91372989D01*
X139552157Y-91374883D01*
X139545114Y-91377012D01*
X139538184Y-91379386D01*
X139531367Y-91382019D01*
X139524666Y-91384919D01*
X139518077Y-91388093D01*
X139511601Y-91391556D01*
X139505242Y-91395318D01*
X139499000Y-91399385D01*
X139492871Y-91403776D01*
X139486860Y-91408491D01*
X139480962Y-91413547D01*
X139475184Y-91418955D01*
X139469519Y-91424718D01*
X139463973Y-91430854D01*
X139458546Y-91437371D01*
X139453234Y-91444280D01*
X139448045Y-91451589D01*
X139442968Y-91459313D01*
X139438013Y-91467457D01*
X139424672Y-91475847D01*
X139411363Y-91483584D01*
X139398095Y-91490667D01*
X139384878Y-91497099D01*
X139371726Y-91502882D01*
X139358643Y-91508020D01*
X139345642Y-91512516D01*
X139332735Y-91516371D01*
X139319926Y-91519585D01*
X139307225Y-91522166D01*
X139294647Y-91524111D01*
X139282198Y-91525426D01*
X139269888Y-91526113D01*
X139257728Y-91526174D01*
X139245728Y-91525611D01*
X139233894Y-91524427D01*
X139222240Y-91522625D01*
X139210773Y-91520205D01*
X139199507Y-91517171D01*
X139188446Y-91513527D01*
X139177601Y-91509273D01*
X139166984Y-91504411D01*
X139156604Y-91498950D01*
X139146469Y-91492885D01*
X139136592Y-91486220D01*
X139126980Y-91478958D01*
X139117644Y-91471103D01*
X139108591Y-91462657D01*
X139099835Y-91453621D01*
X139091384Y-91443997D01*
X139083247Y-91433793D01*
X139075431Y-91423002D01*
X139069110Y-91413340D01*
X139063328Y-91403470D01*
X139058081Y-91393408D01*
X139053370Y-91383175D01*
X139049187Y-91372789D01*
X139045532Y-91362271D01*
X139042401Y-91351638D01*
X139039794Y-91340911D01*
X139037702Y-91330108D01*
X139036125Y-91319250D01*
X139035062Y-91308355D01*
X139034507Y-91297439D01*
X139034506Y-91297227D01*
X139178430Y-91297227D01*
X139178526Y-91302226D01*
X139178917Y-91307088D01*
X139179591Y-91311818D01*
X139180551Y-91316418D01*
X139181785Y-91320887D01*
X139183289Y-91325228D01*
X139185054Y-91329441D01*
X139187080Y-91333530D01*
X139189357Y-91337494D01*
X139191880Y-91341337D01*
X139194644Y-91345058D01*
X139197638Y-91348657D01*
X139200861Y-91352141D01*
X139204307Y-91355508D01*
X139207966Y-91358759D01*
X139211839Y-91361895D01*
X139215910Y-91364920D01*
X139220180Y-91367834D01*
X139224641Y-91370638D01*
X139234116Y-91375924D01*
X139244283Y-91380786D01*
X139255094Y-91385242D01*
X139269381Y-91384864D01*
X139276177Y-91384399D01*
X139282740Y-91383752D01*
X139289071Y-91382919D01*
X139295171Y-91381900D01*
X139301037Y-91380694D01*
X139306668Y-91379299D01*
X139312066Y-91377714D01*
X139317230Y-91375937D01*
X139322162Y-91373970D01*
X139326855Y-91371807D01*
X139331316Y-91369454D01*
X139335542Y-91366903D01*
X139339531Y-91364155D01*
X139343286Y-91361211D01*
X139346803Y-91358067D01*
X139350084Y-91354725D01*
X139353128Y-91351180D01*
X139355935Y-91347435D01*
X139358505Y-91343485D01*
X139360836Y-91339331D01*
X139362933Y-91334974D01*
X139364786Y-91330409D01*
X139366403Y-91325634D01*
X139367781Y-91320654D01*
X139368918Y-91315462D01*
X139369816Y-91310061D01*
X139370477Y-91304446D01*
X139370895Y-91298615D01*
X139371072Y-91292574D01*
X139371009Y-91286317D01*
X139370780Y-91281575D01*
X139370373Y-91276948D01*
X139369789Y-91272428D01*
X139369034Y-91268024D01*
X139368110Y-91263733D01*
X139367019Y-91259555D01*
X139365764Y-91255490D01*
X139364348Y-91251543D01*
X139362772Y-91247709D01*
X139361045Y-91243993D01*
X139359164Y-91240392D01*
X139357134Y-91236908D01*
X139354959Y-91233541D01*
X139352643Y-91230292D01*
X139350183Y-91227164D01*
X139347589Y-91224154D01*
X139344859Y-91221262D01*
X139341999Y-91218494D01*
X139339010Y-91215843D01*
X139335897Y-91213316D01*
X139332662Y-91210910D01*
X139329305Y-91208626D01*
X139325833Y-91206466D01*
X139322250Y-91204430D01*
X139314750Y-91200730D01*
X139306833Y-91197530D01*
X139298524Y-91194835D01*
X139289846Y-91192650D01*
X139285001Y-91191715D01*
X139280260Y-91191034D01*
X139275624Y-91190603D01*
X139271093Y-91190414D01*
X139266664Y-91190463D01*
X139262340Y-91190742D01*
X139258123Y-91191243D01*
X139254005Y-91191964D01*
X139249996Y-91192896D01*
X139246088Y-91194033D01*
X139242285Y-91195371D01*
X139238587Y-91196903D01*
X139234992Y-91198618D01*
X139231503Y-91200513D01*
X139228118Y-91202585D01*
X139224835Y-91204823D01*
X139221658Y-91207225D01*
X139218583Y-91209780D01*
X139215615Y-91212485D01*
X139212750Y-91215333D01*
X139209992Y-91218317D01*
X139207334Y-91221430D01*
X139204780Y-91224669D01*
X139202334Y-91228027D01*
X139197751Y-91235067D01*
X139193586Y-91242503D01*
X139189836Y-91250288D01*
X139186504Y-91258366D01*
X139184372Y-91264343D01*
X139182578Y-91270176D01*
X139181113Y-91275866D01*
X139179971Y-91281415D01*
X139179148Y-91286823D01*
X139178637Y-91292095D01*
X139178430Y-91297227D01*
X139034506Y-91297227D01*
X139034460Y-91286526D01*
X139034916Y-91275634D01*
X139035874Y-91264780D01*
X139037321Y-91253984D01*
X139039269Y-91243268D01*
X139041707Y-91232648D01*
X139044633Y-91222145D01*
X139048043Y-91211775D01*
X139051935Y-91201563D01*
X139056308Y-91191523D01*
X139061153Y-91181678D01*
X139066474Y-91172042D01*
X139072262Y-91162640D01*
X139078519Y-91153486D01*
X139085239Y-91144604D01*
X139092420Y-91136009D01*
X139100057Y-91127723D01*
X139108152Y-91119764D01*
X139116695Y-91112150D01*
X139125690Y-91104903D01*
X139136970Y-91096619D01*
X139148330Y-91088985D01*
X139159756Y-91081998D01*
X139171243Y-91075656D01*
X139182780Y-91069968D01*
X139194360Y-91064928D01*
X139205970Y-91060536D01*
X139217603Y-91056796D01*
X139229248Y-91053708D01*
X139240898Y-91051272D01*
X139252543Y-91049488D01*
X139264172Y-91048357D01*
X139275776Y-91047880D01*
X139287349Y-91048056D01*
X139298878Y-91048889D01*
X139310357Y-91050379D01*
X139321773Y-91052523D01*
X139333118Y-91055323D01*
X139344384Y-91058784D01*
X139355561Y-91062901D01*
X139366640Y-91067674D01*
X139377610Y-91073108D01*
X139388463Y-91079203D01*
X139399191Y-91085959D01*
X139409783Y-91093374D01*
X139420231Y-91101450D01*
X139430522Y-91110190D01*
X139440651Y-91119592D01*
X139450608Y-91129656D01*
X139460381Y-91140388D01*
X139469966Y-91151780D01*
X139479347Y-91163838D01*
X139482804Y-91168292D01*
X139486290Y-91172472D01*
X139489811Y-91176385D01*
X139493357Y-91180040D01*
X139496940Y-91183444D01*
X139500555Y-91186613D01*
X139504204Y-91189545D01*
X139507880Y-91192259D01*
X139511594Y-91194758D01*
X139515337Y-91197051D01*
X139519114Y-91199146D01*
X139522925Y-91201058D01*
X139530648Y-91204349D01*
X139538504Y-91206998D01*
X139546499Y-91209072D01*
X139554631Y-91210644D01*
X139562901Y-91211780D01*
X139571316Y-91212554D01*
X139579872Y-91213039D01*
X139588572Y-91213296D01*
X139606414Y-91213426D01*
X140619156Y-91213956D01*
X140626323Y-91213852D01*
X140633592Y-91213562D01*
X140648318Y-91212703D01*
X140663126Y-91211923D01*
X140670499Y-91211733D01*
X140677814Y-91211765D01*
X140685044Y-91212090D01*
X140692167Y-91212774D01*
X140699153Y-91213885D01*
X140705977Y-91215492D01*
X140709320Y-91216501D01*
X140712612Y-91217661D01*
X140715852Y-91218979D01*
X140719036Y-91220463D01*
X140722159Y-91222120D01*
X140725219Y-91223960D01*
X140728211Y-91225995D01*
X140731135Y-91228228D01*
X140754012Y-91247118D01*
X140776497Y-91266414D01*
X140805441Y-91292574D01*
X140820476Y-91306159D01*
G37*
G36*
X159919378Y-91274991D02*
G01*
X159917992Y-91287148D01*
X159915964Y-91299259D01*
X159913291Y-91311304D01*
X159909968Y-91323263D01*
X159906003Y-91335112D01*
X159901388Y-91346831D01*
X159896128Y-91358396D01*
X159890220Y-91369789D01*
X159883662Y-91380984D01*
X159876459Y-91391965D01*
X159868605Y-91402703D01*
X159860104Y-91413181D01*
X159850951Y-91423376D01*
X159841150Y-91433264D01*
X159831137Y-91442398D01*
X159820818Y-91450856D01*
X159810218Y-91458638D01*
X159799353Y-91465748D01*
X159788249Y-91472186D01*
X159776929Y-91477949D01*
X159765410Y-91483037D01*
X159753715Y-91487456D01*
X159741867Y-91491201D01*
X159729889Y-91494275D01*
X159717798Y-91496676D01*
X159705621Y-91498405D01*
X159693374Y-91499461D01*
X159681078Y-91499847D01*
X159668763Y-91499563D01*
X159656445Y-91498605D01*
X159644143Y-91496976D01*
X159631885Y-91494678D01*
X159619686Y-91491711D01*
X159607573Y-91488072D01*
X159595565Y-91483764D01*
X159583681Y-91478786D01*
X159571948Y-91473137D01*
X159560386Y-91466819D01*
X159549016Y-91459832D01*
X159537857Y-91452176D01*
X159526933Y-91443853D01*
X159516267Y-91434860D01*
X159505876Y-91425200D01*
X159495787Y-91414871D01*
X159486019Y-91403873D01*
X159476594Y-91392209D01*
X159469000Y-91382889D01*
X159461309Y-91374488D01*
X159453503Y-91366971D01*
X159445565Y-91360291D01*
X159437479Y-91354401D01*
X159429227Y-91349258D01*
X159420787Y-91344821D01*
X159412148Y-91341045D01*
X159403290Y-91337883D01*
X159394195Y-91335295D01*
X159384849Y-91333237D01*
X159375230Y-91331664D01*
X159365321Y-91330531D01*
X159355111Y-91329796D01*
X159344575Y-91329413D01*
X159333703Y-91329340D01*
X158936154Y-91333606D01*
X158836796Y-91333776D01*
X158737490Y-91332873D01*
X158638261Y-91330550D01*
X158539122Y-91326456D01*
X158507627Y-91325348D01*
X158476949Y-91325372D01*
X158447090Y-91326616D01*
X158418044Y-91329169D01*
X158389809Y-91333121D01*
X158362377Y-91338562D01*
X158335748Y-91345581D01*
X158309916Y-91354265D01*
X158297299Y-91359260D01*
X158284878Y-91364707D01*
X158272655Y-91370615D01*
X158260629Y-91376995D01*
X158248800Y-91383860D01*
X158237165Y-91391220D01*
X158225727Y-91399085D01*
X158214483Y-91407469D01*
X158203434Y-91416380D01*
X158192580Y-91425832D01*
X158181917Y-91435835D01*
X158171449Y-91446398D01*
X158161174Y-91457538D01*
X158151090Y-91469261D01*
X158141196Y-91481580D01*
X158131495Y-91494505D01*
X158126347Y-91501304D01*
X158121075Y-91507702D01*
X158115679Y-91513705D01*
X158110161Y-91519314D01*
X158104521Y-91524542D01*
X158098764Y-91529393D01*
X158092887Y-91533870D01*
X158086894Y-91537989D01*
X158080789Y-91541746D01*
X158074566Y-91545151D01*
X158068235Y-91548213D01*
X158061790Y-91550935D01*
X158055236Y-91553326D01*
X158048577Y-91555390D01*
X158034935Y-91558568D01*
X158020877Y-91560520D01*
X158006419Y-91561300D01*
X157991567Y-91560958D01*
X157976333Y-91559544D01*
X157960726Y-91557109D01*
X157944765Y-91553709D01*
X157928453Y-91549392D01*
X157911806Y-91544211D01*
X157915195Y-91536157D01*
X157918814Y-91528352D01*
X157922654Y-91520780D01*
X157926699Y-91513427D01*
X157935372Y-91499334D01*
X157944740Y-91485968D01*
X157954718Y-91473230D01*
X157965214Y-91461020D01*
X157976141Y-91449229D01*
X157987406Y-91437761D01*
X158034084Y-91393059D01*
X158045708Y-91381664D01*
X158057139Y-91369980D01*
X158068280Y-91357903D01*
X158079049Y-91345332D01*
X158098839Y-91319449D01*
X158119363Y-91296088D01*
X158140618Y-91275141D01*
X158162606Y-91256505D01*
X158174674Y-91247776D01*
X159573260Y-91247776D01*
X159573439Y-91253028D01*
X159573967Y-91258434D01*
X159574841Y-91263990D01*
X159576072Y-91269708D01*
X159577665Y-91275589D01*
X159579625Y-91281638D01*
X159581956Y-91287858D01*
X159585616Y-91296279D01*
X159589690Y-91304274D01*
X159594179Y-91311816D01*
X159599080Y-91318871D01*
X159604383Y-91325413D01*
X159610087Y-91331405D01*
X159613088Y-91334187D01*
X159616188Y-91336825D01*
X159619384Y-91339306D01*
X159622680Y-91341633D01*
X159626071Y-91343802D01*
X159629558Y-91345808D01*
X159633143Y-91347648D01*
X159636819Y-91349315D01*
X159640593Y-91350808D01*
X159644459Y-91352124D01*
X159648420Y-91353258D01*
X159652472Y-91354203D01*
X159656619Y-91354963D01*
X159660856Y-91355528D01*
X159665186Y-91355897D01*
X159669604Y-91356061D01*
X159674113Y-91356022D01*
X159678711Y-91355774D01*
X159683398Y-91355316D01*
X159688176Y-91354639D01*
X159692862Y-91353786D01*
X159697427Y-91352768D01*
X159701865Y-91351589D01*
X159706178Y-91350253D01*
X159710362Y-91348762D01*
X159714417Y-91347118D01*
X159718340Y-91345322D01*
X159722129Y-91343381D01*
X159725784Y-91341292D01*
X159729297Y-91339062D01*
X159732671Y-91336692D01*
X159735905Y-91334184D01*
X159738997Y-91331541D01*
X159741941Y-91328767D01*
X159744737Y-91325861D01*
X159747386Y-91322829D01*
X159749881Y-91319672D01*
X159752222Y-91316391D01*
X159754410Y-91312994D01*
X159756440Y-91309476D01*
X159758311Y-91305846D01*
X159760021Y-91302104D01*
X159761569Y-91298253D01*
X159762950Y-91294292D01*
X159764163Y-91290230D01*
X159765211Y-91286064D01*
X159766086Y-91281800D01*
X159766788Y-91277438D01*
X159767318Y-91272982D01*
X159767668Y-91268435D01*
X159767840Y-91263798D01*
X159767833Y-91259077D01*
X159767186Y-91247278D01*
X159766567Y-91241613D01*
X159765751Y-91236105D01*
X159764737Y-91230758D01*
X159763525Y-91225573D01*
X159762117Y-91220554D01*
X159760512Y-91215698D01*
X159758711Y-91211010D01*
X159756715Y-91206494D01*
X159754519Y-91202150D01*
X159752128Y-91197978D01*
X159749541Y-91193979D01*
X159746761Y-91190159D01*
X159743782Y-91186519D01*
X159740611Y-91183061D01*
X159737242Y-91179785D01*
X159733678Y-91176692D01*
X159729920Y-91173786D01*
X159725967Y-91171072D01*
X159721819Y-91168543D01*
X159717477Y-91166209D01*
X159712942Y-91164069D01*
X159708211Y-91162126D01*
X159703286Y-91160380D01*
X159698168Y-91158834D01*
X159692855Y-91157491D01*
X159687350Y-91156349D01*
X159681652Y-91155413D01*
X159675762Y-91154687D01*
X159669676Y-91154167D01*
X159663396Y-91153862D01*
X159650556Y-91159469D01*
X159638533Y-91165295D01*
X159627371Y-91171373D01*
X159617117Y-91177736D01*
X159612347Y-91181032D01*
X159607821Y-91184411D01*
X159603544Y-91187878D01*
X159599524Y-91191434D01*
X159595768Y-91195088D01*
X159592280Y-91198836D01*
X159589063Y-91202689D01*
X159586127Y-91206652D01*
X159583478Y-91210724D01*
X159581119Y-91214912D01*
X159579058Y-91219217D01*
X159577299Y-91223645D01*
X159575852Y-91228201D01*
X159574716Y-91232889D01*
X159573900Y-91237711D01*
X159573413Y-91242671D01*
X159573260Y-91247776D01*
X158174674Y-91247776D01*
X158185328Y-91240070D01*
X158208784Y-91225735D01*
X158232978Y-91213391D01*
X158257902Y-91202937D01*
X158283565Y-91194262D01*
X158309961Y-91187265D01*
X158337093Y-91181837D01*
X158364962Y-91177877D01*
X158393566Y-91175274D01*
X158422908Y-91173926D01*
X158452988Y-91173729D01*
X158483804Y-91174573D01*
X158593453Y-91178310D01*
X158703170Y-91180415D01*
X158922752Y-91181237D01*
X159362078Y-91179905D01*
X159370270Y-91179865D01*
X159378120Y-91179611D01*
X159385656Y-91179102D01*
X159392898Y-91178296D01*
X159399869Y-91177156D01*
X159406592Y-91175638D01*
X159409865Y-91174722D01*
X159413090Y-91173700D01*
X159416258Y-91172560D01*
X159419382Y-91171302D01*
X159422457Y-91169916D01*
X159425490Y-91168402D01*
X159428486Y-91166751D01*
X159431442Y-91164959D01*
X159434366Y-91163022D01*
X159437257Y-91160934D01*
X159440118Y-91158691D01*
X159442957Y-91156287D01*
X159445771Y-91153714D01*
X159448564Y-91150972D01*
X159451343Y-91148050D01*
X159454103Y-91144951D01*
X159456853Y-91141661D01*
X159459594Y-91138179D01*
X159462329Y-91134504D01*
X159465059Y-91130622D01*
X159474161Y-91117951D01*
X159483592Y-91105971D01*
X159493344Y-91094687D01*
X159503398Y-91084094D01*
X159513732Y-91074201D01*
X159524332Y-91065004D01*
X159535178Y-91056506D01*
X159546254Y-91048703D01*
X159557538Y-91041604D01*
X159569017Y-91035205D01*
X159580670Y-91029505D01*
X159592485Y-91024509D01*
X159604437Y-91020216D01*
X159616511Y-91016628D01*
X159628689Y-91013742D01*
X159640954Y-91011566D01*
X159653288Y-91010095D01*
X159665673Y-91009333D01*
X159678091Y-91009278D01*
X159690526Y-91009935D01*
X159702956Y-91011302D01*
X159715366Y-91013378D01*
X159727738Y-91016168D01*
X159740055Y-91019673D01*
X159752298Y-91023890D01*
X159764449Y-91028824D01*
X159776489Y-91034471D01*
X159788405Y-91040837D01*
X159800175Y-91047922D01*
X159811781Y-91055723D01*
X159823207Y-91064247D01*
X159834437Y-91073489D01*
X159844597Y-91082715D01*
X159854116Y-91092290D01*
X159862999Y-91102191D01*
X159871245Y-91112393D01*
X159878848Y-91122879D01*
X159885814Y-91133627D01*
X159892139Y-91144612D01*
X159897825Y-91155815D01*
X159902871Y-91167213D01*
X159907273Y-91178783D01*
X159911037Y-91190506D01*
X159914158Y-91202358D01*
X159916634Y-91214321D01*
X159918470Y-91226370D01*
X159919664Y-91238482D01*
X159920211Y-91250639D01*
X159920117Y-91262815D01*
X159920058Y-91263798D01*
X159919378Y-91274991D01*
G37*
G36*
X147505148Y-93708134D02*
G01*
X147520105Y-93709087D01*
X147527079Y-93709877D01*
X147533720Y-93710882D01*
X147540039Y-93712112D01*
X147546037Y-93713568D01*
X147551720Y-93715252D01*
X147557093Y-93717177D01*
X147562166Y-93719340D01*
X147566937Y-93721750D01*
X147571416Y-93724412D01*
X147575607Y-93727330D01*
X147579515Y-93730511D01*
X147583143Y-93733954D01*
X147586502Y-93737672D01*
X147589591Y-93741665D01*
X147592419Y-93745941D01*
X147594993Y-93750501D01*
X147597312Y-93755352D01*
X147599384Y-93760499D01*
X147601218Y-93765949D01*
X147602818Y-93771703D01*
X147604183Y-93777772D01*
X147605325Y-93784152D01*
X147606248Y-93790857D01*
X147606955Y-93797888D01*
X147607748Y-93812945D01*
X147607745Y-93829367D01*
X147604783Y-94009685D01*
X147603881Y-94190059D01*
X147604792Y-94370440D01*
X147607276Y-94550783D01*
X147607177Y-94566475D01*
X147606278Y-94580763D01*
X147605519Y-94587398D01*
X147604547Y-94593702D01*
X147603362Y-94599682D01*
X147601952Y-94605346D01*
X147600320Y-94610695D01*
X147598461Y-94615739D01*
X147596368Y-94620483D01*
X147594039Y-94624938D01*
X147591471Y-94629106D01*
X147588657Y-94632993D01*
X147585595Y-94636606D01*
X147582282Y-94639953D01*
X147578711Y-94643039D01*
X147574880Y-94645871D01*
X147570784Y-94648456D01*
X147566419Y-94650800D01*
X147561782Y-94652907D01*
X147556867Y-94654787D01*
X147551673Y-94656443D01*
X147546193Y-94657884D01*
X147540424Y-94659115D01*
X147534365Y-94660145D01*
X147521345Y-94661619D01*
X147507108Y-94662360D01*
X147491617Y-94662415D01*
X147282882Y-94660034D01*
X147074114Y-94659538D01*
X146656575Y-94662290D01*
X146644043Y-94662334D01*
X146632105Y-94662128D01*
X146620793Y-94661559D01*
X146610137Y-94660519D01*
X146605063Y-94659787D01*
X146600167Y-94658892D01*
X146595442Y-94657826D01*
X146590906Y-94656569D01*
X146586554Y-94655113D01*
X146582391Y-94653440D01*
X146578423Y-94651536D01*
X146574650Y-94649390D01*
X146571080Y-94646989D01*
X146567713Y-94644313D01*
X146564555Y-94641352D01*
X146561609Y-94638091D01*
X146558878Y-94634516D01*
X146556368Y-94630616D01*
X146554079Y-94626370D01*
X146552018Y-94621773D01*
X146550187Y-94616808D01*
X146548590Y-94611455D01*
X146547234Y-94605706D01*
X146546115Y-94599547D01*
X146545246Y-94592965D01*
X146544622Y-94585941D01*
X146544253Y-94578465D01*
X146544141Y-94570526D01*
X146544432Y-94555551D01*
X146545289Y-94541643D01*
X146546780Y-94528791D01*
X146547784Y-94522757D01*
X146548973Y-94516981D01*
X146550360Y-94511466D01*
X146551946Y-94506210D01*
X146553743Y-94501207D01*
X146555762Y-94496462D01*
X146558008Y-94491967D01*
X146560492Y-94487727D01*
X146563223Y-94483741D01*
X146566208Y-94480000D01*
X146569457Y-94476509D01*
X146572979Y-94473265D01*
X146576784Y-94470269D01*
X146580874Y-94467518D01*
X146585266Y-94465008D01*
X146589965Y-94462744D01*
X146594982Y-94460720D01*
X146600323Y-94458936D01*
X146605999Y-94457390D01*
X146612016Y-94456083D01*
X146618383Y-94455010D01*
X146625110Y-94454172D01*
X146632209Y-94453569D01*
X146639682Y-94453198D01*
X146647543Y-94453058D01*
X146655800Y-94453149D01*
X146815201Y-94455484D01*
X146974649Y-94455708D01*
X147293589Y-94455439D01*
X147303970Y-94455361D01*
X147313857Y-94454945D01*
X147323225Y-94454127D01*
X147332050Y-94452835D01*
X147336253Y-94451992D01*
X147340308Y-94451002D01*
X147344218Y-94449861D01*
X147347976Y-94448564D01*
X147351579Y-94447093D01*
X147355026Y-94445448D01*
X147358311Y-94443616D01*
X147361435Y-94441589D01*
X147364394Y-94439362D01*
X147367181Y-94436922D01*
X147369799Y-94434265D01*
X147372238Y-94431376D01*
X147374501Y-94428254D01*
X147376582Y-94424885D01*
X147378479Y-94421265D01*
X147380190Y-94417382D01*
X147381707Y-94413229D01*
X147383033Y-94408795D01*
X147384163Y-94404077D01*
X147385094Y-94399063D01*
X147385821Y-94393745D01*
X147386343Y-94388113D01*
X147386656Y-94382161D01*
X147386757Y-94375881D01*
X147386635Y-94369484D01*
X147386287Y-94363442D01*
X147385716Y-94357737D01*
X147384925Y-94352367D01*
X147383919Y-94347319D01*
X147382704Y-94342586D01*
X147381282Y-94338152D01*
X147379660Y-94334013D01*
X147377842Y-94330157D01*
X147375832Y-94326578D01*
X147373634Y-94323261D01*
X147371252Y-94320199D01*
X147368690Y-94317382D01*
X147365957Y-94314802D01*
X147363051Y-94312446D01*
X147359982Y-94310306D01*
X147356751Y-94308374D01*
X147353365Y-94306639D01*
X147349826Y-94305089D01*
X147346139Y-94303717D01*
X147342309Y-94302514D01*
X147338341Y-94301468D01*
X147330006Y-94299814D01*
X147321170Y-94298675D01*
X147311871Y-94297977D01*
X147302141Y-94297642D01*
X147292019Y-94297588D01*
X147041056Y-94297556D01*
X146915586Y-94297731D01*
X146790142Y-94299287D01*
X146777276Y-94299252D01*
X146765409Y-94298576D01*
X146759845Y-94297988D01*
X146754521Y-94297229D01*
X146749435Y-94296291D01*
X146744584Y-94295169D01*
X146739965Y-94293866D01*
X146735577Y-94292372D01*
X146731415Y-94290682D01*
X146727472Y-94288799D01*
X146723752Y-94286708D01*
X146720248Y-94284413D01*
X146716957Y-94281905D01*
X146713880Y-94279183D01*
X146711009Y-94276245D01*
X146708341Y-94273079D01*
X146705878Y-94269687D01*
X146703612Y-94266063D01*
X146701543Y-94262203D01*
X146699666Y-94258100D01*
X146697979Y-94253755D01*
X146696479Y-94249160D01*
X146695163Y-94244312D01*
X146694029Y-94239207D01*
X146693069Y-94233838D01*
X146692286Y-94228205D01*
X146691233Y-94216122D01*
X146690844Y-94202928D01*
X146691015Y-94189537D01*
X146691702Y-94177069D01*
X146692968Y-94165518D01*
X146693837Y-94160082D01*
X146694876Y-94154877D01*
X146696092Y-94149899D01*
X146697489Y-94145146D01*
X146699078Y-94140623D01*
X146700869Y-94136321D01*
X146702867Y-94132246D01*
X146705081Y-94128394D01*
X146707517Y-94124770D01*
X146710183Y-94121367D01*
X146713090Y-94118184D01*
X146716241Y-94115229D01*
X146719648Y-94112493D01*
X146723319Y-94109981D01*
X146727257Y-94107687D01*
X146731474Y-94105617D01*
X146735977Y-94103764D01*
X146740776Y-94102130D01*
X146745873Y-94100717D01*
X146751280Y-94099522D01*
X146757004Y-94098543D01*
X146763055Y-94097785D01*
X146769438Y-94097241D01*
X146776162Y-94096914D01*
X146783232Y-94096803D01*
X146790660Y-94096908D01*
X146910845Y-94098921D01*
X147031083Y-94098957D01*
X147271608Y-94097262D01*
X147312640Y-94097734D01*
X147322459Y-94097341D01*
X147331928Y-94096408D01*
X147336501Y-94095687D01*
X147340953Y-94094769D01*
X147345273Y-94093629D01*
X147349450Y-94092252D01*
X147353475Y-94090613D01*
X147357331Y-94088690D01*
X147361011Y-94086466D01*
X147364504Y-94083917D01*
X147367798Y-94081023D01*
X147370885Y-94077763D01*
X147373747Y-94074116D01*
X147376379Y-94070061D01*
X147378771Y-94065577D01*
X147380905Y-94060643D01*
X147382776Y-94055236D01*
X147384370Y-94049339D01*
X147385676Y-94042928D01*
X147386686Y-94035982D01*
X147387387Y-94028483D01*
X147387765Y-94020405D01*
X147387826Y-94011974D01*
X147387565Y-94004031D01*
X147386989Y-93996561D01*
X147386106Y-93989554D01*
X147384922Y-93982987D01*
X147383447Y-93976855D01*
X147381685Y-93971136D01*
X147379647Y-93965822D01*
X147377337Y-93960894D01*
X147374765Y-93956339D01*
X147371938Y-93952144D01*
X147368861Y-93948293D01*
X147365543Y-93944774D01*
X147361993Y-93941569D01*
X147358216Y-93938663D01*
X147354223Y-93936047D01*
X147350014Y-93933702D01*
X147345602Y-93931617D01*
X147340995Y-93929772D01*
X147336199Y-93928159D01*
X147326069Y-93925561D01*
X147315267Y-93923710D01*
X147303859Y-93922485D01*
X147291900Y-93921777D01*
X147279449Y-93921466D01*
X147266567Y-93921439D01*
X146963341Y-93921948D01*
X146660109Y-93921236D01*
X146639042Y-93921281D01*
X146628707Y-93921155D01*
X146618614Y-93920742D01*
X146608836Y-93919892D01*
X146604092Y-93919259D01*
X146599457Y-93918463D01*
X146594941Y-93917485D01*
X146590553Y-93916312D01*
X146586303Y-93914918D01*
X146582202Y-93913293D01*
X146578260Y-93911413D01*
X146574485Y-93909264D01*
X146570890Y-93906823D01*
X146567483Y-93904076D01*
X146564273Y-93901006D01*
X146561269Y-93897592D01*
X146558485Y-93893818D01*
X146555929Y-93889663D01*
X146553609Y-93885112D01*
X146551536Y-93880147D01*
X146549722Y-93874747D01*
X146548172Y-93868898D01*
X146546902Y-93862577D01*
X146545915Y-93855772D01*
X146545225Y-93848459D01*
X146544844Y-93840625D01*
X146544598Y-93825714D01*
X146544779Y-93811378D01*
X146545520Y-93797681D01*
X146546944Y-93784695D01*
X146547954Y-93778489D01*
X146549182Y-93772487D01*
X146550643Y-93766696D01*
X146552354Y-93761125D01*
X146554333Y-93755782D01*
X146556592Y-93750676D01*
X146559149Y-93745816D01*
X146562019Y-93741207D01*
X146565218Y-93736865D01*
X146568763Y-93732791D01*
X146572667Y-93728997D01*
X146576948Y-93725493D01*
X146581621Y-93722284D01*
X146586703Y-93719380D01*
X146592208Y-93716789D01*
X146598153Y-93714522D01*
X146604554Y-93712583D01*
X146611426Y-93710988D01*
X146618785Y-93709735D01*
X146626645Y-93708839D01*
X146635026Y-93708308D01*
X146643941Y-93708152D01*
X146653405Y-93708377D01*
X146663436Y-93708991D01*
X147079822Y-93709963D01*
X147284786Y-93709790D01*
X147488803Y-93707988D01*
X147505148Y-93708134D01*
G37*
G36*
X156420179Y-93707746D02*
G01*
X156430190Y-93708210D01*
X156439936Y-93709065D01*
X156449423Y-93710297D01*
X156458651Y-93711899D01*
X156467632Y-93713859D01*
X156476368Y-93716166D01*
X156484865Y-93718814D01*
X156493128Y-93721785D01*
X156501160Y-93725075D01*
X156508975Y-93728675D01*
X156516567Y-93732567D01*
X156523948Y-93736745D01*
X156531123Y-93741203D01*
X156538096Y-93745923D01*
X156544873Y-93750900D01*
X156557856Y-93761578D01*
X156570121Y-93773155D01*
X156581704Y-93785543D01*
X156592657Y-93798667D01*
X156603012Y-93812439D01*
X156612823Y-93826779D01*
X156622123Y-93841605D01*
X156630960Y-93856832D01*
X156633802Y-93862231D01*
X156636347Y-93867723D01*
X156638606Y-93873294D01*
X156640596Y-93878948D01*
X156643816Y-93890479D01*
X156646116Y-93902280D01*
X156647606Y-93914314D01*
X156648393Y-93926552D01*
X156648592Y-93938962D01*
X156648308Y-93951502D01*
X156646730Y-93976857D01*
X156644535Y-94002346D01*
X156642602Y-94027703D01*
X156642005Y-94040246D01*
X156641802Y-94052654D01*
X156641575Y-94066132D01*
X156640828Y-94079295D01*
X156639574Y-94092129D01*
X156637806Y-94104640D01*
X156635537Y-94116814D01*
X156632766Y-94128650D01*
X156629496Y-94140139D01*
X156625736Y-94151281D01*
X156621488Y-94162068D01*
X156616757Y-94172492D01*
X156611545Y-94182553D01*
X156605855Y-94192243D01*
X156599695Y-94201555D01*
X156593067Y-94210485D01*
X156585976Y-94219028D01*
X156578424Y-94227178D01*
X156570421Y-94234933D01*
X156561962Y-94242282D01*
X156553058Y-94249226D01*
X156543711Y-94255753D01*
X156533927Y-94261861D01*
X156523707Y-94267547D01*
X156513054Y-94272803D01*
X156501974Y-94277625D01*
X156490476Y-94282004D01*
X156478559Y-94285940D01*
X156466227Y-94289424D01*
X156453486Y-94292448D01*
X156440337Y-94295018D01*
X156426788Y-94297113D01*
X156412840Y-94298742D01*
X156398500Y-94299892D01*
X156149672Y-94299786D01*
X155908100Y-94300473D01*
X155864192Y-94299768D01*
X155853397Y-94300048D01*
X155842922Y-94300884D01*
X155837843Y-94301567D01*
X155832892Y-94302457D01*
X155828084Y-94303579D01*
X155823431Y-94304955D01*
X155818950Y-94306609D01*
X155814659Y-94308563D01*
X155810572Y-94310842D01*
X155806705Y-94313467D01*
X155803072Y-94316459D01*
X155799690Y-94319848D01*
X155796573Y-94323653D01*
X155793739Y-94327898D01*
X155791202Y-94332606D01*
X155788977Y-94337799D01*
X155787079Y-94343502D01*
X155785523Y-94349738D01*
X155784330Y-94356528D01*
X155783507Y-94363899D01*
X155783077Y-94371871D01*
X155783050Y-94380466D01*
X155783401Y-94388367D01*
X155784109Y-94395700D01*
X155785157Y-94402485D01*
X155786538Y-94408744D01*
X155788234Y-94414498D01*
X155790235Y-94419767D01*
X155792520Y-94424570D01*
X155795083Y-94428934D01*
X155797909Y-94432875D01*
X155800981Y-94436413D01*
X155804288Y-94439571D01*
X155807817Y-94442369D01*
X155811549Y-94444830D01*
X155815477Y-94446971D01*
X155819585Y-94448816D01*
X155823860Y-94450385D01*
X155828286Y-94451698D01*
X155832851Y-94452777D01*
X155842343Y-94454316D01*
X155852227Y-94455167D01*
X155862394Y-94455499D01*
X155903700Y-94454944D01*
X156222453Y-94455795D01*
X156381828Y-94455445D01*
X156541189Y-94454235D01*
X156553571Y-94454354D01*
X156565066Y-94455026D01*
X156575697Y-94456298D01*
X156580692Y-94457174D01*
X156585481Y-94458218D01*
X156590062Y-94459433D01*
X156594438Y-94460829D01*
X156598614Y-94462412D01*
X156602588Y-94464186D01*
X156606365Y-94466155D01*
X156609947Y-94468329D01*
X156613339Y-94470712D01*
X156616540Y-94473310D01*
X156619551Y-94476128D01*
X156622377Y-94479174D01*
X156625021Y-94482456D01*
X156627486Y-94485972D01*
X156629771Y-94489735D01*
X156631880Y-94493751D01*
X156633816Y-94498019D01*
X156635580Y-94502552D01*
X156637177Y-94507356D01*
X156638605Y-94512432D01*
X156639870Y-94517789D01*
X156640976Y-94523433D01*
X156641920Y-94529367D01*
X156642706Y-94535600D01*
X156643822Y-94548987D01*
X156644194Y-94558038D01*
X156644247Y-94566637D01*
X156643976Y-94574796D01*
X156643395Y-94582527D01*
X156642505Y-94589832D01*
X156641307Y-94596733D01*
X156639809Y-94603234D01*
X156638016Y-94609344D01*
X156635933Y-94615079D01*
X156633564Y-94620448D01*
X156630912Y-94625459D01*
X156627984Y-94630124D01*
X156624783Y-94634453D01*
X156621313Y-94638456D01*
X156617583Y-94642146D01*
X156613594Y-94645532D01*
X156609350Y-94648622D01*
X156604859Y-94651432D01*
X156600122Y-94653968D01*
X156595144Y-94656244D01*
X156589933Y-94658264D01*
X156584492Y-94660048D01*
X156578822Y-94661598D01*
X156572933Y-94662929D01*
X156560511Y-94664974D01*
X156547263Y-94666266D01*
X156533220Y-94666888D01*
X156518422Y-94666924D01*
X156168884Y-94661235D01*
X155994118Y-94659459D01*
X155819367Y-94659629D01*
X155804594Y-94659413D01*
X155790365Y-94658518D01*
X155776642Y-94656952D01*
X155763385Y-94654716D01*
X155750555Y-94651824D01*
X155738117Y-94648276D01*
X155726025Y-94644083D01*
X155714246Y-94639243D01*
X155702737Y-94633772D01*
X155691459Y-94627669D01*
X155680376Y-94620946D01*
X155669444Y-94613603D01*
X155658629Y-94605652D01*
X155647891Y-94597096D01*
X155637189Y-94587940D01*
X155626482Y-94578193D01*
X155619594Y-94571450D01*
X155613224Y-94564618D01*
X155607350Y-94557702D01*
X155601953Y-94550708D01*
X155597017Y-94543637D01*
X155592522Y-94536491D01*
X155588442Y-94529273D01*
X155584763Y-94521991D01*
X155581464Y-94514641D01*
X155578526Y-94507230D01*
X155573648Y-94492240D01*
X155569977Y-94477038D01*
X155567350Y-94461654D01*
X155565614Y-94446109D01*
X155564608Y-94430432D01*
X155564177Y-94414644D01*
X155564164Y-94398773D01*
X155565119Y-94334936D01*
X155565346Y-94322349D01*
X155566151Y-94309980D01*
X155567520Y-94297841D01*
X155569446Y-94285943D01*
X155571913Y-94274299D01*
X155574910Y-94262921D01*
X155578422Y-94251817D01*
X155582443Y-94241006D01*
X155586954Y-94230489D01*
X155591946Y-94220288D01*
X155597407Y-94210410D01*
X155603325Y-94200864D01*
X155609688Y-94191671D01*
X155616482Y-94182832D01*
X155623695Y-94174364D01*
X155631318Y-94166279D01*
X155639334Y-94158590D01*
X155647736Y-94151305D01*
X155656508Y-94144435D01*
X155665638Y-94137997D01*
X155675117Y-94132001D01*
X155684928Y-94126455D01*
X155695065Y-94121376D01*
X155705510Y-94116770D01*
X155716254Y-94112655D01*
X155727284Y-94109040D01*
X155738589Y-94105934D01*
X155750154Y-94103350D01*
X155761967Y-94101304D01*
X155774020Y-94099805D01*
X155786297Y-94098861D01*
X155798786Y-94098488D01*
X156060055Y-94097641D01*
X156321327Y-94097838D01*
X156343188Y-94097638D01*
X156353810Y-94097191D01*
X156364134Y-94096364D01*
X156374082Y-94095040D01*
X156378893Y-94094162D01*
X156383586Y-94093112D01*
X156388151Y-94091885D01*
X156392577Y-94090461D01*
X156396858Y-94088829D01*
X156400982Y-94086975D01*
X156404946Y-94084882D01*
X156408734Y-94082538D01*
X156412337Y-94079930D01*
X156415753Y-94077042D01*
X156418967Y-94073860D01*
X156421974Y-94070369D01*
X156424765Y-94066555D01*
X156427327Y-94062409D01*
X156429652Y-94057907D01*
X156431736Y-94053042D01*
X156433563Y-94047798D01*
X156435133Y-94042160D01*
X156436431Y-94036117D01*
X156437446Y-94029651D01*
X156438175Y-94022749D01*
X156438606Y-94015396D01*
X156438736Y-94007603D01*
X156438533Y-94000253D01*
X156438014Y-93993329D01*
X156437187Y-93986819D01*
X156436058Y-93980714D01*
X156434633Y-93974998D01*
X156432926Y-93969661D01*
X156430940Y-93964685D01*
X156428685Y-93960061D01*
X156426169Y-93955781D01*
X156423402Y-93951826D01*
X156420392Y-93948183D01*
X156417145Y-93944845D01*
X156413673Y-93941795D01*
X156409981Y-93939020D01*
X156406079Y-93936509D01*
X156401976Y-93934249D01*
X156397678Y-93932231D01*
X156393196Y-93930437D01*
X156388536Y-93928855D01*
X156378721Y-93926285D01*
X156368297Y-93924416D01*
X156357332Y-93923150D01*
X156345895Y-93922386D01*
X156334048Y-93922019D01*
X156321866Y-93921953D01*
X155715723Y-93921904D01*
X155689084Y-93922064D01*
X155676244Y-93921932D01*
X155663831Y-93921415D01*
X155651927Y-93920336D01*
X155646191Y-93919531D01*
X155640613Y-93918513D01*
X155635203Y-93917264D01*
X155629973Y-93915761D01*
X155624931Y-93913983D01*
X155620086Y-93911903D01*
X155615451Y-93909503D01*
X155611033Y-93906757D01*
X155606846Y-93903643D01*
X155602899Y-93900140D01*
X155599198Y-93896225D01*
X155595762Y-93891873D01*
X155592592Y-93887062D01*
X155589704Y-93881772D01*
X155587106Y-93875979D01*
X155584809Y-93869661D01*
X155582820Y-93862794D01*
X155581152Y-93855355D01*
X155579818Y-93847321D01*
X155578822Y-93838672D01*
X155578177Y-93829382D01*
X155577897Y-93819432D01*
X155577973Y-93809910D01*
X155578376Y-93800947D01*
X155579101Y-93792525D01*
X155580145Y-93784628D01*
X155581499Y-93777241D01*
X155583154Y-93770343D01*
X155585105Y-93763920D01*
X155587343Y-93757955D01*
X155589865Y-93752433D01*
X155592659Y-93747334D01*
X155595724Y-93742642D01*
X155599048Y-93738342D01*
X155602626Y-93734415D01*
X155606454Y-93730847D01*
X155610520Y-93727619D01*
X155614818Y-93724714D01*
X155619345Y-93722117D01*
X155624090Y-93719809D01*
X155629049Y-93717777D01*
X155634212Y-93716001D01*
X155645128Y-93713152D01*
X155656784Y-93711130D01*
X155669128Y-93709798D01*
X155682099Y-93709027D01*
X155695646Y-93708678D01*
X155709710Y-93708620D01*
X156059818Y-93709569D01*
X156234866Y-93709230D01*
X156409898Y-93707681D01*
X156420179Y-93707746D01*
G37*
G36*
X151355374Y-93708908D02*
G01*
X151533136Y-93709182D01*
X151888670Y-93708637D01*
X151898765Y-93708879D01*
X151908597Y-93709610D01*
X151918185Y-93710816D01*
X151927553Y-93712481D01*
X151936722Y-93714589D01*
X151945714Y-93717124D01*
X151954549Y-93720071D01*
X151963249Y-93723418D01*
X151971840Y-93727144D01*
X151980338Y-93731233D01*
X151988767Y-93735675D01*
X151997147Y-93740450D01*
X152005503Y-93745544D01*
X152013851Y-93750941D01*
X152022220Y-93756624D01*
X152030628Y-93762582D01*
X152039180Y-93769016D01*
X152047206Y-93775592D01*
X152054723Y-93782301D01*
X152061746Y-93789147D01*
X152068295Y-93796122D01*
X152074383Y-93803224D01*
X152080027Y-93810451D01*
X152085244Y-93817797D01*
X152090049Y-93825265D01*
X152094460Y-93832848D01*
X152102165Y-93848346D01*
X152108484Y-93864273D01*
X152113548Y-93880597D01*
X152117490Y-93897304D01*
X152120441Y-93914366D01*
X152122527Y-93931757D01*
X152123883Y-93949458D01*
X152124638Y-93967437D01*
X152124919Y-93985678D01*
X152124590Y-94022842D01*
X152122977Y-94056919D01*
X152121420Y-94073093D01*
X152119360Y-94088693D01*
X152116794Y-94103723D01*
X152113717Y-94118180D01*
X152110124Y-94132071D01*
X152106017Y-94145395D01*
X152101386Y-94158154D01*
X152096235Y-94170350D01*
X152090554Y-94181987D01*
X152084344Y-94193063D01*
X152077598Y-94203582D01*
X152070314Y-94213547D01*
X152062491Y-94222958D01*
X152054123Y-94231818D01*
X152045206Y-94240127D01*
X152035741Y-94247888D01*
X152025720Y-94255103D01*
X152015142Y-94261773D01*
X152004004Y-94267905D01*
X151992301Y-94273493D01*
X151980029Y-94278541D01*
X151967188Y-94283055D01*
X151953769Y-94287032D01*
X151939775Y-94290476D01*
X151925199Y-94293390D01*
X151910039Y-94295775D01*
X151894291Y-94297630D01*
X151877952Y-94298962D01*
X151843484Y-94300053D01*
X151383382Y-94300195D01*
X151362507Y-94299983D01*
X151352040Y-94299893D01*
X151341695Y-94300029D01*
X151331579Y-94300547D01*
X151321797Y-94301608D01*
X151317065Y-94302394D01*
X151312456Y-94303373D01*
X151307983Y-94304571D01*
X151303661Y-94306001D01*
X151299501Y-94307690D01*
X151295518Y-94309656D01*
X151291723Y-94311916D01*
X151288133Y-94314492D01*
X151284759Y-94317406D01*
X151281614Y-94320672D01*
X151278709Y-94324314D01*
X151276061Y-94328355D01*
X151273684Y-94332809D01*
X151271589Y-94337702D01*
X151269786Y-94343048D01*
X151268295Y-94348870D01*
X151267124Y-94355188D01*
X151266291Y-94362023D01*
X151265805Y-94369394D01*
X151265681Y-94377320D01*
X151265921Y-94385121D01*
X151266507Y-94392388D01*
X151267432Y-94399134D01*
X151268679Y-94405383D01*
X151270240Y-94411158D01*
X151272101Y-94416468D01*
X151274245Y-94421337D01*
X151276666Y-94425786D01*
X151279346Y-94429830D01*
X151282274Y-94433489D01*
X151285439Y-94436783D01*
X151288828Y-94439732D01*
X151292426Y-94442352D01*
X151296223Y-94444664D01*
X151300207Y-94446685D01*
X151304364Y-94448436D01*
X151308682Y-94449937D01*
X151313147Y-94451202D01*
X151322471Y-94453111D01*
X151332234Y-94454316D01*
X151342342Y-94454968D01*
X151352686Y-94455217D01*
X151363173Y-94455216D01*
X151384157Y-94455069D01*
X151703097Y-94455896D01*
X151862561Y-94455686D01*
X152022017Y-94454560D01*
X152034756Y-94454726D01*
X152046581Y-94455533D01*
X152052156Y-94456185D01*
X152057508Y-94457010D01*
X152062636Y-94458011D01*
X152067544Y-94459189D01*
X152072232Y-94460555D01*
X152076700Y-94462107D01*
X152080950Y-94463850D01*
X152084986Y-94465791D01*
X152088808Y-94467933D01*
X152092415Y-94470276D01*
X152095810Y-94472830D01*
X152098993Y-94475596D01*
X152101967Y-94478578D01*
X152104734Y-94481778D01*
X152107293Y-94485206D01*
X152109646Y-94488860D01*
X152111796Y-94492748D01*
X152113740Y-94496873D01*
X152115484Y-94501238D01*
X152117026Y-94505847D01*
X152118371Y-94510708D01*
X152119515Y-94515819D01*
X152120465Y-94521188D01*
X152121215Y-94526818D01*
X152121775Y-94532712D01*
X152122140Y-94538877D01*
X152122297Y-94552027D01*
X152121858Y-94570620D01*
X152121029Y-94587046D01*
X152119587Y-94601424D01*
X152117308Y-94613880D01*
X152115784Y-94619424D01*
X152113964Y-94624537D01*
X152111824Y-94629225D01*
X152109333Y-94633513D01*
X152106465Y-94637410D01*
X152103189Y-94640935D01*
X152099481Y-94644100D01*
X152095309Y-94646924D01*
X152090645Y-94649418D01*
X152085463Y-94651601D01*
X152079735Y-94653487D01*
X152073431Y-94655093D01*
X152058990Y-94657517D01*
X152041908Y-94658998D01*
X152021967Y-94659660D01*
X151998938Y-94659623D01*
X151942721Y-94657947D01*
X151860066Y-94662656D01*
X151778160Y-94664539D01*
X151696891Y-94664356D01*
X151616159Y-94662874D01*
X151455892Y-94659080D01*
X151376148Y-94658300D01*
X151296527Y-94659283D01*
X151283151Y-94659326D01*
X151270262Y-94658731D01*
X151257823Y-94657509D01*
X151245795Y-94655664D01*
X151234143Y-94653216D01*
X151222835Y-94650167D01*
X151211829Y-94646528D01*
X151201092Y-94642311D01*
X151190582Y-94637523D01*
X151180271Y-94632176D01*
X151170119Y-94626280D01*
X151160090Y-94619842D01*
X151150145Y-94612874D01*
X151140251Y-94605386D01*
X151130371Y-94597386D01*
X151120469Y-94588882D01*
X151113150Y-94582137D01*
X151106351Y-94575285D01*
X151100054Y-94568326D01*
X151094242Y-94561266D01*
X151088892Y-94554109D01*
X151083989Y-94546861D01*
X151079510Y-94539522D01*
X151075440Y-94532097D01*
X151071755Y-94524587D01*
X151068443Y-94516999D01*
X151062843Y-94501602D01*
X151058488Y-94485938D01*
X151055228Y-94470030D01*
X151052907Y-94453912D01*
X151051371Y-94437610D01*
X151050467Y-94421157D01*
X151050046Y-94404582D01*
X151050103Y-94337637D01*
X151050283Y-94325009D01*
X151051030Y-94312590D01*
X151052338Y-94300400D01*
X151054194Y-94288445D01*
X151056586Y-94276739D01*
X151059505Y-94265295D01*
X151062935Y-94254123D01*
X151066871Y-94243238D01*
X151071297Y-94232649D01*
X151076203Y-94222369D01*
X151081578Y-94212411D01*
X151087410Y-94202784D01*
X151093685Y-94193504D01*
X151100397Y-94184581D01*
X151107532Y-94176029D01*
X151115077Y-94167854D01*
X151123024Y-94160077D01*
X151131358Y-94152703D01*
X151140074Y-94145745D01*
X151149155Y-94139217D01*
X151158589Y-94133131D01*
X151168365Y-94127499D01*
X151178478Y-94122331D01*
X151188909Y-94117643D01*
X151199650Y-94113444D01*
X151210690Y-94109745D01*
X151222017Y-94106560D01*
X151233619Y-94103901D01*
X151245485Y-94101776D01*
X151257604Y-94100204D01*
X151269965Y-94099195D01*
X151282555Y-94098759D01*
X151410639Y-94097751D01*
X151538737Y-94097453D01*
X151794932Y-94097632D01*
X151817786Y-94097662D01*
X151829051Y-94097483D01*
X151840084Y-94096979D01*
X151850791Y-94096013D01*
X151855993Y-94095309D01*
X151861078Y-94094437D01*
X151866038Y-94093374D01*
X151870857Y-94092106D01*
X151875525Y-94090613D01*
X151880031Y-94088876D01*
X151884364Y-94086881D01*
X151888507Y-94084607D01*
X151892456Y-94082033D01*
X151896193Y-94079149D01*
X151899714Y-94075932D01*
X151902997Y-94072364D01*
X151906040Y-94068427D01*
X151908827Y-94064104D01*
X151911345Y-94059377D01*
X151913585Y-94054225D01*
X151915535Y-94048637D01*
X151917182Y-94042587D01*
X151918516Y-94036062D01*
X151919525Y-94029043D01*
X151920196Y-94021512D01*
X151920519Y-94013448D01*
X151920487Y-94005580D01*
X151920105Y-93998179D01*
X151919392Y-93991231D01*
X151918352Y-93984720D01*
X151917001Y-93978633D01*
X151915346Y-93972953D01*
X151913397Y-93967670D01*
X151911165Y-93962769D01*
X151908663Y-93958233D01*
X151905897Y-93954052D01*
X151902880Y-93950204D01*
X151899621Y-93946683D01*
X151896131Y-93943474D01*
X151892421Y-93940558D01*
X151888500Y-93937925D01*
X151884378Y-93935556D01*
X151880066Y-93933445D01*
X151875577Y-93931572D01*
X151870917Y-93929920D01*
X151866101Y-93928482D01*
X151856032Y-93926180D01*
X151845450Y-93924549D01*
X151834443Y-93923479D01*
X151823090Y-93922853D01*
X151799682Y-93922480D01*
X151491205Y-93921832D01*
X151336967Y-93921830D01*
X151182738Y-93922669D01*
X151169798Y-93922701D01*
X151157374Y-93922481D01*
X151145507Y-93921885D01*
X151134246Y-93920791D01*
X151123632Y-93919083D01*
X151118582Y-93917956D01*
X151113710Y-93916633D01*
X151109021Y-93915095D01*
X151104524Y-93913326D01*
X151100221Y-93911311D01*
X151096117Y-93909036D01*
X151092221Y-93906487D01*
X151088536Y-93903648D01*
X151085065Y-93900502D01*
X151081818Y-93897036D01*
X151078800Y-93893235D01*
X151076015Y-93889082D01*
X151073468Y-93884564D01*
X151071165Y-93879666D01*
X151069112Y-93874370D01*
X151067316Y-93868663D01*
X151065780Y-93862531D01*
X151064509Y-93855955D01*
X151063512Y-93848925D01*
X151062791Y-93841422D01*
X151062350Y-93833432D01*
X151062201Y-93824941D01*
X151062565Y-93809360D01*
X151063690Y-93795030D01*
X151064548Y-93788325D01*
X151065611Y-93781921D01*
X151066880Y-93775811D01*
X151068359Y-93769995D01*
X151070057Y-93764467D01*
X151071970Y-93759223D01*
X151074107Y-93754258D01*
X151076472Y-93749572D01*
X151079068Y-93745157D01*
X151081897Y-93741011D01*
X151084967Y-93737126D01*
X151088279Y-93733505D01*
X151091839Y-93730140D01*
X151095651Y-93727025D01*
X151099716Y-93724158D01*
X151104041Y-93721535D01*
X151108630Y-93719151D01*
X151113485Y-93717006D01*
X151118612Y-93715093D01*
X151124015Y-93713405D01*
X151129695Y-93711941D01*
X151135660Y-93710698D01*
X151141912Y-93709668D01*
X151148456Y-93708853D01*
X151162430Y-93707840D01*
X151177622Y-93707625D01*
X151355374Y-93708908D01*
G37*
G36*
X139687621Y-95001611D02*
G01*
X139686472Y-95013805D01*
X139684710Y-95025982D01*
X139682334Y-95038111D01*
X139679348Y-95050164D01*
X139675751Y-95062118D01*
X139671542Y-95073947D01*
X139666729Y-95085620D01*
X139661304Y-95097113D01*
X139655270Y-95108401D01*
X139648635Y-95119456D01*
X139641391Y-95130252D01*
X139633542Y-95140762D01*
X139625088Y-95150958D01*
X139616636Y-95160140D01*
X139607802Y-95168757D01*
X139598613Y-95176813D01*
X139589091Y-95184301D01*
X139579257Y-95191226D01*
X139569139Y-95197580D01*
X139558752Y-95203369D01*
X139548126Y-95208590D01*
X139537279Y-95213244D01*
X139526235Y-95217329D01*
X139515020Y-95220842D01*
X139503651Y-95223787D01*
X139492158Y-95226156D01*
X139480558Y-95227957D01*
X139468878Y-95229185D01*
X139457136Y-95229837D01*
X139445357Y-95229917D01*
X139433567Y-95229421D01*
X139421784Y-95228350D01*
X139410035Y-95226702D01*
X139398339Y-95224477D01*
X139386722Y-95221674D01*
X139375202Y-95218293D01*
X139363807Y-95214334D01*
X139352561Y-95209793D01*
X139341479Y-95204672D01*
X139330593Y-95198970D01*
X139319919Y-95192684D01*
X139309484Y-95185819D01*
X139299308Y-95178367D01*
X139289414Y-95170334D01*
X139279827Y-95161716D01*
X139271064Y-95152963D01*
X139262867Y-95143827D01*
X139255235Y-95134334D01*
X139248168Y-95124508D01*
X139241670Y-95114375D01*
X139235737Y-95103957D01*
X139230372Y-95093282D01*
X139225574Y-95082373D01*
X139221341Y-95071256D01*
X139217680Y-95059955D01*
X139214580Y-95048497D01*
X139212052Y-95036901D01*
X139210090Y-95025198D01*
X139208694Y-95013410D01*
X139207870Y-95001565D01*
X139207611Y-94989684D01*
X139207894Y-94978862D01*
X139351778Y-94978862D01*
X139354747Y-94992598D01*
X139358240Y-95005394D01*
X139362266Y-95017245D01*
X139364485Y-95022809D01*
X139366843Y-95028137D01*
X139369339Y-95033219D01*
X139371980Y-95038060D01*
X139374763Y-95042655D01*
X139377691Y-95047006D01*
X139380766Y-95051109D01*
X139383989Y-95054963D01*
X139387362Y-95058569D01*
X139390887Y-95061924D01*
X139394562Y-95065027D01*
X139398394Y-95067878D01*
X139402381Y-95070473D01*
X139406527Y-95072813D01*
X139410831Y-95074897D01*
X139415296Y-95076720D01*
X139419925Y-95078287D01*
X139424716Y-95079593D01*
X139429673Y-95080637D01*
X139434798Y-95081416D01*
X139440090Y-95081931D01*
X139445555Y-95082183D01*
X139451189Y-95082167D01*
X139456998Y-95081884D01*
X139462982Y-95081331D01*
X139469141Y-95080505D01*
X139476704Y-95079073D01*
X139483896Y-95077157D01*
X139487346Y-95076022D01*
X139490703Y-95074766D01*
X139493960Y-95073398D01*
X139497120Y-95071912D01*
X139500180Y-95070310D01*
X139503139Y-95068593D01*
X139505998Y-95066764D01*
X139508753Y-95064823D01*
X139511404Y-95062768D01*
X139513950Y-95060606D01*
X139516392Y-95058331D01*
X139518727Y-95055950D01*
X139520951Y-95053458D01*
X139523067Y-95050860D01*
X139525074Y-95048156D01*
X139526972Y-95045346D01*
X139528756Y-95042432D01*
X139530426Y-95039415D01*
X139531983Y-95036296D01*
X139533423Y-95033071D01*
X139534748Y-95029750D01*
X139535958Y-95026327D01*
X139537046Y-95022804D01*
X139538015Y-95019184D01*
X139539593Y-95011651D01*
X139540681Y-95003738D01*
X139541064Y-94999402D01*
X139541305Y-94995129D01*
X139541402Y-94990922D01*
X139541361Y-94986787D01*
X139541178Y-94982715D01*
X139540857Y-94978716D01*
X139540393Y-94974788D01*
X139539788Y-94970932D01*
X139539045Y-94967153D01*
X139538162Y-94963448D01*
X139537138Y-94959820D01*
X139535975Y-94956270D01*
X139534672Y-94952803D01*
X139533229Y-94949415D01*
X139531646Y-94946112D01*
X139529926Y-94942894D01*
X139528065Y-94939760D01*
X139526066Y-94936715D01*
X139523927Y-94933757D01*
X139521650Y-94930889D01*
X139519235Y-94928115D01*
X139516681Y-94925432D01*
X139513990Y-94922846D01*
X139511161Y-94920355D01*
X139508192Y-94917960D01*
X139505087Y-94915665D01*
X139501841Y-94913470D01*
X139498461Y-94911377D01*
X139494943Y-94909388D01*
X139491287Y-94907503D01*
X139487495Y-94905725D01*
X139483565Y-94904054D01*
X139476837Y-94901499D01*
X139470327Y-94899366D01*
X139464027Y-94897638D01*
X139457935Y-94896311D01*
X139452046Y-94895370D01*
X139446357Y-94894805D01*
X139440854Y-94894609D01*
X139435543Y-94894768D01*
X139430414Y-94895274D01*
X139425463Y-94896117D01*
X139420685Y-94897287D01*
X139416075Y-94898770D01*
X139411631Y-94900559D01*
X139407343Y-94902644D01*
X139403208Y-94905012D01*
X139399223Y-94907654D01*
X139395383Y-94910563D01*
X139391682Y-94913724D01*
X139388115Y-94917126D01*
X139384679Y-94920766D01*
X139381366Y-94924626D01*
X139378173Y-94928700D01*
X139372129Y-94937443D01*
X139366506Y-94946914D01*
X139361266Y-94957028D01*
X139356368Y-94967705D01*
X139351778Y-94978862D01*
X139207894Y-94978862D01*
X139207922Y-94977791D01*
X139208800Y-94965916D01*
X139210248Y-94954080D01*
X139212264Y-94942309D01*
X139214847Y-94930628D01*
X139218002Y-94919061D01*
X139221726Y-94907635D01*
X139226016Y-94896371D01*
X139230879Y-94885297D01*
X139236309Y-94874439D01*
X139242310Y-94863818D01*
X139248882Y-94853460D01*
X139256021Y-94843393D01*
X139263732Y-94833640D01*
X139272016Y-94824221D01*
X139280867Y-94815167D01*
X139291181Y-94805369D01*
X139301710Y-94795663D01*
X139323339Y-94776001D01*
X139334408Y-94765759D01*
X139345622Y-94755065D01*
X139356968Y-94743773D01*
X139368429Y-94731751D01*
X139371922Y-94108390D01*
X139372679Y-93491133D01*
X139372809Y-93478972D01*
X139373257Y-93467086D01*
X139374061Y-93455455D01*
X139375265Y-93444073D01*
X139376905Y-93432928D01*
X139379017Y-93422008D01*
X139381642Y-93411305D01*
X139384823Y-93400806D01*
X139388597Y-93390497D01*
X139393000Y-93380370D01*
X139398077Y-93370411D01*
X139403861Y-93360613D01*
X139410397Y-93350962D01*
X139417721Y-93341446D01*
X139425870Y-93332055D01*
X139434890Y-93322781D01*
X139945796Y-92821979D01*
X140454491Y-92318921D01*
X140462577Y-92311228D01*
X140470749Y-92304103D01*
X140479026Y-92297539D01*
X140487426Y-92291523D01*
X140495960Y-92286049D01*
X140504644Y-92281108D01*
X140513495Y-92276689D01*
X140522525Y-92272787D01*
X140531751Y-92269386D01*
X140541188Y-92266484D01*
X140550853Y-92264070D01*
X140560759Y-92262136D01*
X140570922Y-92260667D01*
X140581361Y-92259664D01*
X140592081Y-92259109D01*
X140603109Y-92258996D01*
X141229831Y-92260571D01*
X141270828Y-92259882D01*
X141281026Y-92260125D01*
X141290971Y-92260875D01*
X141295808Y-92261498D01*
X141300540Y-92262313D01*
X141305146Y-92263344D01*
X141309613Y-92264609D01*
X141313928Y-92266132D01*
X141318076Y-92267937D01*
X141322042Y-92270040D01*
X141325811Y-92272467D01*
X141329366Y-92275240D01*
X141332694Y-92278378D01*
X141335780Y-92281904D01*
X141338610Y-92285840D01*
X141341167Y-92290207D01*
X141343441Y-92295025D01*
X141345413Y-92300321D01*
X141347068Y-92306110D01*
X141348392Y-92312419D01*
X141349371Y-92319268D01*
X141349990Y-92326677D01*
X141350234Y-92334666D01*
X141350082Y-92343309D01*
X141349518Y-92351305D01*
X141348561Y-92358679D01*
X141347229Y-92365458D01*
X141345536Y-92371665D01*
X141343499Y-92377323D01*
X141341133Y-92382459D01*
X141338458Y-92387096D01*
X141335486Y-92391259D01*
X141332234Y-92394971D01*
X141328720Y-92398259D01*
X141324960Y-92401145D01*
X141320974Y-92403653D01*
X141316770Y-92405810D01*
X141312366Y-92407638D01*
X141307785Y-92409161D01*
X141303040Y-92410408D01*
X141298145Y-92411399D01*
X141287970Y-92412715D01*
X141277402Y-92413305D01*
X141266561Y-92413362D01*
X141223124Y-92412187D01*
X140951529Y-92413400D01*
X140815739Y-92412706D01*
X140679985Y-92410499D01*
X140666182Y-92410438D01*
X140652783Y-92410916D01*
X140639765Y-92411943D01*
X140627103Y-92413542D01*
X140614779Y-92415728D01*
X140602765Y-92418518D01*
X140591039Y-92421927D01*
X140579578Y-92425971D01*
X140568357Y-92430670D01*
X140557351Y-92436037D01*
X140546543Y-92442093D01*
X140535906Y-92448852D01*
X140525415Y-92456329D01*
X140515048Y-92464545D01*
X140504781Y-92473513D01*
X140494593Y-92483253D01*
X140034328Y-92938714D01*
X139571244Y-93391316D01*
X139562743Y-93400043D01*
X139555044Y-93408893D01*
X139548113Y-93417878D01*
X139541916Y-93427004D01*
X139536416Y-93436279D01*
X139531581Y-93445711D01*
X139527375Y-93455311D01*
X139523760Y-93465086D01*
X139520707Y-93475046D01*
X139518178Y-93485197D01*
X139516138Y-93495553D01*
X139514554Y-93506116D01*
X139513390Y-93516896D01*
X139512611Y-93527907D01*
X139512184Y-93539152D01*
X139512073Y-93550644D01*
X139512969Y-94093815D01*
X139511081Y-94636977D01*
X139511179Y-94650176D01*
X139511702Y-94662852D01*
X139512699Y-94675032D01*
X139514224Y-94686748D01*
X139516325Y-94698023D01*
X139519051Y-94708890D01*
X139520665Y-94714180D01*
X139522455Y-94719375D01*
X139524424Y-94724484D01*
X139526588Y-94729507D01*
X139528941Y-94734447D01*
X139531499Y-94739310D01*
X139534261Y-94744098D01*
X139537238Y-94748815D01*
X139540436Y-94753465D01*
X139543859Y-94758052D01*
X139547515Y-94762576D01*
X139551409Y-94767043D01*
X139555551Y-94771457D01*
X139559943Y-94775822D01*
X139564593Y-94780136D01*
X139569508Y-94784410D01*
X139574692Y-94788644D01*
X139580154Y-94792842D01*
X139585900Y-94797007D01*
X139591936Y-94801141D01*
X139602584Y-94808701D01*
X139612605Y-94816746D01*
X139622000Y-94825242D01*
X139630768Y-94834170D01*
X139638909Y-94843502D01*
X139646424Y-94853208D01*
X139653315Y-94863267D01*
X139659586Y-94873646D01*
X139665231Y-94884326D01*
X139670253Y-94895273D01*
X139674657Y-94906467D01*
X139678441Y-94917877D01*
X139681604Y-94929477D01*
X139684148Y-94941242D01*
X139686076Y-94953145D01*
X139687387Y-94965161D01*
X139688081Y-94977261D01*
X139688158Y-94989421D01*
X139688091Y-94990922D01*
X139687621Y-95001611D01*
G37*
G36*
X158734972Y-93094586D02*
G01*
X159118391Y-93479320D01*
X159125015Y-93486223D01*
X159131215Y-93493224D01*
X159136986Y-93500342D01*
X159142326Y-93507588D01*
X159147237Y-93514974D01*
X159151714Y-93522515D01*
X159155764Y-93530221D01*
X159159379Y-93538105D01*
X159162561Y-93546186D01*
X159165310Y-93554468D01*
X159167625Y-93562969D01*
X159169505Y-93571700D01*
X159170947Y-93580675D01*
X159171955Y-93589907D01*
X159172524Y-93599408D01*
X159172657Y-93609190D01*
X159171659Y-93922562D01*
X159171622Y-94235939D01*
X159171727Y-94254210D01*
X159171701Y-94263319D01*
X159171453Y-94272301D01*
X159170849Y-94281076D01*
X159169761Y-94289559D01*
X159168997Y-94293663D01*
X159168062Y-94297666D01*
X159166940Y-94301554D01*
X159165622Y-94305318D01*
X159164080Y-94308945D01*
X159162306Y-94312428D01*
X159160283Y-94315754D01*
X159157991Y-94318918D01*
X159155419Y-94321903D01*
X159152548Y-94324702D01*
X159149360Y-94327304D01*
X159145841Y-94329699D01*
X159141976Y-94331878D01*
X159137747Y-94333826D01*
X159133139Y-94335538D01*
X159128132Y-94337001D01*
X159122718Y-94338207D01*
X159116871Y-94339142D01*
X159110582Y-94339799D01*
X159103832Y-94340165D01*
X159096089Y-94340226D01*
X159088917Y-94339919D01*
X159082297Y-94339261D01*
X159076207Y-94338262D01*
X159070624Y-94336938D01*
X159065528Y-94335304D01*
X159060897Y-94333374D01*
X159056709Y-94331162D01*
X159052944Y-94328683D01*
X159049580Y-94325950D01*
X159046595Y-94322980D01*
X159043966Y-94319787D01*
X159041674Y-94316380D01*
X159039698Y-94312781D01*
X159038012Y-94309002D01*
X159036600Y-94305055D01*
X159035436Y-94300956D01*
X159034501Y-94296720D01*
X159033233Y-94287891D01*
X159032622Y-94278684D01*
X159032494Y-94269213D01*
X159033392Y-94231016D01*
X159032132Y-93954198D01*
X159032430Y-93815790D01*
X159033659Y-93677395D01*
X159033585Y-93666972D01*
X159033082Y-93656862D01*
X159032144Y-93647047D01*
X159030767Y-93637512D01*
X159028936Y-93628240D01*
X159026650Y-93619213D01*
X159023897Y-93610415D01*
X159020671Y-93601828D01*
X159016965Y-93593435D01*
X159012769Y-93585223D01*
X159008081Y-93577172D01*
X159002885Y-93569266D01*
X158997178Y-93561487D01*
X158990953Y-93553819D01*
X158984202Y-93546247D01*
X158976912Y-93538753D01*
X158631701Y-93195693D01*
X158283076Y-92847582D01*
X158279119Y-92843722D01*
X158275134Y-92840145D01*
X158271122Y-92836841D01*
X158267089Y-92833802D01*
X158263027Y-92831013D01*
X158258945Y-92828464D01*
X158254841Y-92826147D01*
X158250719Y-92824052D01*
X158246577Y-92822162D01*
X158242418Y-92820475D01*
X158234056Y-92817649D01*
X158225640Y-92815496D01*
X158217184Y-92813926D01*
X158208698Y-92812858D01*
X158200191Y-92812204D01*
X158191677Y-92811883D01*
X158183165Y-92811807D01*
X158149356Y-92812289D01*
X156812277Y-92811346D01*
X156799992Y-92811470D01*
X156788130Y-92811966D01*
X156776666Y-92812880D01*
X156765577Y-92814257D01*
X156754841Y-92816142D01*
X156744433Y-92818582D01*
X156734331Y-92821623D01*
X156724506Y-92825314D01*
X156719693Y-92827415D01*
X156714943Y-92829694D01*
X156710250Y-92832158D01*
X156705613Y-92834813D01*
X156701029Y-92837662D01*
X156696495Y-92840717D01*
X156692008Y-92843974D01*
X156687564Y-92847448D01*
X156683162Y-92851141D01*
X156678799Y-92855058D01*
X156674469Y-92859206D01*
X156670174Y-92863589D01*
X156665907Y-92868215D01*
X156661667Y-92873087D01*
X156653254Y-92883599D01*
X156644833Y-92894111D01*
X156636047Y-92903964D01*
X156626910Y-92913159D01*
X156617447Y-92921700D01*
X156607675Y-92929588D01*
X156597620Y-92936824D01*
X156587298Y-92943409D01*
X156576736Y-92949348D01*
X156565948Y-92954641D01*
X156554959Y-92959288D01*
X156543789Y-92963292D01*
X156532458Y-92966655D01*
X156520989Y-92969380D01*
X156509402Y-92971467D01*
X156497715Y-92972920D01*
X156485952Y-92973738D01*
X156474133Y-92973925D01*
X156462278Y-92973482D01*
X156450413Y-92972408D01*
X156438551Y-92970710D01*
X156426718Y-92968388D01*
X156414934Y-92965443D01*
X156403216Y-92961874D01*
X156391593Y-92957686D01*
X156380081Y-92952883D01*
X156368698Y-92947465D01*
X156357469Y-92941429D01*
X156346416Y-92934784D01*
X156335555Y-92927528D01*
X156324911Y-92919662D01*
X156314503Y-92911190D01*
X156304352Y-92902116D01*
X156295391Y-92893299D01*
X156287001Y-92884184D01*
X156279179Y-92874786D01*
X156271931Y-92865124D01*
X156265250Y-92855223D01*
X156259143Y-92845096D01*
X156253605Y-92834767D01*
X156248641Y-92824255D01*
X156244245Y-92813577D01*
X156240423Y-92802755D01*
X156237173Y-92791806D01*
X156234493Y-92780752D01*
X156232387Y-92769613D01*
X156230853Y-92758407D01*
X156229891Y-92747151D01*
X156229501Y-92735868D01*
X156229595Y-92730070D01*
X156372064Y-92730070D01*
X156372188Y-92734863D01*
X156372733Y-92739654D01*
X156373702Y-92744443D01*
X156375096Y-92749236D01*
X156376916Y-92754028D01*
X156379160Y-92758818D01*
X156381828Y-92763615D01*
X156384919Y-92768413D01*
X156388435Y-92773216D01*
X156392381Y-92778023D01*
X156396748Y-92782839D01*
X156401543Y-92787659D01*
X156406763Y-92792487D01*
X156412408Y-92797326D01*
X156418479Y-92802172D01*
X156424977Y-92807030D01*
X156431902Y-92811901D01*
X156447028Y-92821677D01*
X156463864Y-92831507D01*
X156475825Y-92829015D01*
X156487067Y-92826127D01*
X156497585Y-92822823D01*
X156507373Y-92819084D01*
X156511991Y-92817047D01*
X156516421Y-92814892D01*
X156520667Y-92812619D01*
X156524725Y-92810225D01*
X156528592Y-92807707D01*
X156532273Y-92805064D01*
X156535761Y-92802291D01*
X156539059Y-92799392D01*
X156542163Y-92796357D01*
X156545071Y-92793184D01*
X156547790Y-92789878D01*
X156550312Y-92786426D01*
X156552636Y-92782836D01*
X156554763Y-92779097D01*
X156556693Y-92775212D01*
X156558423Y-92771175D01*
X156559953Y-92766988D01*
X156561280Y-92762644D01*
X156562408Y-92758142D01*
X156563329Y-92753480D01*
X156564050Y-92748657D01*
X156564564Y-92743669D01*
X156564871Y-92738512D01*
X156564974Y-92733186D01*
X156564908Y-92729236D01*
X156564715Y-92725363D01*
X156564397Y-92721566D01*
X156563952Y-92717846D01*
X156563382Y-92714207D01*
X156562687Y-92710642D01*
X156561870Y-92707161D01*
X156560929Y-92703759D01*
X156559863Y-92700437D01*
X156558675Y-92697200D01*
X156557366Y-92694047D01*
X156555934Y-92690977D01*
X156554382Y-92687990D01*
X156552709Y-92685092D01*
X156550914Y-92682278D01*
X156549004Y-92679553D01*
X156546971Y-92676914D01*
X156544822Y-92674366D01*
X156542554Y-92671905D01*
X156540169Y-92669537D01*
X156537666Y-92667260D01*
X156535048Y-92665074D01*
X156532312Y-92662982D01*
X156529462Y-92660986D01*
X156526499Y-92659080D01*
X156523419Y-92657272D01*
X156520227Y-92655559D01*
X156516920Y-92653944D01*
X156513501Y-92652427D01*
X156509971Y-92651008D01*
X156506327Y-92649690D01*
X156502573Y-92648473D01*
X156495179Y-92646465D01*
X156487881Y-92645002D01*
X156480682Y-92644073D01*
X156477123Y-92643806D01*
X156473592Y-92643672D01*
X156470088Y-92643666D01*
X156466611Y-92643789D01*
X156463164Y-92644041D01*
X156459746Y-92644418D01*
X156453005Y-92645551D01*
X156446390Y-92647175D01*
X156439905Y-92649284D01*
X156433559Y-92651873D01*
X156427355Y-92654930D01*
X156421296Y-92658448D01*
X156415392Y-92662418D01*
X156409642Y-92666832D01*
X156404059Y-92671683D01*
X156398644Y-92676960D01*
X156394113Y-92681834D01*
X156390006Y-92686696D01*
X156386321Y-92691546D01*
X156383059Y-92696387D01*
X156380220Y-92701219D01*
X156377804Y-92706041D01*
X156375809Y-92710860D01*
X156374238Y-92715668D01*
X156373091Y-92720473D01*
X156372364Y-92725273D01*
X156372064Y-92730070D01*
X156229595Y-92730070D01*
X156229684Y-92724577D01*
X156230441Y-92713298D01*
X156231771Y-92702047D01*
X156233674Y-92690848D01*
X156236151Y-92679720D01*
X156239202Y-92668677D01*
X156242825Y-92657745D01*
X156247024Y-92646943D01*
X156251798Y-92636285D01*
X156257144Y-92625795D01*
X156263066Y-92615493D01*
X156269565Y-92605396D01*
X156276637Y-92595526D01*
X156284283Y-92585899D01*
X156292507Y-92576539D01*
X156301304Y-92567461D01*
X156310697Y-92558678D01*
X156320410Y-92550445D01*
X156330420Y-92542776D01*
X156340705Y-92535668D01*
X156351242Y-92529126D01*
X156362002Y-92523156D01*
X156372968Y-92517758D01*
X156384112Y-92512936D01*
X156395412Y-92508692D01*
X156406844Y-92505032D01*
X156418385Y-92501958D01*
X156430011Y-92499471D01*
X156441698Y-92497577D01*
X156453423Y-92496278D01*
X156465160Y-92495576D01*
X156476891Y-92495478D01*
X156488586Y-92495984D01*
X156500225Y-92497097D01*
X156511783Y-92498827D01*
X156523236Y-92501165D01*
X156534564Y-92504122D01*
X156545740Y-92507703D01*
X156556741Y-92511905D01*
X156567541Y-92516737D01*
X156578122Y-92522198D01*
X156588455Y-92528293D01*
X156598519Y-92535025D01*
X156608290Y-92542399D01*
X156617747Y-92550416D01*
X156626859Y-92559078D01*
X156635611Y-92568392D01*
X156643972Y-92578358D01*
X156654112Y-92590436D01*
X156664360Y-92601259D01*
X156674744Y-92610896D01*
X156685286Y-92619410D01*
X156696005Y-92626865D01*
X156706926Y-92633327D01*
X156718071Y-92638859D01*
X156729461Y-92643530D01*
X156741119Y-92647397D01*
X156753069Y-92650534D01*
X156765330Y-92652998D01*
X156777926Y-92654863D01*
X156790879Y-92656182D01*
X156804212Y-92657029D01*
X156817945Y-92657467D01*
X156832105Y-92657557D01*
X158190075Y-92656567D01*
X158212631Y-92656837D01*
X158223694Y-92657285D01*
X158234605Y-92658017D01*
X158245365Y-92659086D01*
X158255967Y-92660547D01*
X158266412Y-92662453D01*
X158276695Y-92664860D01*
X158286809Y-92667825D01*
X158296754Y-92671402D01*
X158306527Y-92675642D01*
X158316123Y-92680605D01*
X158325536Y-92686340D01*
X158334768Y-92692907D01*
X158339313Y-92696518D01*
X158343813Y-92700358D01*
X158348264Y-92704430D01*
X158352667Y-92708747D01*
X158376882Y-92733186D01*
X158734972Y-93094586D01*
G37*
G36*
X159797909Y-95005521D02*
G01*
X159796380Y-95017627D01*
X159794221Y-95029703D01*
X159791440Y-95041723D01*
X159788045Y-95053662D01*
X159784043Y-95065489D01*
X159779435Y-95077176D01*
X159774234Y-95088697D01*
X159768441Y-95100025D01*
X159762066Y-95111134D01*
X159755115Y-95121992D01*
X159747591Y-95132577D01*
X159739505Y-95142856D01*
X159730859Y-95152808D01*
X159721663Y-95162399D01*
X159711919Y-95171604D01*
X159702372Y-95179756D01*
X159692549Y-95187300D01*
X159682470Y-95194242D01*
X159672155Y-95200581D01*
X159661621Y-95206317D01*
X159650893Y-95211452D01*
X159639989Y-95215994D01*
X159628924Y-95219937D01*
X159617724Y-95223288D01*
X159606406Y-95226045D01*
X159594988Y-95228214D01*
X159583498Y-95229795D01*
X159571946Y-95230787D01*
X159560357Y-95231195D01*
X159548748Y-95231020D01*
X159537144Y-95230263D01*
X159525561Y-95228926D01*
X159514021Y-95227014D01*
X159502537Y-95224522D01*
X159491139Y-95221459D01*
X159479840Y-95217823D01*
X159468663Y-95213617D01*
X159457627Y-95208841D01*
X159446751Y-95203496D01*
X159436056Y-95197589D01*
X159425558Y-95191117D01*
X159415285Y-95184085D01*
X159405249Y-95176491D01*
X159395475Y-95168343D01*
X159385980Y-95159634D01*
X159376784Y-95150372D01*
X159367908Y-95140559D01*
X159359839Y-95130714D01*
X159352391Y-95120612D01*
X159345557Y-95110266D01*
X159339335Y-95099703D01*
X159333727Y-95088938D01*
X159328725Y-95077994D01*
X159324332Y-95066891D01*
X159320547Y-95055654D01*
X159317359Y-95044297D01*
X159314773Y-95032849D01*
X159312788Y-95021322D01*
X159311397Y-95009742D01*
X159310602Y-94998127D01*
X159310430Y-94988260D01*
X159460691Y-94988260D01*
X159461165Y-94995787D01*
X159462269Y-95003375D01*
X159463976Y-95011007D01*
X159466276Y-95018664D01*
X159469150Y-95026324D01*
X159472579Y-95033969D01*
X159476684Y-95041667D01*
X159478903Y-95045300D01*
X159481231Y-95048782D01*
X159483663Y-95052117D01*
X159486195Y-95055301D01*
X159488827Y-95058332D01*
X159491552Y-95061210D01*
X159494372Y-95063932D01*
X159497279Y-95066496D01*
X159500274Y-95068903D01*
X159503349Y-95071146D01*
X159506506Y-95073233D01*
X159509739Y-95075152D01*
X159513045Y-95076909D01*
X159516424Y-95078495D01*
X159519870Y-95079917D01*
X159523378Y-95081167D01*
X159526950Y-95082248D01*
X159530579Y-95083157D01*
X159534265Y-95083888D01*
X159538001Y-95084446D01*
X159541788Y-95084824D01*
X159545619Y-95085024D01*
X159549497Y-95085044D01*
X159553414Y-95084879D01*
X159557366Y-95084532D01*
X159561355Y-95084000D01*
X159565373Y-95083279D01*
X159569418Y-95082373D01*
X159573491Y-95081275D01*
X159577581Y-95079983D01*
X159588360Y-95075998D01*
X159598491Y-95071523D01*
X159607921Y-95066551D01*
X159616600Y-95061069D01*
X159620641Y-95058137D01*
X159624476Y-95055070D01*
X159628099Y-95051872D01*
X159631500Y-95048540D01*
X159634674Y-95045074D01*
X159637617Y-95041472D01*
X159640318Y-95037732D01*
X159642776Y-95033854D01*
X159644981Y-95029835D01*
X159646928Y-95025675D01*
X159648608Y-95021375D01*
X159650018Y-95016926D01*
X159651150Y-95012336D01*
X159651996Y-95007598D01*
X159652554Y-95002713D01*
X159652813Y-94997679D01*
X159652769Y-94992494D01*
X159652415Y-94987155D01*
X159651746Y-94981667D01*
X159650752Y-94976024D01*
X159649428Y-94970225D01*
X159647769Y-94964268D01*
X159645769Y-94958154D01*
X159643419Y-94951881D01*
X159638947Y-94945628D01*
X159634467Y-94939747D01*
X159629979Y-94934231D01*
X159625481Y-94929076D01*
X159620975Y-94924284D01*
X159616454Y-94919852D01*
X159611926Y-94915772D01*
X159607385Y-94912043D01*
X159602834Y-94908666D01*
X159598272Y-94905633D01*
X159593696Y-94902945D01*
X159589108Y-94900598D01*
X159584506Y-94898586D01*
X159579892Y-94896909D01*
X159575262Y-94895564D01*
X159570619Y-94894548D01*
X159565959Y-94893857D01*
X159561285Y-94893491D01*
X159556596Y-94893442D01*
X159551887Y-94893713D01*
X159547164Y-94894296D01*
X159542424Y-94895191D01*
X159537666Y-94896396D01*
X159532890Y-94897903D01*
X159528095Y-94899715D01*
X159523280Y-94901824D01*
X159518447Y-94904233D01*
X159513595Y-94906934D01*
X159508721Y-94909926D01*
X159503826Y-94913204D01*
X159498911Y-94916771D01*
X159493973Y-94920617D01*
X159490525Y-94923510D01*
X159487280Y-94926468D01*
X159484233Y-94929491D01*
X159481378Y-94932577D01*
X159478722Y-94935716D01*
X159476254Y-94938914D01*
X159473977Y-94942166D01*
X159471889Y-94945471D01*
X159469985Y-94948823D01*
X159468263Y-94952223D01*
X159466724Y-94955667D01*
X159465366Y-94959152D01*
X159464184Y-94962677D01*
X159463177Y-94966241D01*
X159462343Y-94969837D01*
X159461678Y-94973466D01*
X159461184Y-94977126D01*
X159460855Y-94980813D01*
X159460691Y-94988260D01*
X159310430Y-94988260D01*
X159310399Y-94986499D01*
X159310784Y-94974881D01*
X159311757Y-94963290D01*
X159313317Y-94951749D01*
X159315460Y-94940277D01*
X159318183Y-94928897D01*
X159321485Y-94917628D01*
X159325366Y-94906491D01*
X159329820Y-94895506D01*
X159334849Y-94884695D01*
X159340447Y-94874080D01*
X159346613Y-94863679D01*
X159353348Y-94853512D01*
X159360643Y-94843607D01*
X159368503Y-94833975D01*
X159376923Y-94824641D01*
X159385898Y-94815627D01*
X159395429Y-94806952D01*
X159405515Y-94798638D01*
X159410644Y-94794790D01*
X159415936Y-94791089D01*
X159426772Y-94783856D01*
X159432204Y-94780185D01*
X159437570Y-94776392D01*
X159442811Y-94772403D01*
X159447871Y-94768149D01*
X159452695Y-94763565D01*
X159455000Y-94761126D01*
X159457221Y-94758580D01*
X159459357Y-94755917D01*
X159461400Y-94753127D01*
X159463338Y-94750206D01*
X159465166Y-94747140D01*
X159466878Y-94743920D01*
X159468467Y-94740544D01*
X159469923Y-94736996D01*
X159471244Y-94733274D01*
X159472420Y-94729368D01*
X159473443Y-94725263D01*
X159474306Y-94720960D01*
X159475005Y-94716444D01*
X159475686Y-94128760D01*
X159478425Y-93547615D01*
X159478262Y-93532166D01*
X159477455Y-93517253D01*
X159475989Y-93502847D01*
X159473856Y-93488909D01*
X159471048Y-93475410D01*
X159467559Y-93462314D01*
X159463376Y-93449591D01*
X159458489Y-93437203D01*
X159452895Y-93425123D01*
X159446585Y-93413312D01*
X159439545Y-93401743D01*
X159431769Y-93390379D01*
X159423250Y-93379188D01*
X159413977Y-93368134D01*
X159403943Y-93357188D01*
X159393141Y-93346314D01*
X159173958Y-93133294D01*
X158955607Y-92919416D01*
X158738446Y-92704340D01*
X158522836Y-92487736D01*
X158509690Y-92474941D01*
X158496486Y-92463144D01*
X158483186Y-92452328D01*
X158469753Y-92442470D01*
X158456146Y-92433547D01*
X158442327Y-92425540D01*
X158428259Y-92418428D01*
X158413900Y-92412188D01*
X158399214Y-92406800D01*
X158384161Y-92402247D01*
X158368702Y-92398500D01*
X158352801Y-92395544D01*
X158336413Y-92393355D01*
X158319506Y-92391913D01*
X158302040Y-92391196D01*
X158283973Y-92391184D01*
X158064524Y-92393714D01*
X157845033Y-92394067D01*
X157406021Y-92392736D01*
X157385905Y-92392624D01*
X157376053Y-92392317D01*
X157366440Y-92391686D01*
X157357149Y-92390609D01*
X157352649Y-92389866D01*
X157348259Y-92388966D01*
X157343988Y-92387894D01*
X157339844Y-92386638D01*
X157335843Y-92385180D01*
X157331992Y-92383504D01*
X157328300Y-92381597D01*
X157324776Y-92379448D01*
X157321431Y-92377033D01*
X157318274Y-92374343D01*
X157315318Y-92371361D01*
X157312570Y-92368076D01*
X157310041Y-92364468D01*
X157307742Y-92360523D01*
X157305680Y-92356230D01*
X157303866Y-92351569D01*
X157302312Y-92346527D01*
X157301024Y-92341090D01*
X157300016Y-92335241D01*
X157299295Y-92328967D01*
X157298873Y-92322252D01*
X157298759Y-92315082D01*
X157298958Y-92307875D01*
X157299466Y-92301137D01*
X157300276Y-92294852D01*
X157301370Y-92289003D01*
X157302743Y-92283575D01*
X157304384Y-92278553D01*
X157306280Y-92273918D01*
X157308424Y-92269662D01*
X157310807Y-92265761D01*
X157313413Y-92262202D01*
X157316239Y-92258972D01*
X157319268Y-92256051D01*
X157322495Y-92253425D01*
X157325905Y-92251080D01*
X157329494Y-92248998D01*
X157333246Y-92247166D01*
X157337150Y-92245564D01*
X157341201Y-92244181D01*
X157349697Y-92242001D01*
X157358648Y-92240500D01*
X157367970Y-92239551D01*
X157377586Y-92239031D01*
X157387409Y-92238810D01*
X157407355Y-92238775D01*
X158400311Y-92237693D01*
X158412359Y-92237947D01*
X158423967Y-92238849D01*
X158435157Y-92240375D01*
X158445961Y-92242513D01*
X158456403Y-92245242D01*
X158466510Y-92248544D01*
X158476312Y-92252404D01*
X158485836Y-92256801D01*
X158495103Y-92261719D01*
X158504148Y-92267142D01*
X158512995Y-92273049D01*
X158521668Y-92279426D01*
X158530199Y-92286249D01*
X158538615Y-92293508D01*
X158546939Y-92301178D01*
X158555200Y-92309249D01*
X159050183Y-92804583D01*
X159547268Y-93297796D01*
X159557925Y-93308693D01*
X159567831Y-93319669D01*
X159577005Y-93330756D01*
X159585442Y-93341986D01*
X159593160Y-93353389D01*
X159600160Y-93364999D01*
X159606443Y-93376850D01*
X159612023Y-93388972D01*
X159616903Y-93401393D01*
X159621091Y-93414152D01*
X159624592Y-93427277D01*
X159627412Y-93440799D01*
X159629556Y-93454749D01*
X159631033Y-93469165D01*
X159631850Y-93484072D01*
X159632009Y-93499507D01*
X159629417Y-94586515D01*
X159629642Y-94620537D01*
X159630257Y-94636951D01*
X159631355Y-94652989D01*
X159633045Y-94668667D01*
X159635431Y-94684000D01*
X159638626Y-94699007D01*
X159642735Y-94713697D01*
X159647873Y-94728096D01*
X159650861Y-94735188D01*
X159654144Y-94742213D01*
X159657741Y-94749174D01*
X159661660Y-94756069D01*
X159665918Y-94762900D01*
X159670528Y-94769674D01*
X159675504Y-94776388D01*
X159680856Y-94783047D01*
X159686604Y-94789653D01*
X159692756Y-94796205D01*
X159699329Y-94802709D01*
X159706336Y-94809166D01*
X159713788Y-94815574D01*
X159721700Y-94821941D01*
X159731817Y-94830334D01*
X159741198Y-94839163D01*
X159749850Y-94848406D01*
X159757776Y-94858029D01*
X159764986Y-94868009D01*
X159771486Y-94878319D01*
X159777284Y-94888928D01*
X159782381Y-94899810D01*
X159786790Y-94910939D01*
X159790512Y-94922286D01*
X159793551Y-94933823D01*
X159795921Y-94945524D01*
X159797626Y-94957361D01*
X159798671Y-94969307D01*
X159799063Y-94981335D01*
X159798806Y-94993413D01*
X159798490Y-94997679D01*
X159797909Y-95005521D01*
G37*
G36*
X139651678Y-92722924D02*
G01*
X139640408Y-92731725D01*
X139628968Y-92739792D01*
X139617325Y-92747106D01*
X139605449Y-92753647D01*
X139593314Y-92759390D01*
X139580881Y-92764316D01*
X139568124Y-92768406D01*
X139555014Y-92771640D01*
X139541518Y-92773991D01*
X139527607Y-92775443D01*
X139513249Y-92775976D01*
X139498415Y-92775568D01*
X139483070Y-92774198D01*
X139468880Y-92772820D01*
X139455114Y-92772140D01*
X139441756Y-92772195D01*
X139428785Y-92773020D01*
X139416189Y-92774646D01*
X139410024Y-92775774D01*
X139403947Y-92777114D01*
X139397955Y-92778673D01*
X139392045Y-92780456D01*
X139386214Y-92782463D01*
X139380461Y-92784703D01*
X139374788Y-92787178D01*
X139369183Y-92789894D01*
X139363652Y-92792854D01*
X139358192Y-92796065D01*
X139352796Y-92799525D01*
X139347466Y-92803245D01*
X139342200Y-92807225D01*
X139336995Y-92811475D01*
X139331846Y-92815993D01*
X139326755Y-92820788D01*
X139321716Y-92825859D01*
X139316734Y-92831215D01*
X139311797Y-92836859D01*
X139306910Y-92842794D01*
X139297271Y-92855561D01*
X139289533Y-92865745D01*
X139281330Y-92875303D01*
X139272693Y-92884243D01*
X139263651Y-92892561D01*
X139254226Y-92900263D01*
X139244450Y-92907350D01*
X139234346Y-92913824D01*
X139223945Y-92919684D01*
X139213270Y-92924933D01*
X139202353Y-92929576D01*
X139191216Y-92933610D01*
X139179891Y-92937040D01*
X139168404Y-92939866D01*
X139156779Y-92942091D01*
X139145049Y-92943714D01*
X139133237Y-92944740D01*
X139121369Y-92945170D01*
X139109477Y-92945005D01*
X139097584Y-92944247D01*
X139085721Y-92942898D01*
X139073910Y-92940959D01*
X139062184Y-92938433D01*
X139050567Y-92935321D01*
X139039086Y-92931624D01*
X139027768Y-92927345D01*
X139016643Y-92922485D01*
X139005736Y-92917047D01*
X138995074Y-92911030D01*
X138984685Y-92904438D01*
X138974596Y-92897274D01*
X138964832Y-92889537D01*
X138955427Y-92881229D01*
X138946208Y-92872196D01*
X138937592Y-92862846D01*
X138929576Y-92853199D01*
X138922160Y-92843280D01*
X138915345Y-92833105D01*
X138909129Y-92822695D01*
X138903513Y-92812075D01*
X138898497Y-92801265D01*
X138894079Y-92790281D01*
X138890261Y-92779150D01*
X138887044Y-92767891D01*
X138884425Y-92756523D01*
X138882403Y-92745067D01*
X138880984Y-92733551D01*
X138880162Y-92721988D01*
X138880051Y-92716252D01*
X139028713Y-92716252D01*
X139028890Y-92721540D01*
X139029279Y-92726670D01*
X139029883Y-92731641D01*
X139030691Y-92736451D01*
X139031710Y-92741097D01*
X139032936Y-92745586D01*
X139034373Y-92749910D01*
X139036015Y-92754074D01*
X139037863Y-92758075D01*
X139039917Y-92761911D01*
X139042177Y-92765583D01*
X139044641Y-92769090D01*
X139047310Y-92772432D01*
X139050180Y-92775609D01*
X139053255Y-92778618D01*
X139056529Y-92781461D01*
X139060004Y-92784133D01*
X139063683Y-92786644D01*
X139067557Y-92788981D01*
X139071631Y-92791148D01*
X139075906Y-92793146D01*
X139080377Y-92794974D01*
X139085045Y-92796631D01*
X139089910Y-92798117D01*
X139094968Y-92799430D01*
X139100227Y-92800571D01*
X139105677Y-92801537D01*
X139111319Y-92802329D01*
X139117158Y-92802948D01*
X139124230Y-92801223D01*
X139130994Y-92799351D01*
X139137447Y-92797343D01*
X139143596Y-92795196D01*
X139149441Y-92792909D01*
X139154986Y-92790485D01*
X139160234Y-92787929D01*
X139165184Y-92785238D01*
X139169843Y-92782413D01*
X139174213Y-92779460D01*
X139178293Y-92776377D01*
X139182089Y-92773164D01*
X139185607Y-92769828D01*
X139188842Y-92766364D01*
X139191802Y-92762777D01*
X139194485Y-92759068D01*
X139196900Y-92755238D01*
X139199045Y-92751290D01*
X139200924Y-92747223D01*
X139202540Y-92743040D01*
X139203895Y-92738741D01*
X139204992Y-92734330D01*
X139205835Y-92729805D01*
X139206423Y-92725168D01*
X139206763Y-92720425D01*
X139206854Y-92715571D01*
X139206701Y-92710611D01*
X139206306Y-92705548D01*
X139205671Y-92700379D01*
X139204800Y-92695108D01*
X139203694Y-92689737D01*
X139202358Y-92684265D01*
X139199912Y-92676233D01*
X139198487Y-92672371D01*
X139196930Y-92668617D01*
X139195237Y-92664972D01*
X139193421Y-92661443D01*
X139191476Y-92658026D01*
X139189412Y-92654730D01*
X139187225Y-92651548D01*
X139184915Y-92648494D01*
X139182495Y-92645565D01*
X139179963Y-92642762D01*
X139177316Y-92640090D01*
X139174564Y-92637551D01*
X139171704Y-92635148D01*
X139168742Y-92632882D01*
X139165679Y-92630757D01*
X139162518Y-92628776D01*
X139159259Y-92626942D01*
X139155910Y-92625254D01*
X139152467Y-92623717D01*
X139148938Y-92622334D01*
X139145322Y-92621107D01*
X139141624Y-92620040D01*
X139137843Y-92619134D01*
X139133984Y-92618389D01*
X139130049Y-92617813D01*
X139126042Y-92617404D01*
X139121963Y-92617169D01*
X139117814Y-92617106D01*
X139113601Y-92617220D01*
X139109323Y-92617516D01*
X139105079Y-92617978D01*
X139100929Y-92618597D01*
X139096879Y-92619375D01*
X139092927Y-92620304D01*
X139089078Y-92621386D01*
X139085330Y-92622615D01*
X139081690Y-92623993D01*
X139078153Y-92625514D01*
X139074726Y-92627176D01*
X139071410Y-92628979D01*
X139068202Y-92630919D01*
X139065110Y-92632994D01*
X139062130Y-92635204D01*
X139059269Y-92637541D01*
X139056525Y-92640008D01*
X139053898Y-92642605D01*
X139051392Y-92645321D01*
X139049012Y-92648163D01*
X139046755Y-92651121D01*
X139044623Y-92654197D01*
X139042617Y-92657388D01*
X139040742Y-92660692D01*
X139038998Y-92664109D01*
X139037385Y-92667632D01*
X139035907Y-92671259D01*
X139034567Y-92674993D01*
X139033359Y-92678827D01*
X139032295Y-92682760D01*
X139031368Y-92686789D01*
X139030584Y-92690913D01*
X139029945Y-92695131D01*
X139029448Y-92699437D01*
X139028991Y-92705200D01*
X139028744Y-92710804D01*
X139028713Y-92716252D01*
X138880051Y-92716252D01*
X138879937Y-92710399D01*
X138880314Y-92698808D01*
X138881285Y-92687234D01*
X138882853Y-92675699D01*
X138885025Y-92664226D01*
X138887793Y-92652833D01*
X138891158Y-92641541D01*
X138895120Y-92630373D01*
X138899680Y-92619349D01*
X138904838Y-92608488D01*
X138910593Y-92597811D01*
X138916944Y-92587341D01*
X138923892Y-92577101D01*
X138931437Y-92567107D01*
X138939581Y-92557384D01*
X138948318Y-92547949D01*
X138957652Y-92538825D01*
X138967390Y-92530194D01*
X138977374Y-92522169D01*
X138987585Y-92514753D01*
X138998004Y-92507943D01*
X139008615Y-92501741D01*
X139019398Y-92496143D01*
X139030332Y-92491148D01*
X139041405Y-92486755D01*
X139052593Y-92482964D01*
X139063881Y-92479774D01*
X139075249Y-92477181D01*
X139086677Y-92475187D01*
X139098149Y-92473792D01*
X139109650Y-92472992D01*
X139121153Y-92472784D01*
X139132646Y-92473174D01*
X139144109Y-92474153D01*
X139155526Y-92475725D01*
X139166873Y-92477889D01*
X139178135Y-92480641D01*
X139189297Y-92483983D01*
X139200336Y-92487912D01*
X139211236Y-92492423D01*
X139221973Y-92497524D01*
X139232537Y-92503205D01*
X139242905Y-92509470D01*
X139253060Y-92516317D01*
X139262983Y-92523744D01*
X139272654Y-92531752D01*
X139282057Y-92540339D01*
X139291173Y-92549500D01*
X139299985Y-92559241D01*
X139308512Y-92568765D01*
X139317142Y-92577695D01*
X139325867Y-92586034D01*
X139334686Y-92593776D01*
X139343594Y-92600920D01*
X139352583Y-92607473D01*
X139361653Y-92613429D01*
X139370792Y-92618789D01*
X139380001Y-92623553D01*
X139389273Y-92627720D01*
X139398604Y-92631290D01*
X139407988Y-92634261D01*
X139417419Y-92636636D01*
X139426896Y-92638413D01*
X139436413Y-92639590D01*
X139445962Y-92640171D01*
X139455540Y-92640148D01*
X139465142Y-92639528D01*
X139474764Y-92638309D01*
X139484399Y-92636490D01*
X139494047Y-92634066D01*
X139503695Y-92631046D01*
X139513347Y-92627424D01*
X139522993Y-92623199D01*
X139532629Y-92618373D01*
X139542248Y-92612942D01*
X139551850Y-92606910D01*
X139561426Y-92600277D01*
X139570974Y-92593038D01*
X139580487Y-92585197D01*
X139589959Y-92576748D01*
X139599389Y-92567697D01*
X140257637Y-91911528D01*
X140272645Y-91896912D01*
X140280214Y-91889937D01*
X140287878Y-91883238D01*
X140295670Y-91876853D01*
X140303631Y-91870821D01*
X140311798Y-91865185D01*
X140320203Y-91859985D01*
X140328891Y-91855256D01*
X140337891Y-91851042D01*
X140347244Y-91847384D01*
X140356987Y-91844321D01*
X140367157Y-91841891D01*
X140377790Y-91840138D01*
X140388923Y-91839095D01*
X140400595Y-91838810D01*
X140828771Y-91840209D01*
X141256967Y-91839890D01*
X141274199Y-91839967D01*
X141282628Y-91840208D01*
X141290852Y-91840726D01*
X141298806Y-91841624D01*
X141302666Y-91842248D01*
X141306436Y-91843004D01*
X141310109Y-91843908D01*
X141313679Y-91844973D01*
X141317134Y-91846209D01*
X141320472Y-91847630D01*
X141323681Y-91849248D01*
X141326755Y-91851084D01*
X141329689Y-91853139D01*
X141332472Y-91855435D01*
X141335098Y-91857981D01*
X141337558Y-91860791D01*
X141339848Y-91863877D01*
X141341954Y-91867254D01*
X141343875Y-91870932D01*
X141345598Y-91874928D01*
X141347123Y-91879249D01*
X141348434Y-91883915D01*
X141349530Y-91888935D01*
X141350398Y-91894321D01*
X141351033Y-91900091D01*
X141351429Y-91906252D01*
X141351580Y-91912449D01*
X141351494Y-91918352D01*
X141351173Y-91923973D01*
X141350628Y-91929313D01*
X141349855Y-91934382D01*
X141348865Y-91939184D01*
X141347659Y-91943726D01*
X141346242Y-91948016D01*
X141344620Y-91952058D01*
X141342796Y-91955859D01*
X141340777Y-91959427D01*
X141338563Y-91962766D01*
X141336164Y-91965885D01*
X141333580Y-91968786D01*
X141330816Y-91971476D01*
X141327880Y-91973968D01*
X141324772Y-91976262D01*
X141321499Y-91978365D01*
X141318066Y-91980286D01*
X141314477Y-91982029D01*
X141310736Y-91983601D01*
X141306845Y-91985007D01*
X141298645Y-91987352D01*
X141289909Y-91989116D01*
X141280673Y-91990343D01*
X141270975Y-91991091D01*
X141260847Y-91991408D01*
X141118564Y-91992119D01*
X140968442Y-91992156D01*
X140739914Y-91993274D01*
X140629124Y-91992761D01*
X140574204Y-91991580D01*
X140519444Y-91989530D01*
X140501813Y-91989147D01*
X140484766Y-91989660D01*
X140468280Y-91991060D01*
X140452316Y-91993337D01*
X140436839Y-91996485D01*
X140421817Y-92000488D01*
X140407218Y-92005346D01*
X140393012Y-92011046D01*
X140379159Y-92017579D01*
X140365629Y-92024938D01*
X140352389Y-92033111D01*
X140339404Y-92042091D01*
X140326643Y-92051868D01*
X140314073Y-92062436D01*
X140301657Y-92073783D01*
X140289364Y-92085900D01*
X139684767Y-92692330D01*
X139673827Y-92703207D01*
X139662806Y-92713411D01*
X139660281Y-92715571D01*
X139651678Y-92722924D01*
G37*
G36*
X144464883Y-91426028D02*
G01*
X144466628Y-91538357D01*
X144466628Y-91550954D01*
X144466065Y-91563163D01*
X144464930Y-91575004D01*
X144463224Y-91586498D01*
X144460943Y-91597662D01*
X144458080Y-91608516D01*
X144454636Y-91619079D01*
X144450604Y-91629372D01*
X144445981Y-91639409D01*
X144440765Y-91649217D01*
X144434951Y-91658810D01*
X144428536Y-91668208D01*
X144421515Y-91677431D01*
X144413887Y-91686499D01*
X144405648Y-91695429D01*
X144396793Y-91704242D01*
X144322768Y-91774467D01*
X144285814Y-91809713D01*
X144249201Y-91845280D01*
X144213162Y-91881348D01*
X144177929Y-91918083D01*
X144143729Y-91955665D01*
X144127086Y-91974829D01*
X144110788Y-91994267D01*
X144095709Y-92011607D01*
X144080307Y-92027392D01*
X144064560Y-92041683D01*
X144048447Y-92054535D01*
X144031948Y-92066009D01*
X144015042Y-92076158D01*
X143997710Y-92085049D01*
X143979928Y-92092732D01*
X143961680Y-92099270D01*
X143942940Y-92104720D01*
X143923687Y-92109141D01*
X143903907Y-92112593D01*
X143883574Y-92115131D01*
X143862670Y-92116815D01*
X143841169Y-92117704D01*
X143819057Y-92117854D01*
X143134445Y-92115793D01*
X142449803Y-92116903D01*
X142372798Y-92117379D01*
X142341668Y-92118445D01*
X142315010Y-92120514D01*
X142303253Y-92122029D01*
X142292489Y-92123920D01*
X142282678Y-92126228D01*
X142273774Y-92128999D01*
X142265740Y-92132272D01*
X142258533Y-92136086D01*
X142252112Y-92140487D01*
X142246435Y-92145518D01*
X142241460Y-92151216D01*
X142237144Y-92157629D01*
X142233447Y-92164795D01*
X142230330Y-92172755D01*
X142227748Y-92181551D01*
X142225659Y-92191230D01*
X142224023Y-92201830D01*
X142222801Y-92213393D01*
X142221419Y-92239576D01*
X142221185Y-92270116D01*
X142222826Y-92345612D01*
X142223491Y-92358497D01*
X142224760Y-92371187D01*
X142226618Y-92383667D01*
X142229051Y-92395926D01*
X142232047Y-92407946D01*
X142235589Y-92419719D01*
X142239663Y-92431223D01*
X142244260Y-92442450D01*
X142249363Y-92453384D01*
X142254962Y-92464008D01*
X142261037Y-92474315D01*
X142267577Y-92484284D01*
X142274570Y-92493906D01*
X142282004Y-92503167D01*
X142289858Y-92512047D01*
X142298127Y-92520534D01*
X142306788Y-92528624D01*
X142315837Y-92536288D01*
X142325253Y-92543522D01*
X142335026Y-92550310D01*
X142345142Y-92556635D01*
X142355586Y-92562485D01*
X142366343Y-92567846D01*
X142377404Y-92572705D01*
X142388752Y-92577047D01*
X142400374Y-92580859D01*
X142412256Y-92584125D01*
X142424384Y-92586832D01*
X142436743Y-92588966D01*
X142449323Y-92590514D01*
X142462109Y-92591460D01*
X142475086Y-92591792D01*
X143687566Y-92592082D01*
X143718475Y-92592321D01*
X143748558Y-92592873D01*
X143806651Y-92594069D01*
X143834862Y-92594275D01*
X143862656Y-92593940D01*
X143890130Y-92592841D01*
X143917386Y-92590765D01*
X143935673Y-92589466D01*
X143953342Y-92589169D01*
X143970428Y-92589875D01*
X143986961Y-92591585D01*
X144002972Y-92594296D01*
X144018498Y-92598013D01*
X144033562Y-92602731D01*
X144048203Y-92608450D01*
X144062451Y-92615170D01*
X144076332Y-92622892D01*
X144089886Y-92631612D01*
X144103140Y-92641335D01*
X144116126Y-92652055D01*
X144128878Y-92663776D01*
X144141420Y-92676495D01*
X144153796Y-92690211D01*
X144195238Y-92737175D01*
X144237485Y-92783441D01*
X144280337Y-92829181D01*
X144323601Y-92874569D01*
X144410568Y-92964975D01*
X144453880Y-93010337D01*
X144496813Y-93056036D01*
X144501514Y-93060829D01*
X144506502Y-93065500D01*
X144516963Y-93074688D01*
X144527450Y-93084014D01*
X144532473Y-93088856D01*
X144537222Y-93093893D01*
X144541604Y-93099167D01*
X144543629Y-93101911D01*
X144545530Y-93104735D01*
X144547291Y-93107646D01*
X144548904Y-93110649D01*
X144550355Y-93113751D01*
X144551632Y-93116960D01*
X144552723Y-93120279D01*
X144553622Y-93123718D01*
X144554311Y-93127281D01*
X144554781Y-93130977D01*
X144555022Y-93134810D01*
X144555016Y-93138788D01*
X144554759Y-93142919D01*
X144554234Y-93147203D01*
X144551400Y-93149782D01*
X144548529Y-93152155D01*
X144545627Y-93154331D01*
X144542688Y-93156316D01*
X144539719Y-93158124D01*
X144536722Y-93159757D01*
X144533700Y-93161225D01*
X144530648Y-93162536D01*
X144524480Y-93164721D01*
X144518229Y-93166376D01*
X144511908Y-93167567D01*
X144505531Y-93168355D01*
X144499114Y-93168811D01*
X144492673Y-93168994D01*
X144486212Y-93168974D01*
X144479756Y-93168807D01*
X144466891Y-93168314D01*
X144454188Y-93168035D01*
X142175563Y-93167284D01*
X142164522Y-93167111D01*
X142153780Y-93166560D01*
X142143318Y-93165614D01*
X142133125Y-93164248D01*
X142123190Y-93162448D01*
X142113498Y-93160190D01*
X142104032Y-93157460D01*
X142094783Y-93154231D01*
X142085736Y-93150490D01*
X142076875Y-93146214D01*
X142068193Y-93141386D01*
X142059668Y-93135982D01*
X142051291Y-93129986D01*
X142043049Y-93123376D01*
X142034927Y-93116134D01*
X142026913Y-93108242D01*
X141933791Y-93012930D01*
X141839882Y-92918377D01*
X141745275Y-92824519D01*
X141650052Y-92731295D01*
X141642278Y-92723422D01*
X141635053Y-92715462D01*
X141628372Y-92707393D01*
X141622226Y-92699197D01*
X141616611Y-92690855D01*
X141611521Y-92682346D01*
X141606948Y-92673656D01*
X141602888Y-92664760D01*
X141599332Y-92655644D01*
X141596280Y-92646283D01*
X141593718Y-92636664D01*
X141591643Y-92626765D01*
X141590048Y-92616564D01*
X141588930Y-92606050D01*
X141588280Y-92595194D01*
X141588091Y-92583984D01*
X141589318Y-91831411D01*
X141588725Y-91348289D01*
X142215827Y-91348289D01*
X142216417Y-91367181D01*
X142217745Y-91386619D01*
X142223268Y-91446868D01*
X142226198Y-91471250D01*
X142229621Y-91492159D01*
X142231609Y-91501396D01*
X142233825Y-91509863D01*
X142236309Y-91517598D01*
X142239099Y-91524632D01*
X142242227Y-91530995D01*
X142245727Y-91536725D01*
X142249641Y-91541855D01*
X142253999Y-91546416D01*
X142258840Y-91550441D01*
X142264201Y-91553966D01*
X142270116Y-91557028D01*
X142276621Y-91559652D01*
X142283752Y-91561876D01*
X142291542Y-91563731D01*
X142300034Y-91565252D01*
X142309259Y-91566472D01*
X142330053Y-91568146D01*
X142354211Y-91569015D01*
X142413777Y-91569416D01*
X143582519Y-91569556D01*
X143595479Y-91569243D01*
X143608223Y-91568346D01*
X143620738Y-91566876D01*
X143633012Y-91564850D01*
X143645033Y-91562274D01*
X143656790Y-91559164D01*
X143668264Y-91555534D01*
X143679450Y-91551395D01*
X143690333Y-91546763D01*
X143700898Y-91541647D01*
X143711133Y-91536061D01*
X143721024Y-91530018D01*
X143730564Y-91523529D01*
X143739737Y-91516610D01*
X143748528Y-91509273D01*
X143756927Y-91501529D01*
X143764924Y-91493394D01*
X143772499Y-91484875D01*
X143779649Y-91475993D01*
X143786352Y-91466749D01*
X143792602Y-91457168D01*
X143798381Y-91447258D01*
X143803683Y-91437032D01*
X143808491Y-91426500D01*
X143812794Y-91415680D01*
X143816574Y-91404579D01*
X143819825Y-91393213D01*
X143822534Y-91381596D01*
X143824687Y-91369740D01*
X143826267Y-91357652D01*
X143827270Y-91345356D01*
X143827678Y-91332857D01*
X143827486Y-91318525D01*
X143826688Y-91304415D01*
X143825291Y-91290542D01*
X143823306Y-91276920D01*
X143820746Y-91263564D01*
X143817630Y-91250491D01*
X143813965Y-91237716D01*
X143809763Y-91225254D01*
X143805039Y-91213117D01*
X143799804Y-91201324D01*
X143794073Y-91189891D01*
X143787857Y-91178831D01*
X143781169Y-91168158D01*
X143774022Y-91157889D01*
X143766426Y-91148038D01*
X143758399Y-91138626D01*
X143749947Y-91129657D01*
X143741090Y-91121157D01*
X143731834Y-91113135D01*
X143722195Y-91105608D01*
X143712187Y-91098591D01*
X143701819Y-91092100D01*
X143691103Y-91086151D01*
X143680060Y-91080755D01*
X143668692Y-91075931D01*
X143657019Y-91071693D01*
X143645052Y-91068056D01*
X143632798Y-91065037D01*
X143620275Y-91062650D01*
X143607498Y-91060908D01*
X143594475Y-91059829D01*
X143581222Y-91059428D01*
X142694229Y-91059250D01*
X142516871Y-91059123D01*
X142497522Y-91059418D01*
X142478776Y-91060403D01*
X142460638Y-91062071D01*
X142443108Y-91064419D01*
X142426194Y-91067441D01*
X142409900Y-91071132D01*
X142394227Y-91075487D01*
X142379183Y-91080504D01*
X142364770Y-91086176D01*
X142350995Y-91092500D01*
X142337861Y-91099468D01*
X142325372Y-91107077D01*
X142313532Y-91115323D01*
X142302345Y-91124201D01*
X142291818Y-91133706D01*
X142281952Y-91143833D01*
X142272752Y-91154577D01*
X142264225Y-91165936D01*
X142256373Y-91177901D01*
X142249202Y-91190469D01*
X142242714Y-91203634D01*
X142236914Y-91217397D01*
X142231807Y-91231747D01*
X142227398Y-91246680D01*
X142223690Y-91262195D01*
X142220688Y-91278282D01*
X142218397Y-91294941D01*
X142216820Y-91312165D01*
X142215962Y-91329947D01*
X142215827Y-91348289D01*
X141588725Y-91348289D01*
X141588394Y-91078835D01*
X141588517Y-91069259D01*
X141588940Y-91059914D01*
X141589685Y-91050795D01*
X141590776Y-91041889D01*
X141592235Y-91033188D01*
X141594083Y-91024684D01*
X141596344Y-91016366D01*
X141599041Y-91008224D01*
X141602193Y-91000254D01*
X141605824Y-90992440D01*
X141609958Y-90984779D01*
X141614613Y-90977259D01*
X141619817Y-90969870D01*
X141625586Y-90962607D01*
X141631949Y-90955456D01*
X141638924Y-90948407D01*
X141734693Y-90855764D01*
X141829832Y-90762460D01*
X141924456Y-90668632D01*
X142018680Y-90574404D01*
X142027128Y-90566289D01*
X142035729Y-90558736D01*
X142044493Y-90551741D01*
X142053428Y-90545300D01*
X142062545Y-90539405D01*
X142071851Y-90534054D01*
X142081357Y-90529239D01*
X142091070Y-90524957D01*
X142101002Y-90521199D01*
X142111160Y-90517962D01*
X142121549Y-90515244D01*
X142132186Y-90513031D01*
X142143075Y-90511325D01*
X142154225Y-90510118D01*
X142165646Y-90509405D01*
X142177346Y-90509181D01*
X143901994Y-90509507D01*
X143912972Y-90509736D01*
X143923668Y-90510445D01*
X143934092Y-90511639D01*
X143944253Y-90513323D01*
X143954163Y-90515497D01*
X143963833Y-90518172D01*
X143973274Y-90521350D01*
X143982494Y-90525041D01*
X143991507Y-90529240D01*
X144000321Y-90533963D01*
X144008949Y-90539207D01*
X144017401Y-90544982D01*
X144025686Y-90551289D01*
X144033817Y-90558135D01*
X144041802Y-90565525D01*
X144049657Y-90573463D01*
X144138102Y-90666022D01*
X144227234Y-90757931D01*
X144317003Y-90849221D01*
X144407352Y-90939924D01*
X144415049Y-90947933D01*
X144422183Y-90956048D01*
X144428766Y-90964286D01*
X144434800Y-90972658D01*
X144440294Y-90981181D01*
X144445256Y-90989867D01*
X144449692Y-90998731D01*
X144453609Y-91007791D01*
X144457009Y-91017059D01*
X144459906Y-91026548D01*
X144462304Y-91036269D01*
X144464211Y-91046246D01*
X144465632Y-91056485D01*
X144466575Y-91067008D01*
X144467048Y-91077821D01*
X144467054Y-91088944D01*
X144465278Y-91201290D01*
X144464495Y-91313660D01*
X144464562Y-91332857D01*
X144464883Y-91426028D01*
G37*
G36*
X152072614Y-90520524D02*
G01*
X152498252Y-90520877D01*
X152710918Y-90517315D01*
X152923439Y-90510416D01*
X152968308Y-90509479D01*
X153011455Y-90510470D01*
X153052972Y-90513421D01*
X153092953Y-90518364D01*
X153131484Y-90525328D01*
X153168661Y-90534345D01*
X153204571Y-90545448D01*
X153239310Y-90558666D01*
X153272968Y-90574032D01*
X153305633Y-90591577D01*
X153337398Y-90611330D01*
X153368359Y-90633326D01*
X153398601Y-90657591D01*
X153428216Y-90684164D01*
X153457300Y-90713069D01*
X153485939Y-90744343D01*
X153502656Y-90762977D01*
X153519786Y-90781250D01*
X153537290Y-90799202D01*
X153555127Y-90816867D01*
X153591642Y-90851493D01*
X153629013Y-90885422D01*
X153705059Y-90952380D01*
X153743095Y-90986006D01*
X153780717Y-91020123D01*
X153776540Y-91024742D01*
X153772342Y-91028981D01*
X153768124Y-91032852D01*
X153763889Y-91036372D01*
X153759637Y-91039556D01*
X153755372Y-91042419D01*
X153751090Y-91044977D01*
X153746803Y-91047244D01*
X153742503Y-91049238D01*
X153738196Y-91050974D01*
X153733887Y-91052466D01*
X153729573Y-91053729D01*
X153725258Y-91054782D01*
X153720945Y-91055636D01*
X153712322Y-91056819D01*
X153703724Y-91057399D01*
X153695162Y-91057503D01*
X153686657Y-91057251D01*
X153678217Y-91056770D01*
X153661603Y-91055613D01*
X153653458Y-91055183D01*
X153645435Y-91055022D01*
X151460346Y-91055608D01*
X151445483Y-91055887D01*
X151430970Y-91056710D01*
X151416814Y-91058072D01*
X151403022Y-91059964D01*
X151389599Y-91062378D01*
X151376560Y-91065304D01*
X151363906Y-91068738D01*
X151351650Y-91072671D01*
X151339794Y-91077097D01*
X151328353Y-91082003D01*
X151317330Y-91087384D01*
X151306735Y-91093234D01*
X151296577Y-91099547D01*
X151286862Y-91106311D01*
X151277597Y-91113519D01*
X151268792Y-91121162D01*
X151260455Y-91129238D01*
X151252592Y-91137734D01*
X151245213Y-91146643D01*
X151238323Y-91155959D01*
X151231935Y-91165675D01*
X151226053Y-91175781D01*
X151220686Y-91186269D01*
X151215842Y-91197133D01*
X151211525Y-91208364D01*
X151207751Y-91219957D01*
X151204523Y-91231901D01*
X151201849Y-91244187D01*
X151199737Y-91256814D01*
X151198196Y-91269767D01*
X151197232Y-91283041D01*
X151196856Y-91296631D01*
X151197077Y-91310728D01*
X151197899Y-91324487D01*
X151199320Y-91337902D01*
X151201331Y-91350960D01*
X151203920Y-91363660D01*
X151207085Y-91375990D01*
X151210814Y-91387947D01*
X151215102Y-91399521D01*
X151219941Y-91410708D01*
X151225325Y-91421500D01*
X151231244Y-91431888D01*
X151237688Y-91441867D01*
X151244656Y-91451430D01*
X151252136Y-91460565D01*
X151260121Y-91469271D01*
X151268606Y-91477541D01*
X151277580Y-91485362D01*
X151287037Y-91492731D01*
X151296969Y-91499642D01*
X151307370Y-91506087D01*
X151318228Y-91512056D01*
X151329541Y-91517544D01*
X151341300Y-91522548D01*
X151353496Y-91527052D01*
X151366121Y-91531057D01*
X151379166Y-91534552D01*
X151392630Y-91537530D01*
X151406499Y-91539986D01*
X151420769Y-91541911D01*
X151435429Y-91543299D01*
X151450476Y-91544142D01*
X151465900Y-91544432D01*
X152009561Y-91545095D01*
X152553209Y-91543796D01*
X152565699Y-91543938D01*
X152577804Y-91544539D01*
X152589544Y-91545614D01*
X152600939Y-91547186D01*
X152612016Y-91549272D01*
X152622789Y-91551893D01*
X152633283Y-91555067D01*
X152643517Y-91558814D01*
X152653515Y-91563152D01*
X152663294Y-91568102D01*
X152672880Y-91573680D01*
X152682292Y-91579908D01*
X152691547Y-91586805D01*
X152700674Y-91594388D01*
X152709689Y-91602680D01*
X152718611Y-91611694D01*
X152760193Y-91655062D01*
X152802236Y-91697989D01*
X152887264Y-91782960D01*
X152972775Y-91867478D01*
X153057858Y-91952417D01*
X153062328Y-91956777D01*
X153066970Y-91961066D01*
X153076505Y-91969601D01*
X153081259Y-91973933D01*
X153085920Y-91978365D01*
X153090416Y-91982938D01*
X153094682Y-91987696D01*
X153098649Y-91992679D01*
X153102252Y-91997933D01*
X153103897Y-92000675D01*
X153105427Y-92003497D01*
X153106829Y-92006411D01*
X153108101Y-92009415D01*
X153109230Y-92012522D01*
X153110210Y-92015730D01*
X153111030Y-92019050D01*
X153111683Y-92022483D01*
X153112163Y-92026040D01*
X153112461Y-92029719D01*
X153112567Y-92033532D01*
X153112473Y-92037479D01*
X153108854Y-92040585D01*
X153105185Y-92043421D01*
X153101470Y-92046000D01*
X153097706Y-92048330D01*
X153093897Y-92050424D01*
X153090051Y-92052294D01*
X153086166Y-92053949D01*
X153082243Y-92055403D01*
X153078287Y-92056664D01*
X153074301Y-92057748D01*
X153066241Y-92059421D01*
X153058084Y-92060508D01*
X153049851Y-92061100D01*
X153041562Y-92061287D01*
X153033235Y-92061161D01*
X153016541Y-92060323D01*
X152999930Y-92059308D01*
X152991702Y-92058958D01*
X152983556Y-92058833D01*
X151446678Y-92060163D01*
X151431230Y-92059940D01*
X151415743Y-92059520D01*
X151400260Y-92059340D01*
X151392535Y-92059477D01*
X151384827Y-92059838D01*
X151377146Y-92060475D01*
X151369496Y-92061446D01*
X151361884Y-92062805D01*
X151354314Y-92064609D01*
X151346795Y-92066907D01*
X151339330Y-92069757D01*
X151331926Y-92073212D01*
X151324591Y-92077328D01*
X151305539Y-92090243D01*
X151287768Y-92104834D01*
X151271329Y-92120978D01*
X151256268Y-92138547D01*
X151242635Y-92157417D01*
X151230479Y-92177463D01*
X151219850Y-92198560D01*
X151210796Y-92220584D01*
X151203366Y-92243409D01*
X151197609Y-92266912D01*
X151193573Y-92290965D01*
X151191309Y-92315445D01*
X151190866Y-92340226D01*
X151192287Y-92365183D01*
X151195631Y-92390195D01*
X151200940Y-92415131D01*
X151203453Y-92423853D01*
X151206536Y-92432506D01*
X151210172Y-92441074D01*
X151214338Y-92449541D01*
X151219014Y-92457895D01*
X151224182Y-92466125D01*
X151235911Y-92482151D01*
X151249365Y-92497515D01*
X151264388Y-92512108D01*
X151280817Y-92525821D01*
X151298497Y-92538548D01*
X151317266Y-92550181D01*
X151336966Y-92560612D01*
X151357440Y-92569732D01*
X151378526Y-92577439D01*
X151400067Y-92583622D01*
X151421904Y-92588171D01*
X151443877Y-92590982D01*
X151465828Y-92591946D01*
X153274539Y-92591862D01*
X153294278Y-92591960D01*
X153304018Y-92592185D01*
X153313659Y-92592605D01*
X153323192Y-92593291D01*
X153332612Y-92594295D01*
X153341909Y-92595685D01*
X153351076Y-92597517D01*
X153360104Y-92599858D01*
X153368988Y-92602766D01*
X153377714Y-92606305D01*
X153386277Y-92610533D01*
X153390495Y-92612927D01*
X153394669Y-92615515D01*
X153398800Y-92618308D01*
X153402883Y-92621312D01*
X153406921Y-92624533D01*
X153410909Y-92627982D01*
X153414848Y-92631666D01*
X153418737Y-92635591D01*
X153477904Y-92696432D01*
X153537916Y-92756554D01*
X153658635Y-92876823D01*
X153718415Y-92938055D01*
X153777189Y-93000746D01*
X153806057Y-93032807D01*
X153834498Y-93065436D01*
X153862460Y-93098701D01*
X153889882Y-93132673D01*
X153886612Y-93137328D01*
X153883262Y-93141588D01*
X153879831Y-93145471D01*
X153876328Y-93148997D01*
X153872756Y-93152176D01*
X153869119Y-93155026D01*
X153865420Y-93157565D01*
X153861661Y-93159808D01*
X153857850Y-93161770D01*
X153853986Y-93163468D01*
X153850077Y-93164918D01*
X153846124Y-93166136D01*
X153842131Y-93167138D01*
X153838104Y-93167940D01*
X153829958Y-93169008D01*
X153821716Y-93169472D01*
X153813410Y-93169456D01*
X153805068Y-93169092D01*
X153796720Y-93168507D01*
X153780132Y-93167189D01*
X153771953Y-93166713D01*
X153763892Y-93166532D01*
X152587645Y-93163661D01*
X151999581Y-93164718D01*
X151411653Y-93172320D01*
X151365559Y-93172349D01*
X151321154Y-93170483D01*
X151278315Y-93166692D01*
X151236923Y-93160951D01*
X151196858Y-93153234D01*
X151157993Y-93143506D01*
X151120209Y-93131745D01*
X151083383Y-93117922D01*
X151047396Y-93102005D01*
X151012124Y-93083973D01*
X150977447Y-93063793D01*
X150943240Y-93041439D01*
X150909384Y-93016883D01*
X150875759Y-92990094D01*
X150842240Y-92961051D01*
X150808708Y-92929722D01*
X150773634Y-92894709D01*
X150740837Y-92859619D01*
X150710354Y-92824317D01*
X150682217Y-92788669D01*
X150656467Y-92752541D01*
X150633142Y-92715801D01*
X150612274Y-92678314D01*
X150593905Y-92639946D01*
X150578066Y-92600563D01*
X150564800Y-92560032D01*
X150554139Y-92518220D01*
X150546123Y-92474994D01*
X150540783Y-92430215D01*
X150538166Y-92383757D01*
X150538300Y-92335479D01*
X150541225Y-92285254D01*
X150547010Y-92222802D01*
X150550483Y-92192576D01*
X150554593Y-92163041D01*
X150559531Y-92134227D01*
X150565484Y-92106152D01*
X150572641Y-92078844D01*
X150581188Y-92052320D01*
X150591317Y-92026605D01*
X150597035Y-92014058D01*
X150603216Y-92001725D01*
X150609887Y-91989602D01*
X150617072Y-91977694D01*
X150624792Y-91966009D01*
X150633075Y-91954546D01*
X150641940Y-91943306D01*
X150651411Y-91932293D01*
X150661514Y-91921514D01*
X150672272Y-91910967D01*
X150683708Y-91900657D01*
X150695844Y-91890585D01*
X150708707Y-91880756D01*
X150722316Y-91871173D01*
X150731565Y-91864775D01*
X150736201Y-91861409D01*
X150740804Y-91857904D01*
X150745344Y-91854250D01*
X150749790Y-91850434D01*
X150754110Y-91846435D01*
X150758281Y-91842238D01*
X150762269Y-91837828D01*
X150766042Y-91833190D01*
X150769570Y-91828309D01*
X150772826Y-91823164D01*
X150775776Y-91817746D01*
X150777131Y-91814928D01*
X150778394Y-91812036D01*
X150779570Y-91809067D01*
X150780650Y-91806018D01*
X150781633Y-91802888D01*
X150782510Y-91799677D01*
X150781808Y-91798028D01*
X150781147Y-91796288D01*
X150779902Y-91792610D01*
X150778687Y-91788803D01*
X150777409Y-91785021D01*
X150776717Y-91783185D01*
X150775974Y-91781416D01*
X150775169Y-91779730D01*
X150774295Y-91778148D01*
X150773823Y-91777402D01*
X150773332Y-91776686D01*
X150772815Y-91776009D01*
X150772274Y-91775371D01*
X150771706Y-91774771D01*
X150771109Y-91774213D01*
X150770482Y-91773701D01*
X150769825Y-91773235D01*
X150749705Y-91759537D01*
X150730698Y-91745427D01*
X150712778Y-91730921D01*
X150695920Y-91716019D01*
X150680096Y-91700736D01*
X150665280Y-91685081D01*
X150651446Y-91669065D01*
X150638572Y-91652695D01*
X150626625Y-91635982D01*
X150615584Y-91618931D01*
X150596108Y-91583869D01*
X150579935Y-91547582D01*
X150566859Y-91510148D01*
X150556668Y-91471643D01*
X150549154Y-91432139D01*
X150544106Y-91391717D01*
X150541317Y-91350448D01*
X150540580Y-91308412D01*
X150541682Y-91265682D01*
X150544418Y-91222335D01*
X150548575Y-91178446D01*
X150549536Y-91168078D01*
X150550184Y-91157654D01*
X150550541Y-91147189D01*
X150550616Y-91136704D01*
X150550435Y-91126213D01*
X150550010Y-91115736D01*
X150549359Y-91105288D01*
X150548500Y-91094892D01*
X150547660Y-91081566D01*
X150547621Y-91068657D01*
X150548370Y-91056147D01*
X150549896Y-91044013D01*
X150552184Y-91032235D01*
X150555219Y-91020800D01*
X150558990Y-91009687D01*
X150563482Y-90998876D01*
X150568676Y-90988349D01*
X150574569Y-90978086D01*
X150581136Y-90968072D01*
X150588372Y-90958284D01*
X150596260Y-90948705D01*
X150604783Y-90939318D01*
X150613931Y-90930101D01*
X150623689Y-90921036D01*
X150707323Y-90845943D01*
X150790259Y-90770037D01*
X150831256Y-90731598D01*
X150871831Y-90692738D01*
X150911891Y-90653388D01*
X150951364Y-90613473D01*
X150965779Y-90599331D01*
X150980399Y-90586327D01*
X150995248Y-90574427D01*
X151010353Y-90563611D01*
X151025739Y-90553842D01*
X151041433Y-90545093D01*
X151057460Y-90537340D01*
X151073845Y-90530555D01*
X151090617Y-90524702D01*
X151107801Y-90519758D01*
X151125421Y-90515693D01*
X151143508Y-90512478D01*
X151162083Y-90510091D01*
X151181175Y-90508493D01*
X151200807Y-90507662D01*
X151221008Y-90507567D01*
X152072614Y-90520524D01*
G37*
G36*
X158744129Y-91889031D02*
G01*
X158757087Y-91901886D01*
X158919421Y-92068350D01*
X159083124Y-92233498D01*
X159412413Y-92561945D01*
X159422121Y-92571352D01*
X159431727Y-92580126D01*
X159441241Y-92588265D01*
X159450664Y-92595774D01*
X159460001Y-92602649D01*
X159469259Y-92608893D01*
X159478445Y-92614507D01*
X159487564Y-92619489D01*
X159496622Y-92623841D01*
X159505620Y-92627563D01*
X159514567Y-92630656D01*
X159523467Y-92633122D01*
X159532329Y-92634960D01*
X159541155Y-92636171D01*
X159549951Y-92636753D01*
X159558722Y-92636710D01*
X159567476Y-92636041D01*
X159576216Y-92634746D01*
X159584947Y-92632829D01*
X159593678Y-92630284D01*
X159602411Y-92627117D01*
X159611152Y-92623328D01*
X159619907Y-92618917D01*
X159628680Y-92613882D01*
X159637482Y-92608226D01*
X159646310Y-92601949D01*
X159655176Y-92595051D01*
X159664083Y-92587534D01*
X159673036Y-92579397D01*
X159682041Y-92570644D01*
X159691105Y-92561267D01*
X159700230Y-92551278D01*
X159712863Y-92537808D01*
X159725880Y-92525391D01*
X159739270Y-92514051D01*
X159753034Y-92503822D01*
X159767161Y-92494723D01*
X159781643Y-92486788D01*
X159796476Y-92480042D01*
X159811657Y-92474508D01*
X159827173Y-92470221D01*
X159843023Y-92467199D01*
X159859197Y-92465476D01*
X159875689Y-92465076D01*
X159892493Y-92466028D01*
X159909606Y-92468359D01*
X159927017Y-92472094D01*
X159944722Y-92477262D01*
X159962225Y-92483540D01*
X159979015Y-92490603D01*
X159995052Y-92498457D01*
X160010301Y-92507124D01*
X160024724Y-92516612D01*
X160038284Y-92526933D01*
X160050943Y-92538107D01*
X160062669Y-92550141D01*
X160073421Y-92563048D01*
X160083163Y-92576843D01*
X160087644Y-92584079D01*
X160091859Y-92591542D01*
X160095800Y-92599232D01*
X160099468Y-92607155D01*
X160102857Y-92615308D01*
X160105960Y-92623694D01*
X160108772Y-92632318D01*
X160111292Y-92641178D01*
X160113511Y-92650273D01*
X160115429Y-92659613D01*
X160117038Y-92669193D01*
X160118336Y-92679017D01*
X160119255Y-92688499D01*
X160119830Y-92697812D01*
X160119993Y-92704219D01*
X160120063Y-92706958D01*
X160119958Y-92715937D01*
X160119520Y-92724750D01*
X160118758Y-92733405D01*
X160117669Y-92741894D01*
X160116265Y-92750225D01*
X160114545Y-92758393D01*
X160112518Y-92766407D01*
X160110185Y-92774261D01*
X160107555Y-92781961D01*
X160104630Y-92789506D01*
X160101413Y-92796902D01*
X160097910Y-92804142D01*
X160094128Y-92811235D01*
X160090071Y-92818179D01*
X160085739Y-92824975D01*
X160081144Y-92831622D01*
X160076285Y-92838128D01*
X160071170Y-92844489D01*
X160065802Y-92850708D01*
X160060186Y-92856787D01*
X160054327Y-92862725D01*
X160041898Y-92874189D01*
X160028550Y-92885113D01*
X160014327Y-92895504D01*
X159999262Y-92905374D01*
X159989897Y-92910948D01*
X159980575Y-92916017D01*
X159971295Y-92920589D01*
X159962052Y-92924669D01*
X159952846Y-92928264D01*
X159943679Y-92931382D01*
X159934546Y-92934030D01*
X159925447Y-92936214D01*
X159916380Y-92937940D01*
X159907347Y-92939213D01*
X159898344Y-92940045D01*
X159889370Y-92940440D01*
X159880425Y-92940404D01*
X159871507Y-92939947D01*
X159862616Y-92939071D01*
X159853750Y-92937786D01*
X159844909Y-92936099D01*
X159836087Y-92934013D01*
X159827292Y-92931542D01*
X159818513Y-92928687D01*
X159801018Y-92921853D01*
X159783590Y-92913574D01*
X159766223Y-92903900D01*
X159748905Y-92892886D01*
X159731629Y-92880585D01*
X159714387Y-92867055D01*
X159706239Y-92852261D01*
X159697621Y-92838799D01*
X159688532Y-92826638D01*
X159683813Y-92821035D01*
X159678975Y-92815745D01*
X159674026Y-92810763D01*
X159668957Y-92806088D01*
X159663776Y-92801715D01*
X159658479Y-92797638D01*
X159653068Y-92793855D01*
X159647543Y-92790362D01*
X159641906Y-92787154D01*
X159636155Y-92784227D01*
X159630293Y-92781577D01*
X159624317Y-92779199D01*
X159618229Y-92777096D01*
X159612030Y-92775256D01*
X159599300Y-92772359D01*
X159586129Y-92770475D01*
X159572522Y-92769576D01*
X159558479Y-92769628D01*
X159544004Y-92770601D01*
X159529103Y-92772463D01*
X159520922Y-92773562D01*
X159512894Y-92774359D01*
X159505008Y-92774855D01*
X159497267Y-92775057D01*
X159489663Y-92774972D01*
X159482190Y-92774603D01*
X159474845Y-92773957D01*
X159467622Y-92773041D01*
X159460518Y-92771860D01*
X159453530Y-92770416D01*
X159446648Y-92768720D01*
X159439874Y-92766774D01*
X159433198Y-92764583D01*
X159426618Y-92762155D01*
X159413726Y-92756608D01*
X159401160Y-92750176D01*
X159388887Y-92742902D01*
X159376867Y-92734834D01*
X159365061Y-92726015D01*
X159353435Y-92716485D01*
X159341954Y-92706297D01*
X159334083Y-92698821D01*
X159795099Y-92698821D01*
X159795317Y-92703648D01*
X159795766Y-92708544D01*
X159796439Y-92713508D01*
X159798451Y-92723631D01*
X159801318Y-92734000D01*
X159805002Y-92744602D01*
X159809474Y-92755416D01*
X159814650Y-92760344D01*
X159819774Y-92764970D01*
X159824847Y-92769296D01*
X159829870Y-92773318D01*
X159834840Y-92777041D01*
X159839762Y-92780461D01*
X159844637Y-92783582D01*
X159849460Y-92786399D01*
X159854237Y-92788919D01*
X159858969Y-92791136D01*
X159863656Y-92793053D01*
X159868296Y-92794667D01*
X159872894Y-92795982D01*
X159877448Y-92796995D01*
X159881958Y-92797706D01*
X159886428Y-92798119D01*
X159890858Y-92798232D01*
X159895248Y-92798042D01*
X159899596Y-92797554D01*
X159903908Y-92796762D01*
X159908182Y-92795672D01*
X159912421Y-92794279D01*
X159916623Y-92792590D01*
X159920790Y-92790599D01*
X159924920Y-92788309D01*
X159929019Y-92785716D01*
X159933085Y-92782823D01*
X159937120Y-92779632D01*
X159941120Y-92776141D01*
X159945096Y-92772348D01*
X159949036Y-92768257D01*
X159952951Y-92763864D01*
X159958219Y-92757259D01*
X159962815Y-92750508D01*
X159964862Y-92747087D01*
X159966740Y-92743633D01*
X159968452Y-92740152D01*
X159969998Y-92736644D01*
X159971378Y-92733114D01*
X159972592Y-92729559D01*
X159973642Y-92725983D01*
X159974526Y-92722394D01*
X159975247Y-92718784D01*
X159975805Y-92715159D01*
X159976199Y-92711523D01*
X159976429Y-92707877D01*
X159976499Y-92704219D01*
X159976407Y-92700557D01*
X159976152Y-92696888D01*
X159975739Y-92693215D01*
X159974428Y-92685870D01*
X159972480Y-92678534D01*
X159969897Y-92671224D01*
X159966684Y-92663957D01*
X159962841Y-92656742D01*
X159958378Y-92649598D01*
X159953426Y-92642704D01*
X159948206Y-92636352D01*
X159942730Y-92630569D01*
X159937001Y-92625374D01*
X159931029Y-92620793D01*
X159927954Y-92618738D01*
X159924819Y-92616843D01*
X159921630Y-92615115D01*
X159918383Y-92613550D01*
X159915081Y-92612157D01*
X159911725Y-92610935D01*
X159908315Y-92609892D01*
X159904855Y-92609021D01*
X159901342Y-92608333D01*
X159897778Y-92607831D01*
X159894167Y-92607513D01*
X159890507Y-92607383D01*
X159886797Y-92607448D01*
X159883043Y-92607704D01*
X159879243Y-92608159D01*
X159875396Y-92608814D01*
X159871507Y-92609670D01*
X159867578Y-92610733D01*
X159863603Y-92612004D01*
X159859591Y-92613488D01*
X159855537Y-92615182D01*
X159851444Y-92617099D01*
X159845823Y-92620001D01*
X159840521Y-92623014D01*
X159835538Y-92626137D01*
X159830868Y-92629368D01*
X159826505Y-92632704D01*
X159822446Y-92636145D01*
X159818685Y-92639686D01*
X159815221Y-92643326D01*
X159812046Y-92647066D01*
X159809162Y-92650900D01*
X159806559Y-92654827D01*
X159804230Y-92658848D01*
X159802179Y-92662957D01*
X159800396Y-92667156D01*
X159798880Y-92671439D01*
X159797621Y-92675806D01*
X159796621Y-92680253D01*
X159795872Y-92684780D01*
X159795373Y-92689386D01*
X159795116Y-92694068D01*
X159795099Y-92698821D01*
X159334083Y-92698821D01*
X159330577Y-92695491D01*
X159319272Y-92684111D01*
X158679770Y-92037761D01*
X158669482Y-92027581D01*
X158659124Y-92018088D01*
X158648666Y-92009281D01*
X158638071Y-92001159D01*
X158627311Y-91993715D01*
X158616346Y-91986947D01*
X158605143Y-91980854D01*
X158593673Y-91975427D01*
X158581897Y-91970668D01*
X158569783Y-91966569D01*
X158557298Y-91963132D01*
X158544407Y-91960345D01*
X158531078Y-91958213D01*
X158517272Y-91956730D01*
X158502964Y-91955891D01*
X158488115Y-91955692D01*
X157813987Y-91958186D01*
X157139848Y-91956096D01*
X157126718Y-91956225D01*
X157114070Y-91956789D01*
X157101879Y-91957829D01*
X157090110Y-91959377D01*
X157078735Y-91961471D01*
X157067724Y-91964152D01*
X157057047Y-91967460D01*
X157046674Y-91971424D01*
X157036573Y-91976087D01*
X157026718Y-91981490D01*
X157017073Y-91987665D01*
X157007613Y-91994651D01*
X156998306Y-92002488D01*
X156989125Y-92011210D01*
X156980034Y-92020860D01*
X156971008Y-92031470D01*
X156962004Y-92042077D01*
X156952750Y-92052012D01*
X156943259Y-92061282D01*
X156933548Y-92069886D01*
X156923627Y-92077826D01*
X156913515Y-92085107D01*
X156903229Y-92091730D01*
X156892778Y-92097697D01*
X156882183Y-92103008D01*
X156871453Y-92107666D01*
X156860605Y-92111676D01*
X156849654Y-92115037D01*
X156838619Y-92117753D01*
X156827508Y-92119825D01*
X156816341Y-92121254D01*
X156805131Y-92122046D01*
X156793894Y-92122198D01*
X156782643Y-92121717D01*
X156771394Y-92120603D01*
X156760162Y-92118857D01*
X156748961Y-92116481D01*
X156737806Y-92113481D01*
X156726714Y-92109855D01*
X156715695Y-92105606D01*
X156704771Y-92100738D01*
X156693951Y-92095251D01*
X156683252Y-92089149D01*
X156672691Y-92082433D01*
X156662279Y-92075104D01*
X156652032Y-92067165D01*
X156641968Y-92058617D01*
X156632097Y-92049464D01*
X156623785Y-92040986D01*
X156615987Y-92032146D01*
X156608704Y-92022971D01*
X156601937Y-92013485D01*
X156595682Y-92003712D01*
X156589943Y-91993677D01*
X156584718Y-91983403D01*
X156580014Y-91972916D01*
X156575826Y-91962238D01*
X156572156Y-91951394D01*
X156569005Y-91940411D01*
X156566372Y-91929311D01*
X156564260Y-91918117D01*
X156562669Y-91906857D01*
X156561598Y-91895553D01*
X156561050Y-91884227D01*
X156561034Y-91877523D01*
X156703054Y-91877523D01*
X156703074Y-91882041D01*
X156703346Y-91886628D01*
X156703870Y-91891278D01*
X156704647Y-91895992D01*
X156705677Y-91900768D01*
X156706963Y-91905603D01*
X156708503Y-91910500D01*
X156710299Y-91915455D01*
X156712353Y-91920467D01*
X156714663Y-91925534D01*
X156717234Y-91930657D01*
X156720058Y-91935836D01*
X156730421Y-91945299D01*
X156735532Y-91949607D01*
X156740593Y-91953627D01*
X156745605Y-91957364D01*
X156750572Y-91960812D01*
X156755494Y-91963967D01*
X156760367Y-91966833D01*
X156765194Y-91969403D01*
X156769976Y-91971678D01*
X156774714Y-91973657D01*
X156779407Y-91975335D01*
X156784055Y-91976715D01*
X156788658Y-91977791D01*
X156793220Y-91978560D01*
X156797737Y-91979026D01*
X156802211Y-91979182D01*
X156806645Y-91979030D01*
X156811035Y-91978567D01*
X156815383Y-91977790D01*
X156819693Y-91976696D01*
X156823956Y-91975288D01*
X156828183Y-91973562D01*
X156832367Y-91971513D01*
X156836514Y-91969143D01*
X156840620Y-91966451D01*
X156844686Y-91963430D01*
X156848716Y-91960084D01*
X156852708Y-91956410D01*
X156856661Y-91952403D01*
X156860578Y-91948065D01*
X156864455Y-91943392D01*
X156869496Y-91936565D01*
X156871759Y-91933096D01*
X156873852Y-91929593D01*
X156875776Y-91926059D01*
X156877531Y-91922496D01*
X156879117Y-91918904D01*
X156880537Y-91915289D01*
X156881785Y-91911651D01*
X156882868Y-91907993D01*
X156883782Y-91904320D01*
X156884532Y-91900629D01*
X156885116Y-91896923D01*
X156885531Y-91893209D01*
X156885786Y-91889487D01*
X156885869Y-91885759D01*
X156885792Y-91882025D01*
X156885552Y-91878290D01*
X156885147Y-91874554D01*
X156884580Y-91870823D01*
X156882957Y-91863379D01*
X156880687Y-91855976D01*
X156877773Y-91848629D01*
X156874218Y-91841357D01*
X156870028Y-91834182D01*
X156865205Y-91827120D01*
X156859730Y-91820199D01*
X156856885Y-91816995D01*
X156853974Y-91813959D01*
X156850996Y-91811098D01*
X156847960Y-91808410D01*
X156844857Y-91805894D01*
X156841700Y-91803556D01*
X156838484Y-91801391D01*
X156835215Y-91799406D01*
X156831896Y-91797599D01*
X156828526Y-91795969D01*
X156825109Y-91794522D01*
X156821649Y-91793257D01*
X156818148Y-91792172D01*
X156814607Y-91791269D01*
X156811025Y-91790551D01*
X156807412Y-91790021D01*
X156803763Y-91789677D01*
X156800086Y-91789518D01*
X156796382Y-91789547D01*
X156792648Y-91789768D01*
X156788891Y-91790176D01*
X156785117Y-91790781D01*
X156781320Y-91791574D01*
X156777509Y-91792562D01*
X156773684Y-91793742D01*
X156769847Y-91795118D01*
X156766000Y-91796692D01*
X156762146Y-91798464D01*
X156758287Y-91800432D01*
X156754426Y-91802601D01*
X156744930Y-91808635D01*
X156740541Y-91811785D01*
X156736390Y-91815020D01*
X156732479Y-91818337D01*
X156728806Y-91821741D01*
X156725377Y-91825224D01*
X156722189Y-91828791D01*
X156719243Y-91832439D01*
X156716542Y-91836166D01*
X156714085Y-91839968D01*
X156711871Y-91843849D01*
X156709902Y-91847804D01*
X156708180Y-91851835D01*
X156706704Y-91855940D01*
X156705478Y-91860117D01*
X156704497Y-91864365D01*
X156703766Y-91868681D01*
X156703285Y-91873066D01*
X156703054Y-91877523D01*
X156561034Y-91877523D01*
X156561023Y-91872907D01*
X156561518Y-91861615D01*
X156562540Y-91850377D01*
X156564085Y-91839216D01*
X156566155Y-91828159D01*
X156568751Y-91817228D01*
X156571871Y-91806443D01*
X156575520Y-91795836D01*
X156579694Y-91785428D01*
X156584398Y-91775243D01*
X156589629Y-91765307D01*
X156595388Y-91755641D01*
X156601679Y-91746272D01*
X156608501Y-91737224D01*
X156615853Y-91728520D01*
X156623737Y-91720184D01*
X156633096Y-91711270D01*
X156642738Y-91702921D01*
X156652649Y-91695145D01*
X156662803Y-91687940D01*
X156673184Y-91681311D01*
X156683771Y-91675262D01*
X156694548Y-91669791D01*
X156705489Y-91664904D01*
X156716575Y-91660604D01*
X156727790Y-91656889D01*
X156739109Y-91653768D01*
X156750521Y-91651240D01*
X156761997Y-91649304D01*
X156773522Y-91647966D01*
X156785073Y-91647229D01*
X156796634Y-91647094D01*
X156808182Y-91647568D01*
X156819697Y-91648643D01*
X156831163Y-91650331D01*
X156842556Y-91652632D01*
X156853858Y-91655547D01*
X156865049Y-91659081D01*
X156876108Y-91663234D01*
X156887018Y-91668010D01*
X156897758Y-91673408D01*
X156908304Y-91679435D01*
X156918643Y-91686092D01*
X156928752Y-91693381D01*
X156938608Y-91701304D01*
X156948199Y-91709864D01*
X156957497Y-91719062D01*
X156966485Y-91728905D01*
X156976291Y-91739646D01*
X156986190Y-91749415D01*
X156996208Y-91758249D01*
X157006366Y-91766186D01*
X157016689Y-91773265D01*
X157027200Y-91779521D01*
X157037921Y-91784996D01*
X157048874Y-91789726D01*
X157060086Y-91793749D01*
X157071576Y-91797106D01*
X157083367Y-91799833D01*
X157095487Y-91801968D01*
X157107955Y-91803547D01*
X157120795Y-91804613D01*
X157134029Y-91805200D01*
X157147682Y-91805348D01*
X158516857Y-91803159D01*
X158534827Y-91803383D01*
X158552279Y-91804303D01*
X158569246Y-91805935D01*
X158585751Y-91808309D01*
X158601818Y-91811437D01*
X158617473Y-91815344D01*
X158632745Y-91820051D01*
X158647657Y-91825581D01*
X158662235Y-91831950D01*
X158676505Y-91839184D01*
X158690493Y-91847301D01*
X158704222Y-91856324D01*
X158717720Y-91866272D01*
X158731013Y-91877168D01*
X158740507Y-91885759D01*
X158744129Y-91889031D01*
G37*
%TO.C,1x2 Wago block*%
D11*
X141775999Y-99000000D02*
G75*
G02*
X141013999Y-99000000I-381000J0D01*
G01*
X141013999Y-99000000D02*
G75*
G02*
X141775999Y-99000000I381000J0D01*
G01*
%TD*%
%LPC*%
D12*
%TO.C,1x2 Wago block*%
X146000000Y-99000000D03*
X146000000Y-107199999D03*
X153500000Y-99000000D03*
X153500000Y-107199999D03*
%TD*%
%LPD*%
M02*
